<svg width="980" height="89" fill="none" xmlns="http://www.w3.org/2000/svg"><path d="M0 0h980v65.707c-.169 0-.393-.044-.511 0-1.322.66-2.701 1.172-4.478 1-.251-.027-.567.164-.828.274-1.251.544-1.649.61-3.723.712a.99.99 0 00-.365.093.87.87 0 00-.288.217c-.276.584-.914.703-1.731.663-1.573-.08-2.738.323-3.509 1.226-.771.902-2.676.694-3.692 1.397-1.629-.066-3.335.292-4.877-.314-1.389-.548-2.901-.274-4.366-.31-.511.73-1.629-.296-2.186.31-.781-.11-1.583-.177-2.334-.34-.751-.164-1.399-.549-2.14-.615-.74-.066-1.215-.075-1.389-.615-.056-.16-.449-.34-.735-.394-.511-.093-1.022-.552-1.573.08-.863.99-2.778.69-4.05 1.216a.673.673 0 01-.449-.057c-.976-.969-1.532-.164-2.186.199a.906.906 0 01-.511.03c-.623-.733-1.368-.203-1.95-.03a1.061 1.061 0 01-.761 0 1.899 1.899 0 01-1.093-.681c-.107-.124-.817.548-1.353.053-.383-.358-1.568.177-1.63-.677 0-.318-1.414.142-1.583-.672-.076-.354-1.333.057-2.042-.328-.47-.265-1.313-.623-1.946.053-.112.124-.587.147-.899.15-.608 0-.899.05-1.215.518-.48.708-1.594.673-2.411.036a.67.67 0 00-.213-.155.761.761 0 00-.544-.036.708.708 0 00-.239.125.87.87 0 01-.531.175.87.87 0 01-.531-.175c-.444-.275-.459-.031-.51.19 0 .093-.149.265-.2.26-1.961-.198-2.722.885-3.871 1.531-.551.314-.98.814-1.813.19a2.03 2.03 0 00-1.149.098c-.383.15-.602.278-1.077.084-1.42-.575-2.697 0-3.759.442-.71.305-1.072.234-1.271-.11-.286-.514-.455-.828-1.287-.315a1.455 1.455 0 01-.843-.057c-.965-.363-2.129-.527-2.834-1.155-1.384.182-1.869-.606-2.625-1.061-.756-.456-.541.026-.761.248-.567.561-2.364.734-3.064.234a3.61 3.61 0 00-1.329-.656 3.956 3.956 0 00-1.526-.092c-.95.115-.414-.628-1.021-.738-.23-.044-.46-.443-.644 0-.475 1.083-1.741 1.176-3.151 1.083-1.246-.08-2.042-.084-2.665.332-.623.416-1.195.319-1.844.327-.562 0-1.021-.703-1.67-.075a6.202 6.202 0 00-.546-.517c-.307-.23-.572-.531-1.093-.089a1.457 1.457 0 01-.475.29 1.623 1.623 0 01-1.139 0 1.457 1.457 0 01-.475-.29c-.753-.5-1.701-.729-2.645-.637a2.127 2.127 0 01-.82-.054 1.937 1.937 0 01-.712-.357c-.097-.088-.245-.23-.353-.226-1.286.062-2.211-.163-2.338-1.114a.372.372 0 00-.115-.142.437.437 0 00-.177-.08c-2.042 0-2.977-1.035-4.213-1.769-.704-.442-1.317-.884-2.298-.27a19.533 19.533 0 01-3.105-.583c-.337-.306-.924-.235-1.292-.372-1.128-.442-1.925-.367-2.757.296-.92.726-2.426.708-3.662 1.04a1.253 1.253 0 01-.669-.115c-.781-.345-1.18-.323-1.609.12-.168.172-.357.344-.51.521-.44.518-.435.518-1.022.097a2.315 2.315 0 00-1.246-.515c-.47-.05-.945.035-1.353.241a5.897 5.897 0 00-1.313.726c-.418.323-.669.163-.909-.067s-.337-.464-.556-.668c-.22-.203-.434-.384-.914-.084-.799.47-1.628.902-2.482 1.292-.261.128-.664.323-.879.274-.475-.115-.618-.407-.367-.849l.051.026c.107-.119.214-.238.035-.168.164-.296.092-.38 0-.442-.11.152-.206.312-.286.478-1.128.097-1.48.654-2.042.969-.945.535-.955.583-1.951.057a1.122 1.122 0 00-.643-.198c-.235 0-.462.07-.644.198a4.542 4.542 0 01-1.021-.487c-.817-.442-1.742-.588-2.4-.154a3.304 3.304 0 01-2.043.442 3.094 3.094 0 00-2.043.442c-.435.174-.927.21-1.389.102a12.645 12.645 0 01-2.283-.805c-.766-.354-.74-.398-2.129-.398-1.022 0-1.379-.522-1.839-.951a2.964 2.964 0 00-1.499-.797 3.28 3.28 0 00-1.754.111c-1.532.646-2.798.297-4.014-.283-.51-.239-.975-.562-1.532-.376-1.271.443-2.456-.102-3.677 0a2.475 2.475 0 01-.951-.045 2.268 2.268 0 01-.836-.397c-.204-.164-.756-.124-1.098-.239a2.487 2.487 0 01-.94-.487c-.097-.106.225-.358.281-.552.056-.195.102-.443-.036-.553a16.268 16.268 0 01-1.573-1.398c-.413-.544-1.807-.363-1.823-1.132 0-.053-.281-.164-.393-.146-1.45.22-2.002-.602-2.947-1-1.2-.509-2.221-.99-2.287-2.026 0-.177-.746-.3-1.022-.509-.276-.207-.449-.548-.745-.782-1.022-.783-2.043-1.54-3.064-2.318-.572-.443-.991-.757-1.854-.115-.603.442-1.389.11-1.875-.319-.485-.429-.954-.442-1.664-.03-.557.336-1.277.442-1.624 1.034-.266.443-.981.757-1.987.828a11.506 11.506 0 00-3.003.844c-.27.098-.357.443-.449.69-.149.564-.332 1.12-.546 1.668a1.772 1.772 0 01-.884.69.897.897 0 01-.704-.006.782.782 0 01-.276-.202.632.632 0 01-.143-.288c0-.159.046-.336 0-.49a.566.566 0 00-.169-.19.658.658 0 00-.245-.107.887.887 0 00-.309.047.803.803 0 00-.263.148 2.15 2.15 0 01-.859.834c-.371.203-.801.31-1.24.312-.536.04-1.409.521-1.404.805 0 .614-.511.773-1.144 1.017-.404.155-.863.442-.945.72-.306.992-1.849 1.443-2.344 2.345a.987.987 0 01-.342.236 1.149 1.149 0 01-.424.091c-1.44-.216-2.319.766-3.672.682-.797.973-3.095.557-3.728 1.663-.582 1.013-2.308 1.353-3.064 2.273-.403.478-2.523.558-3.263.16-.475-.257-.69.41-1.134 0-.659-.615-1.139.583-1.69.168-.68-.513-1.073-.106-1.67 0-.286.015-.558.11-.778.269a1.15 1.15 0 00-.443.615 1.63 1.63 0 01-.807.031c-.791-.716-2.191-.597-3.217-1-.449-.172-1.282.063-1.941.12a1.218 1.218 0 00-.416.05 1.11 1.11 0 00-.362.188.943.943 0 00-.25.293.83.83 0 00-.1.354 1.327 1.327 0 01-.575.779 1.706 1.706 0 01-1.024.264c-.837 0-.807.562-1.113.598-.74.088-.771.442-1.021.725-.102-.336-.215-.668-.302-1.004a2.048 2.048 0 00-.076-.478c-.036-.066-.266-.12-.409-.124a.901.901 0 00-.429.093c-.041 1.19-1.455 1.487-2.793 1.898a8.482 8.482 0 00-1.675.977c-.71.407-.945 1.266-2.4 1.018-.2-.036-.858.442-.848.65 0 .504-.409.575-.95.73a9.629 9.629 0 00-3.376 1.504c-.17.14-.373.249-.594.318a1.95 1.95 0 01-.693.084c-.331 0-.893.24-.949.443-.194.597-1.098.809-1.456 1.27-.357.46-.393.884-1.185 1.167-.388.146-.347.752-.556 1.137-.214.446-.484.87-.807 1.265a.752.752 0 01-.237.219.917.917 0 01-.669.093.842.842 0 01-.304-.144c-.404-.257-.465-.093-.511.163a1.422 1.422 0 01-.383.721c-.776.686-.904.673-1.65-.035a1.024 1.024 0 00-.312-.256 1.239 1.239 0 00-.832-.113c-.14.03-.272.085-.388.161-.96.5-1.853 1.062-2.875 1.495-.774.272-1.571.49-2.385.655-1.021-.757-1.568-.044-2.155.345-.51.318-.863.473-1.455.075a1.943 1.943 0 00-1.022.199c-1.281.677-2.441 1.469-3.804 2.061a12.05 12.05 0 01-2.911.602 8.56 8.56 0 01-1.782 0 11.39 11.39 0 00-3.065.155c-1.251.283-1.358.27-2.042-.354-.087-.071 0-.279-.056-.301-.511-.146-.991-.257-1.486-.38.212-.26.371-.548.469-.854 0-.155-.347-.42-.607-.469-.766-.137-1.691-.106-1.394-.907a3.631 3.631 0 00-.511 0c-.23.633-.827.978-1.798 1.16-.577.11-.771.848-1.578.574-.429-.146-.572-.61-.945-.885a2.137 2.137 0 00-1.021-.358c-.403-.022-.904.244-1.226.16-.434-.116-.709-.443-1.108-.664a3.33 3.33 0 00-1.225-.442c-.281 0-.562.358-.909.469-1.052.353-1.716 1.163-3.116 1.114-.066 0-.204.04-.204.062.036.765-1.348.765-1.711 1.327-.153.234-.51.407-.786.615-.47.39-.868.38-1.43.03-.975-.605-2.523-.83-2.88-1.848a.492.492 0 00-.157-.124.561.561 0 00-.201-.057c-1.649.088-2.344-.885-3.528-1.279-.843-.274-.925-.791-1.492-1.128-.567-.336-.597-.924-1.486-.274a1.069 1.069 0 01-.648-.066c-.48-.779-1.466-1.177-2.457-1.659-.613-.296-.904-.947-1.762-1.212-.669-.208-1.021-.65-1.634-.938-.613-.287-.648-.884-1.532-.194-.383.31-.985.212-1.532-.058-1.266-.623-2.941-.389-4.351-.765a2.104 2.104 0 00-1.144.155 1.616 1.616 0 01-1.757-.142.771.771 0 00-.183-.115 12.236 12.236 0 00-1.747-.442c-.756-.093-.465.482-.863.699-.853.473-.991.548-1.644-.049a13.7 13.7 0 01-1.272-1.468c-.511-.633-.659-.673-1.639-.292-1.195.442-2.344.938-2.702 1.942-.133.371-.756.68-1.215.982-.219.053-.453.03-.654-.062a.878.878 0 00-.286-.173.987.987 0 00-.684 0 .878.878 0 00-.286.173c-.791.563-1.804.836-2.824.76-.603-.03-.679.2-.669.505 0 .026-.225.08-.348.08-1.358 0-2.338.074-2.788.313a6.533 6.533 0 01-2.528.728 6.736 6.736 0 01-2.64-.312c-.511-.146-1.343-.3-1.348.478 0 .601-.746 1.008-1.532 1.08a2.568 2.568 0 00-1.461.525c-.756.58-1.532.443-2.63.363-2.043-.137-3.733-1.053-5.868-.885-.27.006-.537.06-.781.161-.245.1-.462.245-.638.423-.919.761-1.65 1.451-1.946 2.477-.317 1.11-1.603 2.053-3.064 2.787-.046 0-.378-.097-.388-.164a6.283 6.283 0 00-.036-.822c-.112-.35-.863-.518-1.532-.38-.832.167-1.45-.04-1.532-.558-.061-.442.036-.885-.031-1.327a1.943 1.943 0 00-.418-.708c-.062-.088-.23-.141-.353-.208-.076.089-.209.173-.219.266-.036.216 0 .442 0 .659-.082.442-.404.517-.986.225-.475-.243-.853-.774-1.45-.084-.21.244-.388.115-.736.036-1.425-.345-2.17-1.168-3.171-1.796-.552-.345-.756-.208-1.118.057a4.505 4.505 0 01-1.088.686c-.751.279-1.272.8-2.554.332-.878-.332-2.313-.053-3.498-.044-1.088.862-2.528.513-3.692.256a2.762 2.762 0 00-1.047-.099 2.67 2.67 0 00-.996.298 3.792 3.792 0 01-2.252.522c-1.566.025-3.113.31-4.555.84a4.135 4.135 0 01-1.19.133c-.587 0-1.17-.044-1.598.323a1.497 1.497 0 01-.649-.124c-.087-.035-.128-.252-.061-.292.658-.385.756-.99.439-1.327-.552-.588-1.481-1.026-2.257-1.526-.465.61-.904-.128-1.369 0-.465.128-.817.606-1.491.168-.077-.048-.664.288-1.052.38-.284.056-.58.047-.858-.026-1.277-.367-2.395-.318-3.314.442a1.65 1.65 0 01-.596.321 1.814 1.814 0 01-.696.069c-.654-.031-1.533-.11-1.936.115-.72.389-.863-.314-1.491-.173-.511.106-1.205-.159-1.803-.292-.597-.132-1.323-.327-1.976-.5-.143-.04-.332-.168-.404-.145-.551.203-1.108.623-1.619.601-.648-.026-1.133-.469-1.93 0-.444.274-1.098.354-1.21.885a1.937 1.937 0 01-1.098.128 1.534 1.534 0 01-.502-.28 1.312 1.312 0 01-.336-.428 5.13 5.13 0 01-.046-1.327c0-.088-.163-.168-.25-.252-.124.072-.244.15-.357.235-.143.12-.348.247-.389.384-.153.514-.561.443-1.021.204-1.124-.639-2.467-.923-3.804-.805-1.303.115-2.385-.34-3.621-.372a29.212 29.212 0 01-3.355-.323c-.577-.084-1.022-.345-.991-.809 0-.142-.22-.287-.337-.442-1.021.72-1.052-.067-1.42-.38-.587-.51-1.634-.341-2.39-.655a12.12 12.12 0 01-1.961-.84c-.153-.13-.47-.235-.511-.364-.204-1.539-2.298-1.167-3.636-1.41-1.159-.208-1.532-.155-2.19-.655-.659-.5-1.226-.885-2.35-.721a9.242 9.242 0 01-1.532 0c-.648 0-.699-.363-.403-.54.843-.495.189-.747-.281-1.044a1.635 1.635 0 00-.677-.287 1.76 1.76 0 00-.753.026c-1.874.257-3.733.553-5.617.84-.991.151-1.998.21-3.003.173-1.022-.035-1.895-.513-2.993-.517a1.92 1.92 0 01-1.088-.544 3.956 3.956 0 01-.97-1.217c-.255-.57-.47-.973-1.532-.54-.122.054-.608-.145-.786-.3a.72.72 0 00-.252-.176.813.813 0 00-.63 0 .701.701 0 00-.252.176 1.408 1.408 0 01-.623-.128c.077-.761-1.282-.518-1.67-1.018-.322-.416-1.072-.69-1.568-1.066a9.78 9.78 0 01-1.036-1.057c-.368-.376-.511-.836-1.533-.734a3.613 3.613 0 01-1.237-.18 3.28 3.28 0 01-1.061-.58c-.572-.381-1.118-.704-1.149-1.359-.03-.57-.612-1.141-1.021-1.676-.092-.115-.603-.084-.909-.137a28.411 28.411 0 01-1.134-.226c-.587-.133-.168-.885-1.256-.8-.424.03-.924-.372-1.389-.58a71.078 71.078 0 00-1.593-.694 6.816 6.816 0 01-1.211-.483 2.421 2.421 0 00-.919-.455 2.666 2.666 0 00-1.057-.053c-.878.128-1.573-.195-2.344-.336-.878.703-1.425.141-1.971-.235a2.173 2.173 0 00-.715-.355 2.37 2.37 0 00-.817-.087c-.807.035-1.635.11-2.37-.292-.179-.102-.74.097-1.134.146-.286.04-.709.146-.847.066-.511-.314-.899-.606-1.767-.27-.297.09-.615.114-.924.07a2.011 2.011 0 01-.848-.326c-1.604.76-2.13-.062-2.753-.77-.097-.115-.337-.177-.511-.26-.74.769-1.859-.333-2.752.251-.429.279-.874 0-.802-.442a.698.698 0 01.204-.442c.582-.5-.337-.407-.408-.35a.687.687 0 01-.255.176.778.778 0 01-.632-.022.657.657 0 01-.237-.194c-.276-.265-.511-.314-.934-.048-.113.07-.664-.15-1.022-.226-.766-.163.348-1.123-1.021-1.022-.95.071-1.154-.566-1.782-.8a3.903 3.903 0 00-.904-.181c-.511-.058-1.297.176-1.165-.505a3.059 3.059 0 00-.541.031c-.986.248-1.792.305-2.288-.508a.78.78 0 00-.277-.259.954.954 0 00-.788-.058.834.834 0 00-.324.215.685.685 0 01-.434.08c-1.45-.792-2.201 0-3.064.548-1.021.637-.93.575-1.997-.177-1.067-.752-1.884-1.53-2.129-2.552 0-.067-.593-.08-.904-.12l-.725-.632a1.014 1.014 0 00-.357-.248 1.153 1.153 0 00-.891 0 1.01 1.01 0 00-.356.248c-.48.371-1.057.708-1.266-.146a1.014 1.014 0 00-.486 0c-.27.124-.48.31-.735.442-.335.234-.748.37-1.178.39a2.28 2.28 0 01-1.217-.284c-.567-.354-1.175-.305-1.788-.442-2.247-.442-4.728-.053-6.868-.823-2.043.398-3.672-.411-5.449-.787a1.642 1.642 0 00-.95.062c-.48.385-1.088.243-1.644.248-1.068 0-2.125-.045-3.065.442a2.586 2.586 0 01-1.113.23c-1.374-.031-2.706-.053-3.575.827a.637.637 0 01-.388.168c-1.629-.093-2.829.66-4.295.885a6.803 6.803 0 01-1.373 0c-.22 0-.511-.226-.623-.186-.47.16-.909.553-1.328.535-.419-.017-.684-.623-1.41-.548-.868.093-1.782.376-2.553.27-.715-.093-1.251-.655-1.951-.92-1.292-.491-1.287-.443-2.41.393-.389.26-.841.437-1.323.518-.133 0-.582-.367-.674-.602-.158-.402-.511-.367-.904-.248-.393.12-.955.195-1.021.354-.414 1.208-2.217 1.057-3.396 1.464a15.51 15.51 0 01-3.851.774c-2.165.16-4.239.717-6.46.65-.986.69-1.323.116-1.767-.358-.444-.473-.592-.442-1.021.053-.302.359-.644.708-.945 1.066-.557.668-1.456.792-1.864.155-.511-.814-1.282-1.035-2.472-.933-1.021.088-.715-.226-.413-.548-.302-.098-.639-.315-.894-.28-.848.12-1.65.35-2.492.479-.153 0-.603-.235-.588-.332.246-1.225-1.588-.885-2.395-1.248a2.262 2.262 0 00-1.18-.078c-.394.08-.75.261-1.021.52a1.34 1.34 0 01-.357.23 6.363 6.363 0 01-.541.218c0-.19.04-.377.066-.562 0-.12.036-.235.056-.35-.168 0-.388-.053-.511 0a4.311 4.311 0 00-.735.443c-.669.442-1.312.884-2.308.256a2.012 2.012 0 00-.971-.048 2.824 2.824 0 01-1.052-.082 2.566 2.566 0 01-.914-.458c-.413-.305-.853-.787-1.578-.212a19.418 19.418 0 01-2.114-.885c-.465-.261-.725-.39-1.113 0-.153.144-.347.25-.562.31-.511.159-1.19-.098-1.175-.474a2.043 2.043 0 00-.51-1.526c-.225-.26-.204-.243-.603-.124-1.7.522-1.746.536-3.462 0a2.753 2.753 0 00-1.376-.184 2.604 2.604 0 00-1.265.503c-.413.296-.929.3-.975-.217-.112-1.19-1.981-1.22-2.916-1.862-.889.668-1.246-.035-1.772-.288-.929-.442-1.425-1.216-2.656-1.441-.148-.027-.25-.24-.316-.377-.378-.822-1.415-1.185-2.554-1.388-1.138-.204-1.818-.514-2.042-1.226-.118-.358-.307-.283-.588-.084-.377.261-.674.624-1.297.102a2.688 2.688 0 00-1.307-.3c-1.532-.067-2.865-.333-3.891-1.111-.266-.208-.659-.548-.915-.522-2.134.23-3.115-1.017-4.677-1.495-.644-.199-1.19-.77-1.91-.442-.552.26-1.323-.27-1.696.35-.23.384-.786.322-1.2 0a1.332 1.332 0 00-.357-.23c-.659-.253-.94-1.124-1.921-.735-.858.345-1.184-.332-1.986-.173-.684.133-.577.42-.863.61-.199.134-.378.62-.863.262-.649-.487-1.108-.566-1.532.088-.108.16-.409.412-.511.394-1.062-.2-1.256.703-2.14.672a.683.683 0 01-.388-.168c-.163-.15-.255-.336-.434-.478-.082-.066-1.287-.968-1.358-.977-.761-.102 1.021-.672-.337-.699-.782 0-.276-.522-.45-.779a.838.838 0 00-.511 0c-.975.478-1.925.983-2.9 1.46a.918.918 0 01-.465-.04c-.056 0-.082-.181-.031-.216.348-.248.751-.443 1.068-.713.316-.27 1.297-.442.51-1.03-1.021-.726-1.532-.854-2.451-.319-.633.359-1.021.443-1.66.05-.183-.111-.909.087-1.332.216-.488.161-.961.355-1.415.58-.485.22-.7.265-1.067-.178-.685-.818-1.757-.884-2.778-.31-.261.147-.465.328-.736.443-.167.035-.34.044-.51.027 0-.111-.046-.23 0-.328.045-.097.26-.146.342-.239.081-.093 0-.048-.577-.287-.802-.323-1.441-.588-2.477-.354-.302.066-.935-.544-1.466-.805a4.92 4.92 0 00-1.236-.442c-.761-.15-1.659-.443-2.308-.288-.649.155-.991.757-1.532 1.115a2.199 2.199 0 01-.817.053c-.174-.885-1.65-.442-2.227-.885-.878.491-2.017-.362-2.987.301a2.21 2.21 0 01-1.179.376 2.238 2.238 0 01-1.206-.305c-.598-.305-1.793.177-2.589-.34a3.965 3.965 0 00-1.165.441c-.939.523-.919.531-1.971.067a.951.951 0 00-.511-.097 2.51 2.51 0 01-1.149.247 2.486 2.486 0 01-1.133-.296 1.28 1.28 0 00-.833.088c-.756.54-1.113-.345-1.741-.172-.107-.239-.337-.482-.301-.712.148-.951-.649-.274-1.063-.283-.684 0-1.379.172-1.705-.553a1.828 1.828 0 00-.857-.675 2.163 2.163 0 00-1.15-.117c-.266.026-.572-.398-.935-.482-.265-.058-.684.208-.965.16-.363-.063-.894-.275-.935-.443-.194-.796-.597-.465-1.307-.274-.322.088-.756.623-1.302.194a1.277 1.277 0 01-.261-.442c-.058.15-.15.29-.27.411a2.285 2.285 0 01-1.075.265c-.38 0-.752-.092-1.075-.265a4.89 4.89 0 01-.557-.672c-.357-.363-1.129-.593-1.491-.363-1.067.668-2.508-.07-3.534.504-.077.04-.363-.048-.511-.11a4.434 4.434 0 00-1.021-.407 19.89 19.89 0 00-3.815-.221c-.587.057-.975.26-1.43-.106-.158-.124-.357-.23-.541-.35-.679-.442-1.318.681-1.89.067-.449-.487-1.128-.102-1.695-.337-.69-.287-1.41.372-1.476.637-.194.788-1.277.482-1.828.779a.861.861 0 01-.511 0c-1.246-.58-2.936-.8-3.707-1.77-.486-.597-1.241-.791-2.104-1.052a44.762 44.762 0 01-4.857-1.602c-.756-.327-1.833-.327-2.666-.601-.832-.274-1.532-.765-2.4-1.044-.393-.128-.996 0-1.313-.336a1.915 1.915 0 00-.951-.422 2.066 2.066 0 00-1.061.117c-.919.53-1.276.128-1.848-.19a1.453 1.453 0 00-.833-.111c-1.501 1.088-3.845 1.283-5.495 2.211-.995-.114-.669.629-1.23.792a2.408 2.408 0 01-.863.208c-1.119-.199-1.093-.208-1.456-.03-.705.349-1.45.946-1.976-.138a2.647 2.647 0 00-1.308 0c-.715.221-1.302.624-2.042.84-.353.107-.925 0-.296-.393.045-.031-.205-.354-.419-.442-.557-.217-.296.18-.45.27-.223.123-.477.2-.74.225-.363-.31-.848-.274-1.353-.314-.807-.058-1.67-.442-2.196.318-.526.761-1.716.115-2.487.54-.276.15-1.374-.102-1.829-.363a3.573 3.573 0 00-2.012-.5 1.795 1.795 0 01-.812-.296c-.449-.27-.827-.593-1.435-.12a1.053 1.053 0 01-.679.093c-1.021-.393-2.385.12-3.35-.504a2.144 2.144 0 00-.817-.04c-.194.93-1.65 1.195-2.303 1.84-.64.558-1.446.95-2.329 1.133-1.343.376-1.813.305-2.104-.58-.174-.53-.26-.672-1.067-.367-1.313.496-2.615-.062-3.575-.416a4.228 4.228 0 00-1.685-.389 4.262 4.262 0 00-1.706.31c-1.358.504-2.834.885-4.244 1.327a7.974 7.974 0 00-1.823.708 2.113 2.113 0 01-.886.325 2.233 2.233 0 01-.958-.082c-1.363-.624-2.333-.15-3.207.38-.546.337-.684.142-1.128-.035a22.892 22.892 0 00-2.972-.925c-.251-.061-.675.204-1.022.28-.603.14-1.215.249-1.833.326-.475.05-1.067.098-1.021-.442a.955.955 0 00-.557-.19 3.81 3.81 0 01-2.154.33c-.74-.1-1.42-.413-1.932-.887-.04-.036-.235 0-.347 0l-2.436.49c-.756-.773-1.414.284-2.17.067-.092-.027-.455.208-.552.363-.178.283-.275.362-.51.035a2.985 2.985 0 00-.511-.42c-.155.16-.326.308-.51.442a1.294 1.294 0 01-.563.221 27.6 27.6 0 01-2.492.164c-.898 0-1.797-.124-2.696-.15-.899-.027-1.874 0-2.809 0a1.982 1.982 0 01-.822-.292c-.444-.257-.817-.61-1.445-.146a1.296 1.296 0 01-.67-.248c-.163-.226-.101-.522-.25-.756-.321-.527-1.052-.61-1.73-.217a4.772 4.772 0 00-.716.469c-.296.256-.444.12-.74 0-1.139-.553-1.216-.584-2.247 0-.649.362-1.17.292-1.4-.098-.321-.54-.755-.703-1.613-.672-.43 0-.92-.327-1.308-.274a2.908 2.908 0 00-1.138.588c-.547.372-.868-.562-1.42-.08a1.64 1.64 0 01-.68.394 1.829 1.829 0 01-.816.049c-.582-.089-.884.212-1.313.345-.955.26-1.927.472-2.91.632-.072 0-.312-.128-.312-.199-.036-.73-.465-.34-.776-.11-.149.106-.118.318-.271.416-.797.504-1.313 1.127-2.712 1.282-1.501.168-2.85.987-4.484.27-.71.548-1.41-.15-2.134 0a6.236 6.236 0 01-1.762.217c-.587-.058-1.103-.47-1.685-.513-.715-.053-1.088-.102-1.022-.637a1.05 1.05 0 00-.306-.73.95.95 0 00-.325-.125 1.012 1.012 0 00-.354-.003 7.029 7.029 0 00-.92.566c-.684.402-.878.336-1.138-.34a2.422 2.422 0 00-.276-.394c-.046.16-.13.31-.245.442a1.21 1.21 0 01-.572.212c-.34.027-.682.027-1.022 0-.7-.03-.235 1.057-1.25.584-.369-.172-.394-.628-1.084-.663-.209 0-.393-.213-.607-.235-.312-.026-.674 0-.322.323.153.142.23.509.158.53a5.234 5.234 0 01-1.399.288 21.049 21.049 0 01-1.89-.106c-.377.819-1.02.819-1.945.31-.118-.067-.567.181-.848.163-.735-.04-1.23.885-2.124.217a1.465 1.465 0 00-.511.19c-.7.51-1.757.443-2.625.69-.725.2-1.644-.18-2.405.235-.638.345-1.716-.16-2.257.442-.24-.097-.572-.163-.69-.305-.117-.142 0-.34-.541-.221a8.202 8.202 0 01-3.064.252 3.557 3.557 0 00-1.748.24c-.543.225-1 .58-1.316 1.025a4.3 4.3 0 01-1.64 1.535c-.27.128-.781.323-.863.274a1.848 1.848 0 01-.566-.663c-.164-.266.321-.642-.414-.828-.736-.185-1.854-.623-2.257-.278-.28.245-.622.43-.998.541-.377.11-.779.143-1.173.096-.082 0-.148.274-.276.398-1.057 1.066-2.635 1.552-4.534 1.544-.915 0-1.635.088-2.212.57a.999.999 0 01-.658.07.532.532 0 01-.176-.182.453.453 0 01-.06-.233c-.03-.442 0-.885 0-1.327L0 0z" fill="#222121"/></svg>