<svg width="24" height="35" fill="none" xmlns="http://www.w3.org/2000/svg"><g clip-path="url(#clip0_237_1874)"><path d="M17.233 13.582l-.07.197-.069.03-.03.138-.078.03v.069l-.062.03v.069l-.07.03v.076h-.038l-.031.091-.07.038v.061l-.14.1v.075l-.139.092v.076l-.17.129v.06l-.24.199v.076l-.31.259v.068l-.418.365v.069l-.201.167-.418.426-.589.57c-.093.084-.201.153-.27.267a6.216 6.216 0 01-.45-.099h-.31v-.038h-.696c-.697 0-1.239.069-1.758.228h-.139v.038h-.1v.038h-.101v.031h-.109v.03h-.092v.038h-.07v.03h-.1v.031h-.078v.038h-.1v.03l-.202.07v.03h-.078v.038h-.062v.03H9.29v.03h-.062v.039h-.07v.03H9.09v.038h-.07l-.03.061-.14.038-.039.06h-.062l-.038.077h-.07l-.031.06h-.077c0 .024-.016.047-.031.07h-.07l-.062.098h-.077c0 .023-.016.046-.031.061H8.23l-.04.076h-.069l-.14.16H7.92l-.279.304-.31.259v.076a.911.911 0 00-.17.13v.06l-.14.1-.038.106c-.023 0-.046.015-.07.03v.069l-.07.03-.03.099h-.039v.069l-.062.03-.038.099h-.031l-.078.205-.062.03-.077.199h-.031v.068h-.031v.069h-.031l-.078.197h-.03v.1h-.031l-.04.129h-.03l-.039.205h-.03v.06h-.04l-.27 1.036-.04.532c-.092.343-.053 1.157.04 1.461v.228h.03v.175h.04v.16h.03v.137h.039v.13h.03v.106h.04v.13h.03l.031.197h.04v.069h.03l.039.197h.03v.069h.04v.099h.03l.078.198h.03v.068h.032v.069h.03v.068h.04v.061h.03v.069h.04v.068h.03v.06l.078.039a.37.37 0 00.03.13l.07.037v.061l.062.038v.069h.039l.03.099.078.03v.068l.1.069v.06l.14.1v.076l.17.13v.06l.31.266.279.305h.062l.14.167h.077l.1.13.101.03.03.076h.078l.031.06.101.031v.038h.077c0 .023.016.038.031.061h.062l.039.076.14.023.03.076h.078v.03h.062v.031h.07v.03h.061v.039h.07v.03h.07v.03h.07v.038l.2.069v.03h.109v.03l.14.039v.03l.2.03v.039h.109v.03h.1v.038h.101v.03l.248.031v.038h.132v.03h.178v.031h.17v.038h.21v.03h.27v.031h.588v.038h.24v-.038h.589v-.03l.658-.069.898-.228v-.038l.17-.03v-.031h.07v-.038h.1v-.03h.078v-.031h.1v-.038l.202-.069v-.03h.077v-.03l.202-.077.03-.06.21-.069v-.03l.108-.03.031-.077h.07v-.023l.1-.038.04-.068h.069l.07-.1h.061l.078-.098h.062l.108-.13h.07l.31-.334h.07v-.03l.1-.069v-.069l.31-.266v-.068l.139-.1v-.06l.07-.038v-.03l.07-.031v-.076c.022 0 .046-.015.069-.03v-.061l.07-.038v-.054l.061-.038v-.068l.078-.03v-.07l.062-.03.038-.137.07-.03v-.068h.031v-.061h.039v-.076h.03v-.061h.04v-.069h.03v-.06h.032l.077-.206h.039v-.099h.03v-.06h.04v-.1h.03v-.076h.039v-.091h.03v-.107h.04v-.099h.03v-.098h.032v-.13h.038v-.099h.031l.178-.936v-.395h.031c.055-.175 0-.51-.03-.632v-.403h-.04l-.03-.457h-.04v-.175h-.03v-.129h-.039v-.167c-.1-.297-.216-.624-.34-.898.131-.076.209-.198.31-.305l.588-.532v-.061l.518-.464.101-.137h.031v-.06l.31-.267v-.038l.077-.03v-.07l.271-.227v-.077l.24-.19v-.076h.039l.07-.091.1-.076v-.061l.17-.13v-.083l.14-.091v-.07l.1-.068v-.061l.109-.076v-.061l.1-.069c.078-.106.047-.182.21-.228l.03.099h.04v.068l.069.03.03.13.078.038v.069l.062.03.07.198.07.038v.06h.03v.077h.04v.06h.03v.07l.078.03.061.198h.04v.068h.03l.07.198h.03v.099h.04v.068h.03l.04.13h.03v.106h.039l.03.13h.04v.098h.03v.069h.04l.03.198h.031v.068h.039l.03.198h.04v.099h.03v.099h.04v.099h.03v.137c.31.837.488 1.871.488 2.99 0 .563.023 1.187-.108 1.628l-.031.472h-.04v.16h-.03v.167h-.039v.168h-.03v.137h-.04l-.03.296h-.031l-.04.229h-.03l-.039.235h-.03v.1h-.04v.098h-.03v.114h-.04l-.03.198h-.039v.069h-.03l-.032.197h-.038v.061h-.031v.107h-.04l-.03.13h-.039v.098h-.03l-.04.137h-.03v.06h-.04v.107h-.03l-.07.198h-.03v.069h-.04l-.07.198-.069.03v.069h-.03v.068h-.04v.06h-.03v.077l-.07.023-.07.205h-.03l-.04.1-.07.03-.03.137-.078.03v.068h-.03l-.032.1-.07.03v.068l-.069.03v.077l-.07.023-.03.106-.109.061v.076l-.1.06v.07l-.101.06v.076l-.14.092v.068l-.139.099-.03.099-.35.304v.061l-.17.137-.31.327H20.3l-.27.305h-.07l-.17.197h-.078l-.093.13h-.077l-.062.099h-.08l-.062.106-.108.03-.031.07h-.07l-.03.06h-.078l-.062.107h-.077c0 .022-.016.038-.031.06l-.101.039v.03h-.07l-.03.068-.14.03-.039.07-.131.03-.04.076-.138.023-.031.076h-.078v.03h-.062v.03h-.07v.031h-.07v.038h-.069l-.03.061-.14.038v.03l-.14.03v.039h-.1v.03h-.078v.038l-.2.061v.038h-.101v.03l-.14.031v.038h-.1v.03h-.078v.039h-.1v.03h-.07v.03l-.31.077v.023h-.07v.038h-.131v.03h-.109v.038h-.1v.03h-.109v.03l-.232.039v.03h-.147v.03h-.132v.039h-.139v.03l-.31.038v.03l-.387.031v.038h-.232v.03h-.248v.031l-.72.038c-.255.069-1.2.069-1.455 0h-.45V34.9h-.309v-.03h-.232v-.03h-.217c-.155-.054-.387-.084-.542-.138h-.147v-.03h-.17v-.038h-.14v-.03l-.24-.031v-.038h-.1v-.03h-.14v-.031l-.619-.167v-.038h-.077v-.03H8.19v-.031l-.17-.038v-.03h-.07v-.039h-.1v-.03l-.14-.03v-.039h-.108v-.03l-.202-.069v-.03h-.077v-.038h-.062v-.03h-.07v-.031h-.07v-.038h-.07v-.03h-.069v-.03h-.07v-.039h-.07v-.03h-.069l-.03-.069-.21-.068-.03-.061-.14-.038-.031-.061-.14-.038-.038-.069h-.07l-.03-.06h-.07v-.039l-.101-.03-.039-.069h-.07l-.03-.068h-.078l-.062-.099h-.07l-.07-.099h-.069l-.07-.099h-.062a26.641 26.641 0 00-.1-.129h-.07l-.1-.137h-.078l-.201-.228h-.07l-.48-.502-.449-.396v-.076c-.077-.046-.14-.107-.209-.16v-.068a40.345 40.345 0 00-.17-.13v-.068l-.14-.1v-.068l-.1-.068-.039-.099a4.52 4.52 0 00-.07-.03v-.069l-.07-.03v-.069l-.069-.03v-.069l-.1-.068v-.061l-.07-.038-.031-.1h-.039l-.031-.128a5.55 5.55 0 00-.077-.038.245.245 0 00-.031-.1h-.031l-.07-.197-.07-.038-.07-.198-.069-.03v-.069h-.031v-.069H2.09v-.068h-.03v-.076h-.047v-.06h-.031v-.07H1.95l-.077-.197h-.031v-.1h-.031v-.068h-.04v-.06h-.03v-.077h-.039v-.09h-.03l-.04-.138h-.03v-.099h-.04v-.099h-.03v-.068h-.031l-.039-.198h-.03v-.068h-.04l-.07-.328h-.03v-.106h-.039v-.099h-.03l-.04-.228H1.16v-.137h-.03v-.13h-.047v-.137h-.031v-.16h-.047v-.167h-.03l-.04-.365h-.03v-.236H.867v-.228H.852v-.335h-.04v-.472H.775v-1.095h.031v-.457h.039v-.342h.03v-.228h.04v-.229c.046-.16.085-.38.139-.532v-.175h.03l.07-.396h.031l.04-.228h.03v-.107h.039v-.099h.03v-.099h.04v-.136h.03v-.061h.04l.069-.305h.03l.032-.16h.039v-.076h.03v-.09h.04v-.077h.03v-.091h.039l.03-.137h.04v-.061h.03v-.099h.04l.069-.206h.03v-.06h.032v-.076h.039l.07-.19.069-.039v-.06h.03v-.077h.04v-.06h.03V18.2l.07-.03.031-.137.078-.03v-.07h.03v-.068h.032l.038-.099.07-.03.03-.13.07-.038V17.5l.101-.06v-.07l.078-.03v-.076l.1-.06v-.07l.07-.03v-.068l.132-.099v-.069l.108-.06v-.076c.054-.038.116-.077.17-.13v-.06l.24-.206v-.061l.349-.304.55-.563h.077l.162-.19h.078l.131-.168h.07l.1-.13h.078l.062-.106.108-.03.031-.069h.07l.031-.06h.078l.061-.107h.078l.03-.061.101-.038v-.03h.07l.031-.069.14-.03v-.039l.108-.03.03-.068h.07v-.03h.07l.031-.07h.078v-.03h.062v-.03h.077v-.038h.062l.03-.069h.078v-.03h.062v-.03h.078v-.039h.062v-.03h.07v-.03h.069v-.038h.07v-.031l.209-.068v-.03l.17-.039v-.03l.14-.03v-.039h.1v-.03h.07v-.038h.1v-.03H8.2v-.031l.201-.038v-.03h.07v-.031l.209-.038v-.03h.1v-.031h.101v-.038h.108v-.03l.233-.039v-.03l.286-.03v-.038l.58-.1c.171-.045.419-.083.59-.129h.278v-.038h.31v-.03h.448c.272-.076 1.108-.076 1.379 0l1.006.068 1.58.327v.038h.108v.031h.1v.038h.109v.03h.1v.03h.101v.039h.108v.03l.202.03v.039h.077v.03h.1v.03h.07v.039h.101v.03l.38.137v-.008z" fill="#fff"/><path d="M1.95 16.23l-.13-.366h-.04v-.068h-.03v-.1h-.047l-.03-.136h-.04v-.1h-.03v-.068h-.04l-.44-1.331-.04-.304h-.03v-.13h-.039v-.167h-.03v-.168h-.04v-.205H.93v-.198H.89v-.266H.852v-.304h-.04v-.434h-.03v-.365c0-.274-.031-.647.03-.868v-.433h.04v-.335h.03v-.229h.04v-.243h.03v-.167h.039v-.198h.03V8.91h.04v-.168h.03v-.129h.04v-.137h.03v-.13h.031V8.21h.039l.07-.335h.03v-.099h.04v-.099h.03v-.099h.039V7.48h.03v-.076h.04l.03-.198h.032v-.053h.038v-.106h.031v-.061h.039v-.1h.03l.04-.136h.03l.04-.167h.03l.07-.198h.03v-.076h.04V6.24h.03v-.068h.04V6.11h.03v-.076h.039v-.061h.031v-.069l.077-.03v-.069h.031v-.068H2.3v-.069h.031v-.06l.078-.038c0-.046.015-.084.03-.13h.032l.038-.114c.024 0 .047-.015.07-.03l.031-.13.07-.038V5.06h.03l.04-.1.069-.03v-.06l.1-.069v-.068c.024 0 .047-.016.078-.03V4.64l.062-.03.039-.099.1-.076v-.061l.14-.099v-.068l.14-.1v-.075l.231-.198v-.069l.527-.464.441-.472h.078l.17-.197h.07l.1-.137h.07l.1-.13h.078l.062-.106h.07l.07-.1h.069l.07-.098h.07l.03-.069h.07l.03-.06h.078c0-.023.016-.046.031-.076h.07l.03-.061h.078c0-.023.016-.046.031-.069l.132-.03.039-.069.139-.03.03-.076.21-.061.03-.069h.078V1.37h.062v-.038H7v-.039h.062v-.03h.07v-.046H7.2v-.03h.07v-.03h.07v-.039h.069v-.03l.201-.076V.989h.109V.951l.131-.03V.883h.109v-.03h.07V.821l.17-.038V.76h.1V.723h.078v-.03l.201-.031V.624h.1v-.03h.11v-.04h.1V.533h.108V.495h.132c1.486-.51 4.227-.685 5.868-.168h.17v.03h.14v.039l.24.03v.03h.108v.039h.132v.03h.108v.03h.1v.038h.102v.03h.108v.039l.209.03v.03h.07v.039l.2.03V.83h.078v.03h.1v.03l.133.038v.03h.108v.039h.07v.03l.131.03v.039h.078v.03h.062v.038h.077v.03h.062v.031h.07v.038h.07v.03h.069v.03h.07v.039h.07v.03H18v.038h.07l.03.061.21.076.03.061h.078v.03h.062l.03.077h.078l.031.06h.07l.031.07h.077c0 .022.016.045.031.068h.062l.039.06h.07v.039l.1.03.039.068h.07l.03.069.101.03.078.1h.062l.108.136h.062l.108.13h.07l.17.205.101.03.279.305h.07l.07.099.278.228v.076l.34.297v.068l.21.168v.06l.139.107v.06l.131.107v.061l.109.076.03.092.078.038v.06h.031l.031.107.07.03v.069l.1.069.04.129.069.038v.06l.07.039v.053l.07.038v.069h.03v.06l.07.039.07.197.07.038v.061h.03v.076h.039v.061h.03v.069h.04v.068l.07.03.03.168h.031v.068h.039v.061h.03v.076h.04l.07.198h.03l.039.168h.03v.06h.04v.1h.03v.076h.032v.09h.038v.077h.031l.039.198h.03v.099h.04v.068h.03l.109.434h.03v.13h.04V8.3h.03v.137h.032v.13h.038v.136h.031l.039.305h.03v.167h.04v.198h.03v.198h.04v.236h.03v.304h.039L24 11.375c0 .913-.1 1.857-.348 2.541v.137h-.031v.13h-.031l-.04.236h-.03v.098h-.039v.1h-.03l-.078.334h-.031v.076h-.031l-.039.19h-.03v.076h-.04v.092h-.03v.106h-.031l-.04.13h-.03v.099h-.039v.076h-.03v.06h-.04v.069h-.03v.099h-.04l-.069.198h-.03v.068h-.032v.069h-.038v.068h-.031v.061h-.04v.076h-.03v.061l-.078.03-.061.206-.07.03-.031.137-.078.03v.07h-.03v.068h-.031l-.04.099-.069.03-.03.137h-.04l-.03.099-.07.03v.076l-.1.061v.069l-.078.03v.069l-.062.03-.039.099-.1.076v.061l-.14.099v.068l-.17.13v.076l-.17.13v.068l-.21.167v.06l-.278.237v.068l-.34.305v.06l-.078.039-.132.167-.31.266c-.31.403-.712.715-1.068 1.065l-1.347 1.355h-.07l-.209.228-.48.441-.17.198h-.078l-.851.86c-.34.228-.58.533-.867.806-.387.35-.759.708-1.138 1.066l-.759.738c-.108.099-.186.258-.348.304-.109-.19-.326-.327-.48-.472l-.109-.137-.96-.897-.867-.868h-.07l-.34-.373-.759-.7-.968-.966c-.441-.312-.79-.73-1.169-1.103-.131-.122-.387-.267-.418-.472l.55-.966.077-.038v-.061l.062-.038v-.069l.109-.06v-.077l.131-.091v-.069l.178-.136v-.061l.31-.274.271-.297h.077l.132-.167h.07l.1-.137.109-.03.03-.07h.078c0-.022.016-.045.031-.068l.1-.03v-.03h.07l.031-.077h.078l.03-.06.14-.031.031-.068.14-.03c.154-.077.31-.214.518-.237.054.092.132.13.201.198l.52.502 1.277 1.27h.07l.069.1.41.365.14.167h.077c.093-.16.271-.235.41-.365l.72-.738h.078l.062-.099.278-.228.96-.974.109-.03.14-.168.34-.304v-.061l.24-.205.487-.503.24-.197v-.069l.349-.304v-.03l.062-.031v-.069l.279-.228v-.076l.209-.16v-.076c.054-.038.116-.076.17-.13v-.068l.14-.098v-.069l.1-.06v-.077l.108-.06v-.07l.07-.03.03-.099h.04v-.068l.062-.03.038-.137.07-.031v-.076h.03v-.06h.04v-.07h.03v-.06l.078-.038v-.069h.031v-.06h.031v-.107h.03v-.061h.04l.03-.137h.04v-.099h.03v-.068h.039v-.1h.031v-.068h.039l.131-.57a6.01 6.01 0 00-.062-3.5v-.137l-.487-1.104a2.79 2.79 0 00-.07-.038l-.07-.198-.07-.03-.03-.137-.07-.03V7.67H18l-.039-.092-.07-.038v-.06l-.1-.077v-.06l-.108-.07v-.068l-.17-.129V7l-.21-.152-.51-.533h-.078l-.1-.137h-.07l-.101-.13h-.07l-.07-.098h-.07l-.03-.076h-.07l-.038-.061-.101-.03v-.038l-.14-.03-.03-.07-.21-.068-.03-.068-.14-.03v-.031a18.135 18.135 0 00-.14-.038v-.03h-.1v-.054h-.077v-.03l-.132-.03v-.039h-.1v-.03h-.078v-.023l-.201-.038v-.03h-.1v-.039h-.11v-.03h-.1v-.03h-.14v-.039h-.1v-.022h-.14v-.038h-.177V4.87h-.17v-.03h-.24a5.087 5.087 0 00-1.897 0h-.24l-1.138.303v.03c-.062 0-.117.016-.179.031v.03h-.07v.039h-.1v.03l-.209.069v.03h-.07v.038h-.062v.03H9.29v.031h-.062v.038h-.077v.03h-.062v.039h-.07l-.03.06-.14.039-.039.068h-.07l-.03.06h-.07l-.031.077h-.077l-.031.06h-.07l-.07.1h-.07l-.07.099H8.16l-.14.167h-.077l-.31.335-.31.266v.076l-.2.16v.068l-.101.069-.039.099-.07.03v.069l-.07.03-.03.107h-.039v.06l-.07.039-.03.099h-.031l-.04.129-.069.038v.068h-.03v.061h-.04v.076h-.03v.061h-.04v.069h-.03v.068h-.039v.061h-.03l-.07.206h-.031v.098h-.04v.069h-.03v.099h-.039v.068h-.03v.1h-.04v.098h-.03v.099h-.04v.099h-.03l-.039.266c-.155.457-.201.99-.201 1.606v.639h.03v.266h.04v.228c.046.16.1.373.131.533-1.084.57-2.02 1.293-2.864 2.108-.186.19-.349.388-.511.608l-.178.13v.068l-.101.069v.06l-.1.077c-.078.076-.024.121-.179.16h.008z" fill="#37C134"/></g><defs><clipPath id="clip0_237_1874"><path fill="#fff" d="M0 0h24v35H0z"/></clipPath></defs></svg>