<svg width="30" height="44" fill="none" xmlns="http://www.w3.org/2000/svg"><g clip-path="url(#clip0_233_1196)" fill="#fff"><path d="M21.092 17.185l-.085.244-.086.037-.038.168-.094.038v.084l-.076.037v.084l-.085.038v.093h-.048l-.038.112-.085.047v.075l-.17.121v.094l-.171.112v.093l-.209.16v.074l-.293.243v.094l-.38.317v.085l-.51.448v.084l-.247.206-.512.523-.72.702c-.114.102-.246.187-.332.327a8.05 8.05 0 01-.55-.122h-.378v-.047h-.853c-.853 0-1.516.085-2.15.281h-.171v.047h-.124v.046h-.123v.038h-.133v.037h-.113v.047h-.085v.037h-.124v.038h-.094v.046h-.124v.038l-.246.084v.037h-.095v.047h-.075v.037h-.105v.038h-.075v.047h-.086v.037h-.085v.047h-.085L11 22.86l-.17.046-.048.075h-.076l-.047.094h-.086l-.038.074h-.094c0 .028-.02.056-.038.084h-.085l-.076.122h-.095c0 .028-.019.056-.038.075h-.038l-.047.093H9.94l-.171.197h-.076l-.34.373-.38.318v.094a1.114 1.114 0 00-.208.159v.074l-.171.122-.047.13c-.029 0-.057.02-.086.038v.084l-.085.038-.038.121h-.047v.084l-.076.038-.047.121H8.13l-.095.253-.076.037-.095.243h-.037v.084h-.038v.084H7.75l-.095.244h-.038v.121H7.58l-.047.159h-.038l-.047.252H7.41v.075h-.048l-.331 1.271-.048.655c-.113.42-.066 1.42.048 1.794v.281h.038v.215h.047v.196h.038v.168H7.2v.16h.038v.13h.047v.16h.038l.038.242h.048v.084h.038l.047.243h.038v.085h.047v.121h.038l.095.243h.038v.084h.038v.084h.038v.085h.047v.074h.038v.084h.047v.085h.038v.074l.095.047c0 .056.019.112.038.159l.085.047v.075l.076.046v.084h.047l.038.122.095.037v.084l.123.085v.074l.17.122v.093l.209.16v.074l.379.327.341.374h.076l.17.206h.095l.123.159.124.037.037.094h.095l.038.074.123.038v.047h.095c0 .028.02.046.038.074h.076l.047.094.17.028.039.093h.094v.038h.076v.037h.085v.037h.076v.047h.086v.038h.085v.037h.085v.047l.247.084v.037h.132v.038l.17.046v.038l.247.037v.047h.133v.037h.123v.047h.123v.037l.303.038v.047h.161v.037h.218v.037h.209v.047h.255v.037h.332v.038H15v.047h.294v-.047h.72v-.038l.805-.084 1.1-.28v-.047l.208-.037v-.038h.085v-.046h.124v-.038h.094v-.037h.123v-.047l.247-.084v-.037h.095v-.038l.246-.093.038-.075.256-.084v-.038l.132-.037.038-.093h.085v-.029l.124-.046.047-.084h.085l.086-.122h.075l.095-.121h.076l.133-.16h.085l.379-.41h.085v-.038l.123-.084v-.084l.38-.328v-.084l.17-.121v-.075l.085-.047v-.037l.085-.037v-.094c.029 0 .057-.019.086-.037v-.075l.085-.047v-.065l.076-.047v-.084l.095-.038V33.9l.075-.037.048-.168.085-.038v-.084h.038v-.075h.047v-.093h.038v-.075h.048v-.084h.038v-.075h.037l.095-.252h.048v-.122h.038v-.075h.047V32.6h.038v-.093h.047v-.113h.038v-.13h.047v-.122h.038v-.122h.038v-.159h.048v-.121h.037l.218-1.15v-.486h.038c.067-.215 0-.626-.038-.776v-.495h-.047l-.038-.561h-.047v-.215h-.038v-.159h-.047v-.206a12.718 12.718 0 00-.417-1.103c.16-.093.255-.243.379-.374l.72-.654v-.075l.634-.57.124-.168h.038v-.075l.379-.327v-.047l.094-.037v-.084l.332-.28v-.094l.294-.234v-.093h.047l.085-.113.124-.093v-.075l.208-.159v-.103l.17-.112v-.084l.124-.084v-.075l.132-.093v-.075l.124-.084c.094-.131.056-.225.255-.28l.038.12h.048v.085l.085.037.038.16.095.046v.084l.075.037.086.244.085.046v.075h.038v.094h.047v.074h.038v.084l.095.038.076.243h.047v.084h.038l.085.243h.038v.122h.047v.084h.038l.048.159h.038v.13h.047l.038.16h.047v.121h.038v.084h.048l.038.243h.037v.084h.048l.038.243h.047v.122h.038v.121h.047v.122h.038v.168c.38 1.028.597 2.3.597 3.674 0 .692.029 1.458-.132 2l-.038.58h-.048v.196h-.038v.206h-.047v.205h-.038v.169h-.047l-.038.364h-.038l-.047.28h-.038l-.048.29h-.038v.122h-.047v.121h-.038v.14h-.047l-.038.244h-.048v.084h-.037l-.038.243h-.048v.075h-.038v.13h-.047l-.038.16h-.047v.121h-.038l-.048.168h-.037v.075h-.048v.131h-.038l-.085.243h-.038v.084h-.047l-.086.243-.085.038v.084h-.038v.084h-.047v.075h-.038v.093l-.085.028-.086.252h-.037l-.048.122-.085.037-.038.169-.095.037v.084h-.038l-.038.122-.085.037v.084l-.085.038v.093l-.085.028-.038.131-.133.075v.093l-.123.075v.084l-.123.075v.093l-.17.113v.084l-.171.121-.038.122-.427.374v.075l-.208.168-.38.402h-.094l-.332.374h-.085l-.208.243h-.095l-.114.159h-.095l-.075.121h-.095l-.076.131-.133.037-.037.084h-.086l-.038.075h-.094l-.076.131h-.095c0 .028-.019.047-.038.075l-.123.047v.037h-.085l-.038.084-.17.038-.048.084-.161.037-.048.094-.17.028-.038.093h-.095v.038h-.076v.037h-.085v.037h-.085v.047h-.085l-.038.075-.17.047v.037l-.171.037v.047h-.124v.038h-.094v.046l-.247.075v.047h-.123v.037l-.17.038v.046h-.124v.038h-.094v.046h-.123v.038H20.2v.037l-.379.094v.028h-.085v.046h-.161v.038h-.133v.047h-.123v.037h-.133v.037l-.284.047v.038h-.18v.037h-.161v.047h-.17v.037l-.38.047v.037l-.473.038v.046h-.285v.038h-.303v.037l-.881.047c-.313.084-1.469.084-1.781 0h-.55v-.047h-.379v-.037h-.284v-.038h-.266c-.189-.065-.473-.103-.663-.168h-.18v-.037h-.208v-.047h-.17v-.038l-.295-.037v-.047h-.123v-.037H11v-.037l-.758-.206v-.047h-.095v-.037h-.123v-.038l-.209-.046v-.038H9.73v-.046h-.123v-.038l-.17-.037v-.047h-.133v-.037l-.247-.084v-.038h-.094v-.047h-.076v-.037h-.086v-.037h-.085v-.047h-.085v-.038h-.085v-.037H8.46v-.047h-.085v-.037H8.29l-.038-.084-.256-.084-.038-.075-.17-.047-.038-.075-.17-.046-.048-.084h-.085l-.038-.075h-.086v-.047l-.123-.037-.047-.085h-.085l-.038-.084h-.095l-.076-.121h-.085l-.086-.122h-.085l-.085-.121h-.076l-.123-.16h-.085l-.123-.167h-.095l-.247-.28h-.085l-.587-.618-.55-.486v-.093c-.095-.056-.17-.131-.256-.197v-.084l-.208-.159v-.084l-.17-.121v-.084l-.124-.085-.047-.121a8.232 8.232 0 00-.086-.038v-.084l-.085-.037v-.084l-.085-.038v-.084l-.123-.084v-.075l-.086-.046-.037-.122h-.048l-.038-.159a8.007 8.007 0 00-.095-.047.302.302 0 00-.037-.121h-.038l-.086-.243-.085-.047-.085-.243-.085-.037v-.084h-.038v-.085h-.048v-.084H2.52v-.093h-.056v-.075h-.038v-.084h-.038l-.095-.243h-.038v-.122h-.038v-.084H2.17v-.075h-.038v-.093h-.047v-.112h-.038l-.048-.169h-.038v-.121h-.047v-.121h-.038v-.085h-.038l-.047-.243h-.038v-.084h-.047l-.086-.402h-.038v-.13h-.047v-.122h-.038l-.047-.28h-.03v-.169h-.038v-.159h-.056v-.168h-.038v-.196h-.057v-.206h-.038l-.048-.449H1.11v-.29h-.05v-.28h-.019v-.411H.995v-.58H.948V29.03h.037v-.56h.048v-.421h.038v-.28h.047v-.281c.057-.197.104-.468.17-.655v-.215h.039l.085-.486h.038l.047-.28h.038v-.131h.047V25.6h.038v-.122h.048v-.168h.038v-.075h.047l.085-.374h.038l.038-.196h.047v-.094H2v-.112h.048v-.093h.038v-.113h.047l.038-.168h.047v-.075h.038v-.121h.047l.086-.253h.038v-.074h.038v-.094h.047l.085-.233.085-.047v-.075h.038v-.093h.048v-.075h.038v-.084l.085-.038.038-.168.095-.038v-.084h.037v-.084h.038l.048-.121.085-.038.038-.159.085-.046V22l.123-.075v-.084l.095-.038v-.093l.123-.075v-.084l.086-.037v-.085l.16-.121v-.084l.133-.075v-.094c.067-.046.142-.093.209-.159v-.074l.294-.253v-.074l.426-.374.673-.692h.094l.2-.234h.094l.161-.205h.085l.124-.16h.094l.076-.13.133-.038.038-.084h.085l.038-.075h.095l.076-.13h.094l.038-.075.123-.047v-.037h.086l.038-.084.17-.038v-.047l.133-.037.038-.084h.085v-.037h.085l.038-.085h.095v-.037h.076v-.037h.094v-.047h.076l.038-.084h.095v-.038h.076v-.037h.094v-.047h.076v-.037h.085V17.4h.086v-.046h.085v-.038l.256-.084v-.037l.208-.047v-.037l.17-.038v-.047h.124v-.037h.085v-.047h.124v-.037h.094v-.037l.247-.047v-.038h.085v-.037l.256-.047v-.037h.123v-.037h.123v-.047h.133v-.038l.284-.046v-.038l.35-.037v-.047l.711-.121c.209-.056.512-.103.72-.16h.341v-.046h.38v-.037h.549c.332-.094 1.355-.094 1.687 0l1.231.084 1.933.402v.046h.133v.038h.123v.047h.133v.037h.123v.037h.123v.047h.133v.038l.246.037v.047h.095v.037h.123v.037h.085v.047h.124v.037l.464.169v-.01z"/><path d="M2.388 20.438l-.161-.448h-.048v-.084h-.038v-.122h-.056l-.038-.168h-.048v-.122h-.038v-.084h-.047l-.54-1.636-.047-.374h-.038v-.159H1.24v-.205h-.038v-.206h-.047v-.252h-.019v-.243H1.09v-.328h-.048v-.373H.995V15.1H.957v-.449c0-.336-.038-.794.038-1.066v-.532h.047v-.412h.038v-.28h.048v-.3h.037v-.205h.048v-.243h.038v-.168h.047v-.206h.038v-.159h.047v-.168h.038v-.159h.038v-.168h.048l.085-.412h.038v-.121h.047V9.93h.038v-.12h.047v-.122H1.8v-.093h.048l.038-.243h.037v-.066h.048v-.13h.038V9.08h.047v-.122h.038l.047-.168h.038l.048-.206h.038l.085-.243h.038V8.25h.047v-.084h.038V8.08h.047v-.075h.038v-.094h.048v-.075h.038v-.084l.094-.037v-.084h.038v-.084h.038v-.084h.038v-.075l.095-.047c0-.056.019-.103.038-.159h.038l.047-.14c.028 0 .057-.019.085-.037l.038-.16.085-.046v-.084h.038l.048-.122.085-.037v-.075l.123-.084v-.084c.029 0 .057-.019.095-.038v-.074l.076-.038.047-.121.123-.094v-.075l.17-.121v-.084l.171-.122v-.093l.285-.243v-.084l.644-.57.54-.58h.095l.208-.243h.086l.123-.168h.085l.123-.16h.095l.076-.13h.085l.085-.122h.086l.085-.121h.085l.038-.084h.085l.038-.075h.095c0-.028.019-.056.038-.094h.085l.038-.074h.095c0-.029.019-.057.038-.085l.16-.037.048-.084.17-.038.039-.093.255-.075.038-.084h.095v-.028h.076v-.047h.095V2.09h.075v-.04h.086v-.056h.085v-.037h.085V1.92h.086v-.046h.085v-.038l.246-.093v-.028h.133v-.047l.16-.037v-.047h.134v-.038h.085V1.51l.208-.047v-.028h.123v-.047h.095V1.35l.246-.037v-.047h.124v-.037h.132v-.047h.124v-.028h.132v-.047h.161c1.82-.626 5.174-.841 7.183-.206h.208V.94h.17v.047l.294.037v.037h.133v.047h.161v.037h.133v.038h.123v.047h.123v.037h.133v.047l.255.037v.037h.086v.047l.246.038v.046h.095v.038h.123v.037l.161.047v.037h.133v.047h.085v.037l.161.038v.047h.095v.037h.076v.047h.094v.037h.076v.037h.085v.047h.086v.038h.085v.037h.085v.047h.086v.037h.085v.047h.085l.038.075.256.093.038.075h.095v.037h.075l.038.094h.095l.038.075h.085l.038.084h.095c0 .028.019.056.038.084h.076l.047.075h.085v.046l.123.038.048.084h.085l.038.084.123.037.095.122h.076l.132.168h.076l.133.159h.085l.209.252.123.038.34.374h.086l.085.121.341.28v.094l.417.365v.084l.256.206v.074l.17.131v.075l.162.13v.076l.133.093.037.112.095.047v.075h.038l.038.13.085.038v.084l.123.084.048.16.085.046v.075l.085.046v.066l.086.047v.084h.038v.075l.085.046.085.243.085.047v.075h.038v.093h.048v.075h.037v.084h.048v.084l.085.038.038.205h.038v.085h.047v.074h.038v.094h.048l.085.243h.038l.047.206h.038v.074h.047v.122h.038v.093h.038v.112h.048v.094h.038l.047.243h.038v.122h.047v.084h.038l.133.533h.038v.158h.047v.122h.038v.168h.038v.16h.047v.167h.038l.047.374h.038v.206h.048v.243h.038v.243h.047v.29h.038v.374h.047l.038 1.551c0 1.122-.123 2.281-.426 3.123v.168h-.038v.159h-.038l-.047.29h-.038v.121h-.048v.122h-.037l-.095.41h-.038v.094h-.038l-.047.234h-.038v.094h-.048v.112h-.038v.13h-.038l-.047.16h-.038v.121h-.047v.093h-.038v.075h-.047v.084h-.038v.122h-.048l-.085.243h-.038v.084h-.038v.084h-.047v.084h-.038v.075h-.047v.094h-.038v.074l-.095.038-.076.252-.085.038-.038.168-.095.037v.084h-.038v.084h-.038l-.047.122-.085.037-.038.169h-.048l-.038.121-.085.038v.093l-.123.075v.084l-.095.037v.084l-.076.038-.047.121-.123.094v.075l-.17.121v.084l-.21.16v.093l-.207.159v.084l-.256.205v.075l-.341.29v.084l-.417.374v.075l-.095.047-.161.205-.38.327c-.378.496-.87.88-1.307 1.31l-1.649 1.663h-.085l-.256.28-.587.543-.209.243h-.094L18.95 30.29c-.417.28-.711.654-1.062.99-.473.43-.928.87-1.393 1.31l-.928.906c-.133.122-.228.318-.427.374-.132-.233-.398-.402-.587-.58l-.133-.168-1.175-1.103-1.06-1.065H12.1l-.417-.458-.929-.86-1.184-1.188c-.54-.383-.966-.897-1.43-1.355-.162-.15-.475-.327-.512-.58l.672-1.187.095-.047v-.074l.076-.047v-.084L8.604 25v-.093l.16-.113v-.084l.219-.168v-.075l.379-.336.331-.365h.095l.161-.205h.085l.123-.169.133-.037.038-.084h.095c0-.028.019-.056.038-.084l.123-.038v-.037h.085l.038-.094h.095l.038-.074.17-.038.038-.084.17-.037c.19-.094.38-.262.636-.29.066.112.16.159.246.243l.635.617 1.563 1.56h.085l.086.123.502.448.17.206h.095c.114-.197.332-.29.502-.449l.882-.907h.094l.076-.121.341-.28 1.175-1.197.133-.037.17-.206.417-.374v-.075l.294-.252.597-.617.294-.243v-.084l.426-.374v-.038l.076-.037v-.084l.341-.28v-.094l.256-.196v-.094c.066-.047.142-.093.208-.159v-.084l.17-.121v-.085l.124-.074v-.094l.133-.075v-.084l.085-.037.038-.122h.047v-.084l.076-.037.047-.168.086-.038v-.093h.037v-.075h.048v-.084h.038v-.075l.095-.047v-.084h.037v-.075h.038v-.13h.038v-.075h.048l.038-.169h.047v-.121h.038v-.084h.047v-.122h.038v-.084h.047l.162-.701a7.41 7.41 0 00-.076-4.3v-.168l-.597-1.356a3.69 3.69 0 00-.085-.046l-.086-.243-.085-.038-.038-.168-.085-.038v-.093h-.038l-.047-.112-.086-.047v-.075l-.123-.093V9.52l-.133-.084v-.084l-.208-.16V9.1l-.256-.187-.625-.654h-.095l-.123-.168h-.085l-.124-.16h-.085l-.085-.12h-.085l-.038-.094h-.086L19.7 7.64l-.123-.037v-.047l-.17-.037-.039-.084-.256-.085-.037-.084-.17-.037v-.038a23.137 23.137 0 00-.171-.046v-.038h-.124v-.065h-.094v-.037l-.162-.038V6.92h-.123v-.037h-.094v-.028l-.247-.047v-.037h-.123v-.047h-.133v-.037h-.123V6.65h-.17v-.046h-.123v-.028h-.171v-.047h-.218v-.047h-.208v-.037h-.294a6.203 6.203 0 00-2.322 0h-.293l-1.393.374v.037c-.076 0-.142.019-.218.037v.038h-.085v.046h-.124v.038l-.255.084v.037h-.086v.047h-.075v.038h-.105v.037h-.075v.047H11.2v.037h-.076v.047h-.085L11 7.464l-.17.046-.048.084h-.085l-.038.075h-.086l-.037.094h-.095l-.038.074h-.085l-.086.122h-.085l-.085.122h-.076l-.17.205h-.095l-.38.411-.378.328v.093l-.247.196V9.4l-.123.084-.047.121-.086.038v.084l-.085.037-.038.131H8.29v.075l-.085.046-.038.122H8.13l-.048.159-.085.047v.084H7.96v.075h-.047v.093h-.038v.075h-.047v.084H7.79v.084h-.05v.075h-.038l-.085.252H7.58v.122h-.047v.084h-.038v.121h-.047v.085H7.41v.121h-.048v.122h-.038v.121h-.047v.122h-.038l-.047.327c-.19.56-.247 1.215-.247 1.972v.786h.038v.327h.048v.28c.056.196.123.458.16.654C5.866 17.11 4.72 18 3.687 19a6.925 6.925 0 00-.626.748l-.217.159v.084l-.124.084v.075l-.123.093c-.095.093-.028.15-.218.196h.01z"/></g><defs><clipPath id="clip0_233_1196"><path fill="#fff" transform="translate(0 .5)" d="M0 0h29.373v43H0z"/></clipPath></defs></svg>