<svg width="116" height="83" fill="none" xmlns="http://www.w3.org/2000/svg"><g clip-path="url(#clip0_209_239)"><path d="M79.474 23.13v-1.393h-3.803v-3.98c0-1.592-1.4-3.184-3.002-3.184h-3.302v23.58c0 2.786 1.1 4.18 3.402 4.478 2.402.199 4.603.199 6.605 0v-4.577h-1.901c-1.201 0-1.802-.597-1.802-1.592V26.313h.7c1.802 0 3.103-1.393 3.103-3.183zm23.417-1.294h-3.203c-2.101 0-3.002.995-3.002 3.084v9.552c0 2.786-1.4 4.08-4.203 4.08-2.802 0-4.203-1.394-4.203-4.08V21.836h-6.304v11.442c0 4.179 1.1 6.865 3.302 8.258 2.202 1.393 4.503 2.09 7.105 2.09 2.702 0 5.204-.597 7.305-1.89 2.202-1.294 3.303-4.18 3.303-8.458V21.836h-.1zM115.9 23.13v-1.393h-3.803v-3.98c0-1.592-1.401-3.184-3.002-3.184h-3.302v23.58c0 2.786 1.101 4.18 3.402 4.478 2.402.199 4.603.199 6.605 0v-4.577h-1.901c-1.201 0-1.802-.597-1.802-1.592V26.313h.701c1.701 0 3.102-1.393 3.102-3.183zM72.269 61.336c-.3 0-.6.1-.6.398l-2.302 6.268h1.5l.401-1.393h2.602l.4 1.393h1.401l-2.301-6.666h-1.101zm.3 1.393l.9 2.786h-1.8l.9-2.786zm5.004 1.99c0 1.99 1.2 3.383 3.102 3.383 1 0 1.4-.299 1.901-.896l.1.298c0 .299.3.498.7.498h.301V64.42h-2.702v.398c0 .398.3.697.7.697h.801c-.1.796-.7 1.393-1.601 1.393-1.2-.1-1.801-.896-1.801-2.289 0-1.492.6-2.189 1.801-2.189.6 0 1.1.299 1.401.796.2.2.4.299.6.299h.801c0-.796-.3-1.294-.8-1.791-.601-.398-1.201-.597-2.002-.597-2.102 0-3.302 1.592-3.302 3.582zm8.606 3.283h4.803v-1.194H87.48v-1.691h1.901c.5 0 .7-.2.7-.697v-.497H87.48V62.53h3.502v-1.194H86.88c-.5 0-.7.298-.7.696v5.97zm7.405-5.87v5.97h1.301v-4.577l2.702 4.577h1.4v-6.667h-1.3v4.478l-2.702-4.577h-.7c-.4 0-.7.398-.7.796zm14.01 3.582h-1.301c-.1.696-.6 1.194-1.501 1.194-1.201 0-1.801-.896-1.801-2.19 0-1.293.6-2.188 1.801-2.188.6 0 1.101.199 1.301.696.1.299.3.398.6.398h.801c-.1-.696-.3-1.293-.801-1.691-.5-.398-1.2-.597-2.001-.597-2.102 0-3.202 1.293-3.202 3.482 0 2.09 1 3.383 3.102 3.383 1.801-.1 2.902-.995 3.002-2.487zm6.204 2.288v-2.487l2.202-4.18h-1.101c-.3 0-.5.1-.6.399l-1.101 2.487-1.401-2.885h-1.701l2.402 4.179v2.487h1.3zm-38.527-19.6c1.501 0 2.402.696 2.402 2.089v7.064h3.502v-7.064c0-1.393.8-2.09 2.302-2.09 1.5 0 2.402.697 2.402 2.09v5.472c0 1.094.6 1.691 1.7 1.691h1.802v-6.666c0-3.88-1.901-5.572-5.804-5.572-1.801 0-3.102.399-4.103 1.095-1-.796-2.302-1.194-4.103-1.194-3.903 0-5.904 1.691-5.904 5.572v6.666h3.502v-7.064c0-1.393.801-2.09 2.302-2.09zm27.319 5.173h-2.501c-.5 0-.8.2-1.101.498-.6.597-1.2.995-2.202.995-1 0-2.501-.299-2.702-2.289h8.707c.3-5.273-2.402-7.263-6.005-7.263-3.602 0-6.204 1.691-6.204 6.268s2.802 6.268 6.104 6.268c3.403-.099 5.204-1.591 5.904-4.477zm-5.904-5.373c1.101 0 2.302.398 2.502 2.09h-5.104c.3-1.692 1.501-2.09 2.602-2.09zm19.014 5.373h-2.502c-.5 0-.801.2-1.101.498-.6.597-1.201.995-2.201.995-1.001 0-2.502-.299-2.702-2.289h8.706c.3-5.273-2.402-7.263-6.004-7.263-3.603 0-6.205 1.691-6.205 6.268s2.802 6.268 6.105 6.268c3.402-.099 5.203-1.591 5.904-4.477zm-5.904-5.373c1.1 0 2.301.398 2.501 2.09h-5.103c.3-1.692 1.501-2.09 2.602-2.09z" fill="#fff"/></g><g clip-path="url(#clip1_209_239)"><path d="M40.601 32.12l-.164.468-.164.072-.073.324-.182.072v.162l-.146.071v.162l-.164.072v.18h-.092l-.073.216-.164.09v.144l-.328.234v.18l-.328.216v.18l-.402.306v.144l-.565.468v.18l-.73.611v.162l-.985.864v.162l-.474.396-.985 1.008-1.386 1.35c-.219.197-.474.36-.638.629a15.501 15.501 0 01-1.058-.234h-.73v-.09h-1.64c-1.642 0-2.919.162-4.14.54h-.33v.09h-.236v.09h-.237v.072h-.256v.072h-.218v.09h-.165v.072h-.237v.072h-.182v.09h-.237v.072l-.474.162v.072h-.183v.09h-.146v.072h-.2v.072h-.146v.09h-.165v.072h-.164v.09h-.164l-.073.143-.328.09-.091.144h-.146l-.091.18h-.165l-.073.144H20.1c0 .054-.037.108-.073.162h-.164l-.146.234h-.182c0 .054-.037.108-.073.144h-.073l-.091.18h-.165l-.328.378h-.146l-.656.72-.73.611v.18a2.12 2.12 0 00-.401.306v.144l-.329.234-.09.252c-.056 0-.11.036-.165.072v.162l-.164.072-.073.234h-.091v.162l-.146.072-.091.234h-.073l-.183.486-.146.072-.182.468h-.073v.161h-.073v.162h-.073l-.182.468h-.073v.234h-.073l-.091.306h-.073l-.092.486h-.073v.144h-.09l-.64 2.447-.09 1.26c-.22.81-.128 2.735.09 3.455v.54h.074v.413h.09v.378h.074v.324h.091v.306h.073v.252h.091v.306h.073l.073.468h.091v.162h.073l.091.468h.074v.161h.09v.234h.074l.182.468h.073v.162h.073v.162h.073v.162h.091v.144h.073v.162h.091v.162h.073v.144l.183.09c0 .108.036.216.073.306l.164.09v.144l.146.09v.162h.09l.074.234.182.072v.161l.237.162v.144l.329.234v.18l.4.306v.144l.73.63.657.72h.146l.328.395h.183l.237.306.237.072.073.18h.182l.073.144.237.072v.09h.183c0 .054.036.09.073.144h.146l.09.18.33.054.072.18h.183v.072h.145v.072h.165v.072h.145v.09h.165v.072h.164v.072h.164v.09l.474.162v.072h.256v.072l.328.09v.072l.474.072v.09h.255v.072h.238v.09h.237v.072l.583.072v.09h.31v.072h.42v.072h.401v.09h.493v.072h.638v.071h1.386v.09h.566v-.09h1.386v-.072l1.55-.162 2.116-.54v-.09l.401-.071v-.072h.164v-.09h.238v-.072h.182v-.072h.237v-.09l.474-.162v-.072h.183v-.072l.474-.18.073-.144.492-.162v-.072l.256-.072.073-.18h.164v-.054l.237-.09.091-.162h.164l.165-.234h.145l.183-.234h.146l.255-.305h.164l.73-.792h.164v-.072l.237-.162v-.162l.73-.63v-.162l.328-.234v-.144l.164-.09v-.072l.164-.072v-.18c.055 0 .11-.036.164-.072v-.143l.165-.09v-.126l.145-.09v-.162l.183-.072v-.162l.146-.072.091-.324.164-.072v-.162h.073v-.144h.091v-.18h.073v-.144h.091v-.162h.073v-.144h.073l.183-.486h.091v-.234h.073v-.144h.091v-.234h.073v-.18h.091v-.215h.073v-.252h.091v-.234h.073v-.234h.073v-.306h.092v-.234h.072l.42-2.213v-.936h.073c.128-.414 0-1.206-.073-1.493v-.954h-.091l-.073-1.08h-.091v-.414h-.073v-.306h-.091v-.395c-.238-.702-.511-1.476-.803-2.124.31-.18.492-.468.73-.72l1.386-1.26V48.1l1.222-1.1.237-.324h.073v-.144l.73-.63v-.09l.182-.071v-.162l.638-.54v-.18l.566-.45v-.18h.09l.165-.216.237-.18v-.144l.401-.306v-.198l.329-.216v-.161l.237-.162v-.144l.255-.18v-.144l.237-.162c.183-.252.11-.432.493-.54l.073.234h.091v.162l.164.072.073.306.182.09v.162l.146.072.165.467.164.09v.144h.073v.18h.09v.144h.074v.162l.182.072.146.468h.091v.162h.073l.164.468h.073v.234h.092v.162h.073l.09.306h.074v.252h.09l.074.305h.091v.234h.073v.162h.091l.073.468h.073v.162h.091l.073.468h.092v.234h.073v.234h.09v.234h.074v.324c.73 1.979 1.149 4.426 1.149 7.071 0 1.332.054 2.808-.256 3.851l-.073 1.116h-.09v.378h-.074v.396h-.091v.395h-.073v.324h-.091l-.073.702h-.073l-.091.54h-.073l-.091.558h-.073v.234h-.091v.234h-.073v.27h-.092l-.073.467h-.09v.162h-.074l-.073.468h-.091v.144h-.073v.252H54.5l-.073.306h-.091v.234h-.073l-.091.324h-.073v.144h-.092v.252h-.072L53.77 68h-.073v.161h-.09l-.165.468-.164.072v.162h-.073v.162h-.091v.144h-.073v.18l-.164.054-.165.486h-.073l-.09.234-.165.072-.073.324-.182.072v.162h-.073l-.073.234-.164.072v.162l-.165.072v.18l-.164.053-.073.252-.255.144v.18l-.237.144v.162l-.237.144v.18l-.329.216v.162l-.328.234-.073.234-.82.72v.143l-.402.324-.73.774h-.182l-.638.72h-.164l-.402.468h-.182l-.219.306h-.182l-.146.234h-.183l-.145.251-.256.072-.073.163h-.164l-.073.143h-.182l-.146.252h-.183c0 .054-.036.09-.073.144l-.237.09v.072h-.164l-.073.162-.328.072-.091.162-.31.072-.092.18-.328.054-.073.18h-.182v.072h-.146v.072h-.164v.072h-.165v.09h-.164l-.073.144-.328.09v.072l-.328.072v.09h-.237v.072h-.183v.09l-.474.144v.09h-.237v.072l-.328.072v.09h-.237v.072h-.183v.09h-.237v.071h-.164v.072l-.73.18v.054h-.164v.09h-.31v.072h-.255v.09h-.237v.072h-.256v.072l-.547.09v.072h-.347v.072h-.31V82h-.328v.072l-.73.09v.072l-.912.072v.09h-.547v.072h-.583v.072l-1.697.09c-.602.162-2.827.162-3.429 0h-1.058v-.09h-.73v-.072h-.546v-.072h-.511c-.365-.126-.912-.198-1.277-.324h-.346V82h-.402v-.09h-.328v-.072l-.565-.072v-.09h-.238v-.072h-.328v-.072l-1.459-.396v-.09h-.182v-.072h-.238v-.072l-.4-.09v-.072h-.165v-.09h-.237v-.071l-.328-.072v-.09h-.256v-.072l-.474-.162v-.072h-.182v-.09h-.146v-.072h-.164v-.072h-.165v-.09h-.164v-.072h-.164v-.072h-.164v-.09h-.164v-.072h-.164l-.073-.162-.493-.162-.073-.144-.328-.09-.073-.144-.328-.09-.091-.162h-.165l-.073-.144H14.1v-.09l-.237-.072-.091-.162h-.164l-.073-.162h-.183l-.146-.234h-.164l-.164-.233h-.164l-.164-.234h-.146a62.545 62.545 0 00-.237-.306h-.164l-.238-.324h-.182l-.474-.54h-.164l-1.131-1.188-1.058-.935v-.18c-.182-.108-.328-.252-.492-.378v-.162a95.34 95.34 0 00-.402-.306v-.162l-.328-.234v-.162l-.237-.162-.091-.234a12.21 12.21 0 00-.165-.072v-.162l-.164-.072v-.162l-.164-.072v-.161l-.237-.162v-.144l-.164-.09-.073-.234h-.091l-.073-.306a14.9 14.9 0 00-.183-.09.581.581 0 00-.073-.234h-.073l-.164-.468-.164-.09-.164-.468-.164-.072v-.162h-.073v-.162h-.091v-.162h-.073v-.18h-.11v-.143H4.67v-.162h-.073l-.182-.468h-.073v-.234h-.073v-.162h-.091v-.144h-.073v-.18h-.091v-.216H3.94l-.091-.324h-.073v-.234h-.092v-.234h-.073v-.162h-.073l-.09-.468h-.074v-.161h-.09l-.165-.774h-.073v-.252h-.091v-.234h-.073l-.091-.54h-.055v-.324h-.073v-.306h-.11v-.324h-.072v-.377h-.11v-.396h-.073l-.091-.864h-.073v-.558h-.091v-.54h-.037v-.791h-.09V57.51h-.092v-2.591h.073v-1.08h.091v-.81h.073v-.54h.091v-.54c.11-.377.2-.9.329-1.259v-.414h.073l.164-.936h.073l.09-.54h.074v-.251h.091v-.234h.073v-.234h.091v-.324h.073v-.144h.091l.164-.72h.073l.073-.378h.092v-.18h.073v-.216h.09v-.18h.074v-.215h.09l.074-.324h.091v-.144h.073v-.234h.091l.164-.486h.073v-.144h.073v-.18h.091l.165-.45.164-.09v-.144h.073v-.18h.091v-.144h.073v-.162l.164-.072.073-.323.182-.072v-.162h.073v-.162h.073l.092-.234.164-.072.073-.306.164-.09v-.162l.237-.144v-.162l.182-.072v-.18l.237-.144v-.162l.165-.072v-.162l.31-.234v-.162l.255-.144v-.18c.128-.09.274-.18.401-.305v-.144l.566-.486v-.144l.82-.72 1.295-1.332h.183l.383-.45h.182l.31-.395h.165l.237-.306h.182l.146-.252.255-.072.073-.162h.165l.072-.144h.183l.146-.252h.182l.073-.144.237-.09V34.1h.164l.073-.162.329-.072v-.09l.255-.072.073-.162h.164v-.072h.164l.073-.162h.183v-.072h.146v-.072h.182v-.09h.146l.073-.161h.182v-.072h.146v-.072h.182v-.09h.146v-.072h.165v-.072h.164v-.09h.164v-.072l.492-.162v-.072l.402-.09v-.072l.328-.072v-.09h.237v-.072h.164v-.09h.237v-.072h.183v-.072l.474-.09v-.072h.164v-.072l.493-.09v-.072h.237v-.072h.237v-.09h.255v-.072l.547-.09v-.072l.675-.072v-.09l1.368-.234c.401-.108.985-.198 1.386-.305h.657v-.09h.73v-.072h1.057c.639-.18 2.609-.18 3.247 0l2.371.162 3.721.773v.09h.255v.072h.238v.09h.255v.072h.237v.072h.237v.09h.256v.072l.474.072v.09h.182v.072h.237v.072h.165v.09h.237v.072l.893.324v-.018z" fill="#fff"/><path d="M4.596 38.382l-.31-.864h-.09v-.162h-.074v-.234h-.11l-.072-.324h-.091v-.233h-.073v-.162h-.092l-1.04-3.15-.09-.72H2.48v-.305h-.092v-.396h-.073v-.396h-.09v-.486h-.037v-.468h-.091v-.63h-.092v-.72h-.09v-1.025h-.074v-.864c0-.647-.073-1.53.073-2.05v-1.027h.091v-.791h.073v-.54h.092v-.576h.072v-.396h.092v-.468h.073v-.324h.09v-.396h.074v-.305h.091v-.324h.073v-.306h.073v-.324H2.9l.164-.792h.073v-.234h.091v-.234h.073v-.234h.092v-.234h.073v-.18h.09l.074-.467h.073v-.126h.09v-.252h.074v-.144h.091v-.234h.073l.091-.324h.073l.091-.396h.073l.164-.468h.073v-.18h.092v-.162h.073v-.162h.09v-.144h.074v-.18h.09v-.143h.074v-.162l.182-.072v-.162h.073v-.162h.073v-.162h.073v-.144l.183-.09c0-.108.036-.198.072-.306h.073l.092-.27c.054 0 .11-.036.164-.072l.073-.306.164-.09v-.162h.073l.091-.234.164-.072v-.144l.237-.162v-.161c.055 0 .11-.037.183-.072v-.145l.146-.071.09-.234.238-.18v-.144l.328-.234V9.95l.329-.234v-.18l.547-.468v-.162l1.24-1.097 1.04-1.116h.182l.401-.468h.165l.237-.324h.164l.237-.306h.182l.146-.252h.164l.165-.234h.164l.164-.234h.164l.073-.161h.164l.073-.144h.182c0-.054.037-.108.073-.18h.165l.073-.144h.182c0-.054.036-.108.073-.162l.31-.072.091-.162.329-.072.072-.18.493-.144.073-.162h.182v-.054h.146v-.09h.183v-.09h.145v-.072h.165V2.88h.164v-.072h.164v-.072h.164v-.09h.164v-.072l.475-.18V2.34h.255v-.09l.31-.072v-.09h.255v-.072h.164v-.072l.402-.09V1.8h.237v-.09h.182v-.072l.474-.071v-.09h.238v-.072h.255v-.09h.237V1.26h.255v-.09h.31C25.006-.036 31.465-.45 35.33.774h.401v.072h.329v.09l.565.072v.072h.255v.09h.31v.072h.256v.072h.237v.09h.237v.072h.255v.09l.493.071v.072h.164v.09l.474.072v.09h.183v.072h.237v.072l.31.09v.072h.255v.09h.164v.072l.31.072v.09h.183v.072h.146v.09h.182v.072h.146v.072h.164v.09h.164v.072h.165v.072h.164v.09h.164v.072h.164v.09h.164l.073.144.493.18.073.144h.182v.072h.146l.073.18h.182l.073.144h.164l.073.162h.183c0 .054.036.108.073.162h.146l.09.144h.165v.09l.237.071.091.162h.164l.073.162.237.072.183.234h.146l.255.324h.146l.255.306h.165l.4.486.238.072.657.72h.164l.164.234.657.54v.18l.802.701v.162l.492.396v.144l.329.252v.144l.31.252v.144l.255.18.073.216.183.09v.144h.073l.073.251.164.072v.162l.237.162.091.306.164.09v.144l.164.09v.126l.164.09v.162h.073v.144l.165.09.164.468.164.09v.144h.073v.18h.091v.143h.073v.163h.091v.161l.164.072.073.396h.073v.162h.091v.144h.074v.18h.09l.165.468h.073l.091.396h.073v.144h.091v.234h.073v.18h.073v.216h.091v.18h.073l.091.467h.073v.234h.092v.162h.072l.256 1.026h.073v.306h.091v.234h.073v.324h.073v.306h.091v.323h.073l.091.72h.073v.396h.091v.468h.073v.468h.092v.558h.073v.72h.09l.074 2.986c0 2.16-.237 4.391-.821 6.01v.325h-.073v.305h-.073l-.091.558h-.073v.234h-.091v.234h-.073l-.183.792h-.073v.18h-.073l-.09.45h-.074v.18h-.091v.216h-.073v.251h-.073l-.091.306h-.073v.234h-.091v.18h-.073v.144h-.091v.162h-.073v.234h-.092l-.164.468h-.073v.162h-.073v.162h-.09v.162h-.074v.144h-.091v.18h-.073v.144l-.182.072-.146.485-.164.072-.073.324-.183.072v.162h-.073v.162h-.073l-.09.234-.165.072-.073.324h-.091l-.073.234-.164.072v.18l-.237.144v.162l-.183.072v.162l-.146.072-.09.233-.238.18v.144l-.328.234v.162l-.402.306v.18l-.4.306v.162l-.493.396v.144l-.657.558v.162l-.803.72v.143l-.182.09-.31.396-.73.63c-.73.954-1.678 1.692-2.517 2.52l-3.173 3.202h-.164l-.493.54-1.13 1.044-.402.468h-.182l-2.007 2.033c-.802.54-1.368 1.26-2.043 1.907-.912.828-1.787 1.674-2.68 2.52l-1.788 1.745c-.256.234-.438.612-.821.72-.255-.45-.766-.774-1.131-1.116l-.255-.324-2.262-2.123-2.043-2.051h-.164l-.803-.882-1.787-1.656-2.28-2.285c-1.04-.738-1.86-1.727-2.754-2.61-.31-.287-.912-.629-.985-1.115l1.295-2.285.182-.09v-.144l.146-.09v-.162l.255-.144v-.18l.31-.216v-.162l.42-.324v-.144l.73-.647.638-.702h.183l.31-.396h.164l.237-.324.255-.072.073-.162h.183c0-.054.036-.108.073-.162l.237-.072v-.072h.164l.073-.18h.182l.073-.144.328-.072.073-.162.329-.072c.364-.18.73-.503 1.222-.557.127.216.31.306.474.468l1.222 1.187 3.01 3.005h.164l.164.234.966.864.329.396h.182c.22-.378.639-.558.967-.864l1.696-1.745h.183l.146-.234.656-.54 2.262-2.303.255-.072.328-.396.803-.72v-.144l.566-.486 1.149-1.188.565-.467v-.162l.82-.72v-.072l.147-.072v-.162l.656-.54v-.18l.493-.378v-.18c.127-.09.273-.18.401-.305v-.162l.328-.234v-.162l.237-.144v-.18l.256-.144v-.162l.164-.072.073-.234h.091v-.162l.146-.072.091-.324.164-.072v-.18h.073v-.144h.092v-.162h.073v-.144l.182-.09v-.162h.073v-.143h.073v-.252h.073v-.144h.091l.073-.324h.091v-.234h.073V32.3h.091v-.234h.073v-.162h.091l.31-1.35c.771-2.714.72-5.591-.145-8.277v-.324l-1.15-2.61a7.04 7.04 0 00-.164-.09l-.164-.467-.164-.072-.073-.324-.164-.072v-.18h-.073l-.091-.216-.164-.09v-.144l-.237-.18v-.143l-.256-.162v-.162l-.401-.306v-.18l-.492-.36-1.204-1.26h-.183l-.237-.324h-.164l-.237-.306h-.164l-.164-.233h-.165l-.072-.18h-.165l-.09-.144-.238-.072v-.09l-.328-.072-.073-.162-.493-.162-.073-.162-.328-.072v-.072l-.328-.09v-.072h-.238v-.126h-.182v-.072l-.31-.072v-.09h-.237v-.072h-.182v-.054l-.475-.09v-.072H34.2v-.09h-.255v-.072h-.237v-.072h-.329v-.09h-.237v-.054h-.328v-.09h-.42v-.09h-.4v-.072h-.566a11.941 11.941 0 00-4.469 0h-.565l-2.681.72v.072c-.146 0-.274.036-.42.072v.072h-.164v.09h-.237v.072l-.493.162v.072h-.164v.09h-.146v.072h-.2v.072h-.146v.09h-.183v.072h-.146v.09h-.164l-.073.144-.328.09-.091.162h-.165l-.072.144h-.165l-.073.18H20.1l-.073.144h-.164l-.164.234h-.164l-.165.233h-.146l-.328.396h-.182l-.73.792-.73.63v.18l-.474.378v.162l-.237.162-.09.233-.165.072v.162l-.164.072-.073.252h-.091v.144l-.165.09-.072.234h-.073l-.092.306-.164.09v.162h-.073v.144h-.09v.18h-.074v.144h-.091v.162h-.073v.162h-.091v.144h-.073l-.164.486h-.073v.233H14.5v.162h-.073v.234h-.092v.162h-.073v.234h-.09v.234h-.074v.234h-.091v.234h-.073l-.091.63c-.365 1.08-.474 2.339-.474 3.797v1.511h.073v.63h.09v.54c.11.378.238.881.31 1.26-2.553 1.349-4.76 3.058-6.748 4.984-.438.45-.82.918-1.204 1.44l-.42.305v.162l-.236.162v.144l-.237.18c-.183.18-.055.288-.42.378h.018z" fill="#37C134"/></g><defs><clipPath id="clip0_209_239"><path fill="#fff" transform="translate(69.367 14.573)" d="M0 0h46.633v53.628H0z"/></clipPath><clipPath id="clip1_209_239"><path fill="#fff" d="M0 0h56.543v82.774H0z"/></clipPath></defs></svg>