<svg width="30" height="30" fill="none" xmlns="http://www.w3.org/2000/svg"><path d="M22.63 18.165c-.952-.828-2.094-1.343-2.982-1.343-.474 0-.87.145-1.143.419-.576.575-1.277 1.097-1.61 1.256-.407-.117-1.822-1.119-3.05-2.347-1.25-1.25-2.197-2.41-2.359-2.73.044-.32.693-1.353 1.268-1.93.813-.812.416-2.586-.923-4.125-2.16-2.481-2.193-2.519-2.422-2.519a.475.475 0 00-.312.111c-.03.025-.05.042-1.664 1.91-.903 1.046-2.021 2.904-2.494 4.142-.605 1.589 3.202 6.593 5.328 8.719 2.503 2.503 5.458 4.843 6.728 5.327.17.065.368.098.59.098 1.651 0 4.671-1.84 5.542-2.591 1.857-1.604 1.864-1.612 1.891-1.644a.47.47 0 00.116-.34c-.017-.235-.017-.25-2.504-2.413z" fill="#fff"/></svg>