<svg width="32" height="32" fill="none" xmlns="http://www.w3.org/2000/svg"><path d="M18.5 16.375a.925.925 0 00-1.275 0l-.36.36-1.58-1.58.36-.36a.9.9 0 000-1.275l-2.285-2.29a.91.91 0 00-1.28 0 3.74 3.74 0 000 5.28l1.345 1.345a.5.5 0 10.705-.71l-1.34-1.34A2.735 2.735 0 0112.7 12l2.15 2.145-.35.355a.9.9 0 000 1.275l1.705 1.725a.925.925 0 001.295 0l.365-.36L20 19.3a2.735 2.735 0 01-2.405.7.5.5 0 00-.19.98c.238.05.481.075.725.075a3.75 3.75 0 002.64-1.095.91.91 0 000-1.28l-2.27-2.305z" fill="#605A28"/><path d="M15.61 18.645a.5.5 0 10-.705.71l.5.5a.5.5 0 10.705-.71l-.5-.5z" fill="#605A28"/><path d="M22 1.5H10A2.5 2.5 0 007.5 4v24a2.5 2.5 0 002.5 2.5h12a2.5 2.5 0 002.5-2.5V4A2.5 2.5 0 0022 1.5zM23.5 28a1.5 1.5 0 01-1.5 1.5H10A1.5 1.5 0 018.5 28V4A1.5 1.5 0 0110 2.5h2.32a2.5 2.5 0 002.45 2h1.73a.5.5 0 000-1h-1.73a1.5 1.5 0 01-1.415-1h5.29a1.5 1.5 0 01-.42.625.5.5 0 10.66.75A2.5 2.5 0 0019.68 2.5H22A1.5 1.5 0 0123.5 4v24z" fill="#605A28"/></svg>