<svg width="80" height="80" fill="none" xmlns="http://www.w3.org/2000/svg"><g clip-path="url(#clip0_228_173)"><path d="M39.999 79.998c22.09 0 39.999-17.908 39.999-39.999C79.998 17.909 62.09 0 39.999 0 17.909 0 0 17.908 0 39.999c0 22.09 17.908 39.999 39.999 39.999z" fill="#D3E38E"/><path d="M20.187 14.948l2.3 2.548c.248.264.419.59.494.944.067.342.028.697-.111 1.016-.165.37-.41.7-.718.964-.508.457-1.02.682-1.534.674a1.864 1.864 0 01-1.384-.69l-2.29-2.548.834-.752 2.177 2.418c.195.255.472.434.784.506.251.033.518-.078.8-.333a1.004 1.004 0 00.412-.741 1.373 1.373 0 00-.422-.84L19.354 15.7l.833-.752zm8.462 1.04l-1.119.636-2.067-1.139-.085 2.358-1.05.596.182-3.256-2.706-1.425 1.081-.613 1.94 1.1.034-2.22 1.058-.599-.152 3.116 2.884 1.447zm6.55-4.57c.183.856.079 1.564-.313 2.123-.392.559-1.046.937-1.96 1.133l-1.472.313-1.11-5.2 1.633-.348c.85-.182 1.556-.098 2.12.25.565.35.934.926 1.106 1.73m-1.139.272c-.237-1.118-.85-1.57-1.836-1.36l-.588.125.723 3.387.473-.102c1.062-.226 1.471-.91 1.229-2.05zm5.982 2.29l-3.061.05-.087-5.315 3.062-.05.015.924-1.934.031.018 1.166 1.8-.027.017.923-1.802.03.022 1.37 1.936-.032.014.93zm4.602-.83a1.371 1.371 0 01-.694 1.037c-.385.216-.882.276-1.49.178a3.387 3.387 0 01-1.434-.557l.166-1.034c.27.181.552.342.845.48.21.096.43.165.657.205a.979.979 0 00.588-.049.486.486 0 00.262-.392.466.466 0 00-.039-.28.978.978 0 00-.215-.272A6.643 6.643 0 0042.67 12a3.259 3.259 0 01-.65-.55 1.648 1.648 0 01-.306-.547 1.4 1.4 0 01-.04-.668 1.372 1.372 0 01.65-1.02 1.987 1.987 0 011.371-.196c.264.042.52.117.765.224.254.112.499.243.733.392l-.508.823c-.21-.133-.43-.25-.657-.353a2.262 2.262 0 00-.529-.155.723.723 0 00-.51.069.491.491 0 00-.23.357.48.48 0 00.027.268.759.759 0 00.182.247c.206.173.422.334.647.482.358.22.663.517.894.868a1.4 1.4 0 01.133.912m.881 1.803l1.581-5.077 1.076.335-1.58 5.077-1.077-.335zm5.659-.968l1.881.952-1.242 2.46a5.961 5.961 0 01-.968-.226 6.333 6.333 0 01-.857-.356c-.716-.362-1.156-.849-1.32-1.46-.165-.612-.048-1.312.35-2.1.392-.765.915-1.252 1.568-1.46.653-.207 1.372-.114 2.156.279a3.95 3.95 0 011.26 1.003l-.754.64a2.674 2.674 0 00-.95-.806 1.495 1.495 0 00-1.267-.09 1.905 1.905 0 00-.98.98c-.261.514-.355.961-.28 1.34a1.228 1.228 0 00.713.872c.212.105.433.189.66.251l.506-.98-.897-.463.421-.836zm5.28 7.375l-1.094-.925.827-4.563-.025-.022c-.423.573-.733.975-.93 1.206l-1.614 1.91-.768-.644 3.431-4.061 1.086.917-.805 4.531.02.016a32.5 32.5 0 01.903-1.154l1.625-1.915.783.655-3.44 4.049zM7.87 41.246H6.107v-.37l.633-.64a8.48 8.48 0 00.366-.392.878.878 0 00.124-.196.525.525 0 00.02-.318.285.285 0 00-.067-.103.325.325 0 00-.223-.075.643.643 0 00-.285.067c-.103.054-.2.12-.288.196l-.29-.343c.095-.085.198-.16.308-.223a1.11 1.11 0 01.266-.1c.106-.025.215-.037.324-.036a.958.958 0 01.417.087.64.64 0 01.38.596.897.897 0 01-.06.327c-.05.113-.116.218-.196.311-.14.163-.292.315-.453.457l-.31.274v.024h1.098v.456zm2-1.266c.024.341-.05.681-.216.98a.75.75 0 01-.666.318.741.741 0 01-.657-.318 1.73 1.73 0 01-.221-.98c-.025-.34.05-.68.216-.98a.747.747 0 01.662-.315.743.743 0 01.659.331c.166.293.244.628.223.964zm-1.23 0c-.012.225.015.45.08.665a.276.276 0 00.27.196.28.28 0 00.268-.196 2.69 2.69 0 000-1.327.279.279 0 00-.537 0 1.96 1.96 0 00-.08.666m2.813 1.26h-.534v-1.961c-.088.089-.15.147-.184.174l-.29.233-.257-.321.812-.647h.437l.015 2.523zm2.447-1.444c0 .497-.104.867-.313 1.111a1.176 1.176 0 01-.949.367 1.774 1.774 0 01-.339-.024v-.427c.1.024.202.036.304.035.15.005.3-.021.439-.078a.553.553 0 00.263-.247 1.07 1.07 0 00.105-.462h-.021a.588.588 0 01-.231.227.73.73 0 01-.328.065.66.66 0 01-.52-.212.847.847 0 01-.195-.588.876.876 0 01.231-.635.834.834 0 01.625-.235.9.9 0 01.488.131.84.84 0 01.322.38c.078.186.116.386.111.588m-.91-.676a.316.316 0 00-.26.114.504.504 0 00-.094.327.455.455 0 00.085.29.308.308 0 00.256.106.392.392 0 00.279-.106.321.321 0 00.115-.243.553.553 0 00-.107-.347.332.332 0 00-.275-.141zm7.86 26.554l.523-1.568-1.681-1.325-1.392.883-.758-.588 5.121-3.119.784.616-1.832 5.709-.765-.608zm.821-2.336l.532-1.52a7.46 7.46 0 01.174-.477c.084-.214.149-.37.196-.464a8.67 8.67 0 01-.874.62l-1.31.826 1.282 1.015zm6.527 6.205l-.91-.404.485-3.435c.022-.15.06-.362.115-.637.055-.276.099-.465.131-.569a13.119 13.119 0 01-.736 1.006l-2.19 2.661-.909-.403.472-2.856.459-2.853.854.378-.587 3.306c-.099.523-.204.98-.316 1.372a9.92 9.92 0 01.41-.614c.159-.222.293-.397.401-.527l2.156-2.62.83.366-.477 3.381c-.072.459-.17.913-.292 1.36.244-.406.516-.794.815-1.162l2.046-2.653.847.374-3.604 4.53zm6.989 1.6l-.294-1.633-2.111-.351-.794 1.442-.95-.158 2.986-5.2.98.163 1.145 5.88-.962-.144zm-.406-2.443l-.269-1.59c-.02-.106-.047-.273-.078-.5a9.165 9.165 0 01-.059-.499c-.135.332-.29.655-.466.967l-.737 1.356 1.609.266zm4.227.363l.089 2.234-.914.035-.223-5.591 1.58-.063c.72-.029 1.26.085 1.618.341.358.256.548.657.569 1.204.027.696-.315 1.206-1.027 1.53l1.678 2.413-1.041.041-1.427-2.181-.901.037zm-.029-.757l.635-.025c.426-.017.731-.108.915-.274a.86.86 0 00.259-.716.76.76 0 00-.337-.668 1.7 1.7 0 00-.94-.169l-.604.024.072 1.828zm9.253-1.419c.235.892.161 1.64-.222 2.248-.383.608-1.052 1.038-2.009 1.29l-1.532.404-1.427-5.411 1.7-.45c.882-.232 1.63-.18 2.241.157.612.338 1.028.926 1.249 1.764m-1.188.334c-.306-1.163-.972-1.609-2-1.337l-.61.16.928 3.529.492-.13c1.106-.291 1.502-1.03 1.19-2.216m7.063.005l-2.88 1.447-2.513-5 2.879-1.448.437.87-1.82.913.552 1.098 1.693-.85.437.867-1.693.853.649 1.288 1.818-.914.441.876zm3.961-6.414c.574.72.808 1.44.702 2.156-.106.716-.546 1.379-1.32 1.989l-1.24.98-3.482-4.38 1.372-1.094c.714-.569 1.42-.821 2.116-.759.697.063 1.314.433 1.852 1.11m-.944.784c-.75-.941-1.539-1.08-2.37-.42l-.494.392 2.27 2.852.392-.318c.893-.712.959-1.548.196-2.508m6.56-20.555l-.124-.473h-.817l-.128.473h-.748l.82-2.529h.908l.831 2.529h-.743zm-.265-1.031l-.108-.414a19.63 19.63 0 01-.092-.357 4.65 4.65 0 01-.07-.313c-.01.059-.032.155-.061.29-.03.135-.098.392-.196.794h.527zm3.108-.686a.843.843 0 01-.249.652 1.003 1.003 0 01-.707.23h-.196v.834h-.68V38.53h.872c.256-.02.51.054.717.208a.743.743 0 01.24.588m-1.147.327h.123a.34.34 0 00.243-.086.312.312 0 00.09-.237c0-.17-.094-.255-.282-.255h-.176l.002.578zm2.232.478v.918h-.68V38.53h.825c.685 0 1.027.248 1.027.745a.743.743 0 01-.427.676l.733 1.098h-.772l-.534-.918h-.172zm0-.511h.127c.238 0 .357-.105.357-.316 0-.173-.116-.26-.349-.26h-.135v.576zm3.973 1.428h-.69v-1.332c0-.162.003-.31.01-.445a1.479 1.479 0 01-.16.163l-.285.235-.353-.433.864-.706h.614v2.519zm2.293-1.973a.6.6 0 01-.143.402.814.814 0 01-.414.243v.01c.42.052.631.248.631.587a.647.647 0 01-.278.553c-.23.145-.5.213-.772.196a1.963 1.963 0 01-.75-.135v-.559a1.487 1.487 0 00.652.167.647.647 0 00.327-.063.215.215 0 00.102-.196.222.222 0 00-.053-.158.346.346 0 00-.172-.085 1.377 1.377 0 00-.31-.03h-.155v-.51h.159c.346 0 .52-.089.52-.265a.162.162 0 00-.077-.15.391.391 0 00-.206-.048.943.943 0 00-.5.163l-.282-.455a1.37 1.37 0 01.41-.196c.156-.041.318-.061.48-.059.215-.012.43.042.613.155a.494.494 0 01.222.427m-44.813-.335c.166-.002.332.023.49.072.156.05.309.111.457.18l.34-.875a2.94 2.94 0 00-1.275-.287 2.092 2.092 0 00-1.062.261c-.3.173-.542.433-.692.745-.167.35-.25.735-.241 1.123 0 .68.166 1.203.498 1.568.331.364.808.545 1.428.54.4.008.798-.07 1.166-.227v-.94c-.168.07-.34.13-.515.182-.172.051-.35.077-.53.076-.602 0-.903-.395-.903-1.187-.018-.315.06-.628.222-.898a.709.709 0 01.62-.325m4.928 2.414a2.467 2.467 0 01-.63-.092 3.297 3.297 0 01-.661-.255v.992c.187.089.384.155.588.196.227.042.458.061.69.057.294.007.587-.05.858-.165a1.209 1.209 0 00.756-1.142c.01-.248-.063-.49-.207-.692a1.881 1.881 0 00-.74-.514 4.782 4.782 0 01-.68-.349.273.273 0 01-.125-.217.23.23 0 01.098-.196.52.52 0 01.316-.076c.347.017.686.107.995.264l.341-.858a3.192 3.192 0 00-1.303-.296 1.822 1.822 0 00-1.137.317 1.054 1.054 0 00-.413.886c-.005.18.028.36.096.527.068.152.17.286.298.392.184.145.387.264.603.355.297.13.48.219.547.265a.544.544 0 01.15.127.243.243 0 01.046.149.261.261 0 01-.115.221.614.614 0 01-.363.087m5.239.017a2.463 2.463 0 01-.631-.092 3.303 3.303 0 01-.663-.255v.992c.188.089.385.155.588.196.228.042.459.061.69.057.295.007.587-.05.858-.165a1.209 1.209 0 00.757-1.142 1.12 1.12 0 00-.206-.692 1.882 1.882 0 00-.739-.514 4.775 4.775 0 01-.688-.345.272.272 0 01-.125-.217.23.23 0 01.098-.196.52.52 0 01.316-.076c.347.016.687.107.997.264l.341-.858a3.194 3.194 0 00-1.303-.296 1.822 1.822 0 00-1.137.317 1.054 1.054 0 00-.413.886c-.005.18.028.36.096.527.068.152.17.286.297.392.185.145.388.264.604.355.297.13.479.219.547.265a.54.54 0 01.149.127.243.243 0 01.047.149.262.262 0 01-.116.221.612.612 0 01-.362.087m7.098-2.756c-.359-.338-.87-.508-1.53-.508h-1.425v4.116h1.33c.685 0 1.217-.185 1.596-.556.379-.371.568-.9.568-1.588.002-.638-.178-1.126-.539-1.464zm-.85 2.403a.896.896 0 01-.743.294h-.249V38.78h.324a.827.827 0 01.68.272c.167.246.246.542.223.84.024.317-.058.634-.235.899zm6.43-2.926h-1.483l-1.343 4.133h1.221l.208-.772h1.336l.196.772h1.217l-1.352-4.133zm-1.166 2.45c.171-.646.282-1.078.331-1.298.05-.22.083-.377.1-.472.018.103.058.273.118.511l.15.588.177.677-.876-.006zm-5.247-5.423l-4.247-4.189-4.166 4.189h-2.383l8.852-8.826h-9.29l-8.886 8.826H22.02l.382.617h35.95v-.617H45.498zM22.02 44.95h12.759l4.149 4.145 4.226-4.145h2.267l-8.796 8.752 9.29.002 4.625-4.578 4.21-4.176h3.602v-.616H22.02v.616z" fill="#673AB7"/></g><defs><clipPath id="clip0_228_173"><path fill="#fff" d="M0 0h80v80H0z"/></clipPath></defs></svg>