<svg width="80" height="80" fill="none" xmlns="http://www.w3.org/2000/svg"><g clip-path="url(#clip0_228_317)"><path d="M40 80c22.091 0 40-17.909 40-40S62.091 0 40 0 0 17.909 0 40s17.909 40 40 40z" fill="#E5EFF9"/><path d="M10.684 47.111l.094-.968a2.56 2.56 0 011.526.306c.37.246.633.621.74 1.052a1.798 1.798 0 01-.276 1.605c-.4.561-1.04.965-1.919 1.21-.93.262-1.716.256-2.358-.017a1.85 1.85 0 01-1.084-1.277 1.768 1.768 0 01.16-1.4c.23-.357.553-.645.934-.832l.511.82c-.248.11-.454.3-.585.538a.882.882 0 00-.067.667.988.988 0 00.657.686c.346.129.85.1 1.511-.086.662-.186 1.121-.424 1.378-.714a.965.965 0 00.212-.913.852.852 0 00-.449-.539 1.814 1.814 0 00-.985-.138zm1.662-2.027l-5.615.676-.408-3.414.949-.116.3 2.489 1.235-.151-.279-2.311.946-.116.289 2.303 1.526-.182-.311-2.576.95-.113.418 3.51zm-.435-4.096l-5.654-.141.037-1.504a4.576 4.576 0 01.108-1.096c.104-.285.309-.523.576-.667a2.025 2.025 0 011.108-.247c.357-.006.709.079 1.023.247.247.132.446.34.568.593.127.386.174.795.138 1.2L9.8 40l2.133.054-.022.934zm-4.674-1.05l1.607.04v-.519a2.18 2.18 0 00-.056-.71.617.617 0 00-.247-.314.844.844 0 00-.467-.131.867.867 0 00-.479.11.605.605 0 00-.267.3c-.062.25-.09.509-.084.767l-.007.457zm5.013-4.136l-4.635-.77-.227 1.358-.944-.156.605-3.634.944.155-.225 1.356 4.635.77-.154.921zm.476-2.676L7.34 31.398l.274-.85 3.588 1.156L8.19 28.76l.289-.893 5.383 1.728-.282.85-3.508-1.131 2.94 2.918-.286.894zM10.39 23.84l.494.246c.69-1.162 1.66-1.413 2.909-.755 1.249.658 1.59 1.606 1.022 2.842l.58.306-.434.825-.58-.306c-.682 1.152-1.65 1.399-2.902.74-1.253-.658-1.596-1.591-1.03-2.8l-.493-.261.434-.837zm3.14 2.716l-2.221-1.178c-.341.647-.137 1.169.612 1.565.749.397 1.286.266 1.61-.392v.005zm-1.8-2.005l2.238 1.177c.344-.658.138-1.183-.617-1.575-.756-.392-1.296-.26-1.62.393v.005zm4.942-.281l-4.477-3.458.546-.706 2.982 2.304-1.834-3.79.573-.741 4.476 3.457-.545.704-2.919-2.255 1.773 3.74-.575.744zm4.81-6.722l.276-.264 1.499 1.593-.56.526-.843-.884-2.407 2.261-3.874-4.128.681-.642 3.21 3.425 1.329-1.235-3.21-3.425.689-.652 3.21 3.425zm1.296.178l-3.175-4.691.74-.494 2.126 3.123-.575-4.175.778-.526 3.172 4.691-.74.494-2.067-3.062.519 4.107-.778.533zm3.728-2.447L24.08 10.17l1.358-.644a4.504 4.504 0 011.03-.39c.301-.036.605.04.854.215.317.22.566.525.716.881.164.317.244.67.232 1.027a1.35 1.35 0 01-.274.776c-.287.287-.63.513-1.007.664l-.553.264.913 1.926-.842.39zm-1.173-4.644l.69 1.464.468-.225a2.26 2.26 0 00.61-.37.632.632 0 00.163-.37.854.854 0 00-.094-.477.83.83 0 00-.316-.376.604.604 0 00-.385-.103 2.803 2.803 0 00-.723.271l-.413.186zm3.939.276a4.035 4.035 0 01-.18-1.681 2.26 2.26 0 01.478-1.153c.274-.31.633-.53 1.032-.635a2.005 2.005 0 011.77.277c.544.367.947 1 1.208 1.9.262.901.257 1.673-.015 2.317a2.141 2.141 0 01-3.044.903c-.573-.393-.99-1.036-1.25-1.928zm.916-.294c.18.625.437 1.06.765 1.301a1.108 1.108 0 001.763-.508c.14-.377.117-.887-.07-1.531-.185-.644-.432-1.076-.74-1.296a1.149 1.149 0 00-1.783.51c-.144.371-.123.879.065 1.524zm4.034-3.97l1.847-.22a2.843 2.843 0 011.077 0c.231.079.433.227.578.425a1.593 1.593 0 01.21 1.518 1.18 1.18 0 01-.403.553c.274.059.521.207.701.423.19.238.305.526.333.83a1.79 1.79 0 01-.172 1.07c-.133.275-.363.49-.645.606a7.545 7.545 0 01-1.291.222l-1.566.185-.669-5.612zm1.04.825l.153 1.298.615-.074a6.81 6.81 0 00.679-.098.58.58 0 00.348-.247c.08-.138.109-.3.081-.457a.686.686 0 00-.158-.393.452.452 0 00-.286-.16 5.326 5.326 0 00-.892.066l-.54.065zm.264 2.222l.178 1.499.864-.102c.247-.016.49-.066.723-.148a.553.553 0 00.247-.264.81.81 0 00.057-.454.826.826 0 00-.17-.44.602.602 0 00-.341-.207 2.98 2.98 0 00-.8.027l-.758.089zm7.99 2.262l-1.015-.04-.358-1.299-1.854-.071-.432 1.266-.988-.04 2.022-5.582.988.04 1.637 5.726zM41.88 9.652l-.558-2.121-.709 2.074 1.267.047zm1.925 2.373l1.106-5.548.916.182-.434 2.185 1.804.358.435-2.182.916.182-1.106 5.546-.916-.182.494-2.425-1.805-.358-.494 2.424-.916-.182zm4.37.931l1.976-5.302.874.326-.776 2.087 1.729.642.777-2.087.875.326-1.976 5.301-.876-.326.864-2.318-1.728-.642-.862 2.319-.877-.326zm4.171 1.54l2.936-4.832.8.494-1.168 1.924 1.135.678a1.506 1.506 0 01.756 1.018c.083.45-.01.915-.262 1.298-.21.354-.524.635-.898.806-.38.172-.825.106-1.339-.205l-1.96-1.18zm2.069-1.607l-.776 1.276.845.512c.153.104.319.187.494.246.13.029.267.01.385-.054a.79.79 0 00.358-.301c.26-.43.12-.808-.42-1.136l-.886-.543zm1.881 4.005l2.939-4.835.797.494-2.938 4.832-.798-.491zm1.277.95l3.79-4.197.662.598-2.519 2.792 3.921-1.54.696.627-3.79 4.197-.661-.598 2.469-2.738-3.864 1.482-.704-.623zm6.592-3.69l.321.29c-.204.225-.481.37-.782.41a.87.87 0 01-.697-.247.888.888 0 01-.308-.669c.01-.304.125-.596.326-.824l.32.288a.52.52 0 00.043.786c.247.234.508.22.777-.035zm-1.646 8.786l-.544-.76 4.608-3.279 2.148 3.018-4.607 3.279-.541-.753 3.83-2.717-1.065-1.496-3.83 2.709zm3.851 6.653l-.444-.909.968-.933-.825-1.665-1.318.228-.447-.882 5.869-.891.44.889-4.243 4.163zm1.235-2.536L69.2 25.55l-2.153.375.558 1.13zm-1.168 2.82l5.39-1.707.454 1.435c.126.346.21.706.247 1.072a1.252 1.252 0 01-.326.82c-.262.282-.6.486-.972.587-.337.119-.698.15-1.05.091a1.358 1.358 0 01-.74-.377 3.05 3.05 0 01-.522-1.09l-.185-.585-2.032.645-.264-.892zm4.76-.526l-1.533.493.156.494c.06.232.155.453.284.655a.64.64 0 00.345.214.988.988 0 00.909-.293.627.627 0 00.156-.37 2.81 2.81 0 00-.17-.742l-.146-.451zm-3.404 5.528l4.634-.773-.225-1.358.944-.158.605 3.635-.944.158-.224-1.356-4.637.776-.153-.924zm.419 2.689l5.655-.111.017.933-2.222.045.037 1.84 2.222-.045.017.933-5.654.114-.017-.934 2.469-.05-.037-1.839-2.47.047-.017-.933zm.018 4.484l5.607.74-.45 3.413-.948-.126.329-2.486-1.235-.163-.303 2.308-.946-.123.306-2.311-1.523-.2-.348 2.575-.951-.126.462-3.501zm-.595 4.084l5.432 1.555-.408 1.445a4.58 4.58 0 01-.38 1.034 1.26 1.26 0 01-.726.494 2.044 2.044 0 01-1.133-.047 2.107 2.107 0 01-.926-.493 1.355 1.355 0 01-.4-.72 2.994 2.994 0 01.168-1.194l.168-.59-2.052-.588.257-.896zm4.261 2.19l-1.545-.442-.144.494c-.08.226-.12.464-.123.703a.637.637 0 00.168.368.89.89 0 00.42.247.86.86 0 00.493 0 .625.625 0 00.334-.222c.125-.226.217-.469.274-.72l.123-.428z" fill="#02457E"/><path d="M14.696 55.62l.578.817-4.104 2.901.976 1.378 5.328-3.768-1.553-2.195-1.225.867zm1.08 4.444c-1.512 1.442-1.534 3.395-.196 4.798.413.469.96.798 1.568.943l1.343-1.282a2.18 2.18 0 01-1.58-.632c-.72-.755-.593-1.743.123-2.424.776-.741 1.815-.815 2.51-.084a2.047 2.047 0 01.493 1.661l1.378-1.316a3.247 3.247 0 00-.857-1.656c-1.222-1.28-3.203-1.516-4.783-.013v.005zm11.029 7.514l-.88-.395.398-.894 2.736 1.217.637-1.43-4.405-1.962-2.654 5.963 2.548 1.135c.432.193 2.334 1.06 3.166-.805.8-1.797-1.094-2.632-1.546-2.834v.005zm-1.252 2.373l-.713-.321.558-1.252.713.318c.529.247.768.526.558.988-.21.462-.595.494-1.116.262v.005zm6.48.93l.777-3.839-1.729-.35-1.296 6.394 1.756.359 3.254-3.339-.78 3.84 1.728.35 1.294-6.395-1.753-.355-3.252 3.335zm5.965-1.348l1.437-.022.076 4.96 1.827-.026-.076-4.963 1.434-.023-.024-1.565-4.692.074.018 1.565zm8.195-2.535l-2.682.614 1.464 6.363 1.783-.41-.494-2.1.899-.208c1.8-.413 2.03-1.785 1.827-2.667-.202-.881-.988-2.015-2.797-1.597v.005zm.269 2.95l-.509.119-.336-1.464.506-.117c.766-.175.968.208 1.04.526.064.267.089.751-.701.931v.005zm6.212-1.165l-1.74-3.511-1.578.785 2.898 5.847 1.605-.795.524-4.632 1.74 3.508 1.58-.782-2.888-5.855-1.605.798-.536 4.637zm7.385-9.77l-1.617 1.41.323 3.362-1.804-2.057-1.378 1.203 4.291 4.918 1.378-1.202-1.847-2.114 3.271.872 1.729-1.504-4.133-.864-.213-4.025zm3.294-1.564a2.037 2.037 0 011.546-.792l-1.531-1.114a3.245 3.245 0 00-1.482 1.141c-1.04 1.432-.918 3.425.845 4.706 1.691 1.235 3.615.899 4.755-.672a3.012 3.012 0 00.662-1.706l-1.504-1.091a2.175 2.175 0 01-.335 1.672c-.613.844-1.608.893-2.408.313-.879-.634-1.138-1.634-.548-2.454v-.003zm-41.625 7.008a1.069 1.069 0 10.03 2.137 1.069 1.069 0 00-.03-2.137z" fill="#1D1D1B"/><path d="M40.047 22.05a17.941 17.941 0 00-3.886.42V40a3.898 3.898 0 104.157-3.889v-3.118A7.017 7.017 0 1133.04 40V23.457c-.444.188-.874.397-1.298.62V40a8.32 8.32 0 108.578-8.311v-3.116A11.437 11.437 0 1128.619 40V26.173a17.94 17.94 0 1011.428-4.124z" fill="#D60929"/></g><defs><clipPath id="clip0_228_317"><path fill="#fff" d="M0 0h80v80H0z"/></clipPath></defs></svg>