<svg width="80" height="80" fill="none" xmlns="http://www.w3.org/2000/svg"><g clip-path="url(#clip0_228_345)"><path d="M40 80c22.091 0 40-17.909 40-40S62.091 0 40 0 0 17.909 0 40s17.909 40 40 40z" fill="#1D1D1B"/><path d="M27.854 60.65l-1.042 2.086 2.203 1.101 1.044-2.089.95.477-2.602 5.21-.95-.475 1.145-2.296-2.202-1.101-1.148 2.296-.95-.476 2.612-5.21.94.476zm7.23 6.48c-.38 1.502-1.605 1.905-2.645 1.643-1.148-.291-1.844-1.306-1.513-2.62.33-1.314 1.427-1.94 2.66-1.63 1.231.312 1.812 1.368 1.498 2.608zm-3.087-.74c-.2.788.045 1.482.665 1.64.62.158 1.14-.319 1.35-1.148.16-.638.062-1.445-.642-1.623-.703-.177-1.202.457-1.372 1.136v-.005zm4.724.143c.022-.493.025-.891.027-1.254l.924.044.02.633h.026a1.542 1.542 0 011.38-.66c.742.035 1.482.548 1.406 1.877l-.121 2.494-1.062-.052.116-2.373c.03-.605-.173-1.072-.74-1.101a.894.894 0 00-.86.58c-.042.107-.065.22-.07.336l-.12 2.469-1.062-.052.136-2.94zm9.598.317c.227 1.53-.741 2.375-1.81 2.53-1.17.175-2.205-.494-2.403-1.837-.197-1.343.57-2.338 1.827-2.523 1.257-.185 2.198.565 2.386 1.83zm-3.131.508c.118.802.61 1.35 1.234 1.257.625-.094.931-.74.805-1.578-.096-.65-.494-1.358-1.217-1.252-.724.106-.924.882-.822 1.573zm4.407-1.63a19.956 19.956 0 00-.45-1.281l.872-.28.287.742h.024a1.261 1.261 0 01.828-1.203c.08-.027.163-.044.247-.052l.306.946a1.77 1.77 0 00-.314.074.936.936 0 00-.657 1.057c.016.105.04.21.072.311l.671 2.081-1.01.326-.876-2.72zm4.193.492c.376.028.753-.037 1.098-.19.42-.203.519-.472.398-.721-.121-.25-.34-.307-.889-.247-.86.11-1.36-.146-1.58-.598-.324-.669-.022-1.45.857-1.876a2.42 2.42 0 011.118-.267l.133.763c-.312-.02-.624.04-.908.17-.34.168-.445.43-.331.662.114.232.348.264.918.207.808-.096 1.29.104 1.57.66.337.691.043 1.45-.96 1.938-.396.2-.835.302-1.279.296l-.145-.797zm.903-36.284l-6.353 19.891h-4.34l-3.435-12.866-3.435 12.866h-4.34l-6.353-19.891h4.933l3.55 13.654 3.356-13.654h4.578l3.355 13.654 3.551-13.654h4.933zm3.319 13.499a3.316 3.316 0 11-3.314 3.313 3.237 3.237 0 013.314-3.313z" fill="#fff"/></g><defs><clipPath id="clip0_228_345"><path fill="#fff" d="M0 0h80v80H0z"/></clipPath></defs></svg>