<svg width="80" height="80" fill="none" xmlns="http://www.w3.org/2000/svg"><g clip-path="url(#clip0_228_166)"><path d="M39.999 79.998c22.09 0 39.999-17.908 39.999-39.999C79.998 17.909 62.09 0 39.999 0 17.909 0 0 17.908 0 39.999c0 22.09 17.908 39.999 39.999 39.999z" fill="#ADE1F9"/><path d="M29.053 38.735c.166-.002.332.023.49.072.156.05.309.111.457.18l.34-.875a2.94 2.94 0 00-1.275-.287 2.091 2.091 0 00-1.062.261c-.3.173-.542.433-.692.745-.167.35-.25.735-.241 1.123 0 .68.166 1.203.497 1.568.332.364.809.545 1.43.54.4.008.797-.07 1.165-.227v-.94c-.168.07-.34.13-.515.182-.172.051-.35.077-.53.076-.602 0-.903-.395-.903-1.187-.018-.315.06-.628.222-.898a.71.71 0 01.62-.325m4.928 2.414a2.467 2.467 0 01-.63-.092 3.297 3.297 0 01-.661-.255v.992c.187.089.384.155.588.196.227.042.458.061.69.057.294.007.587-.05.858-.165a1.209 1.209 0 00.756-1.142 1.11 1.11 0 00-.207-.692 1.881 1.881 0 00-.74-.514 4.788 4.788 0 01-.68-.349.272.272 0 01-.125-.217.229.229 0 01.098-.196.519.519 0 01.316-.076c.347.017.686.107.995.264l.341-.858a3.192 3.192 0 00-1.303-.296 1.822 1.822 0 00-1.137.317 1.055 1.055 0 00-.413.886c-.005.18.028.36.096.527.068.152.17.286.298.392.184.145.387.264.603.355.297.13.48.219.547.265a.544.544 0 01.15.127.243.243 0 01.046.149.262.262 0 01-.115.221.614.614 0 01-.363.087m5.239.017a2.462 2.462 0 01-.631-.092 3.3 3.3 0 01-.663-.255v.992c.188.089.385.155.588.196.228.042.459.061.69.057.295.007.587-.05.858-.165a1.209 1.209 0 00.757-1.142 1.12 1.12 0 00-.206-.692 1.881 1.881 0 00-.739-.514 4.78 4.78 0 01-.688-.345.271.271 0 01-.125-.217.229.229 0 01.098-.196.52.52 0 01.316-.076c.347.016.687.107.997.264l.341-.858a3.192 3.192 0 00-1.303-.296 1.822 1.822 0 00-1.137.317 1.055 1.055 0 00-.413.886c-.005.18.028.36.096.527.068.152.17.286.297.392.185.145.388.264.604.355.297.13.479.219.547.265a.542.542 0 01.149.127.244.244 0 01.047.149.263.263 0 01-.116.221.612.612 0 01-.362.087m7.098-2.756c-.359-.338-.87-.508-1.53-.508h-1.425v4.116h1.33c.685 0 1.217-.185 1.596-.556.379-.371.568-.9.568-1.588.002-.638-.178-1.126-.539-1.464zm-.85 2.403a.898.898 0 01-.743.294h-.249V38.78h.324a.827.827 0 01.68.272c.167.246.246.542.223.84.024.317-.058.634-.235.899zm6.43-2.926h-1.483l-1.343 4.133h1.221l.208-.772h1.336l.196.772h1.217l-1.352-4.133zm-1.166 2.45c.171-.646.282-1.078.331-1.298.05-.22.083-.377.1-.472.018.103.058.273.118.511l.15.588.177.676-.876-.005zm-5.247-5.423l-4.247-4.189-4.166 4.189h-2.383l8.852-8.826h-9.29l-8.886 8.826H22.02l.382.617h35.95v-.617H45.498zM22.02 44.95h12.759l4.149 4.145 4.225-4.145h2.268l-8.796 8.752 9.29.002 4.625-4.578 4.21-4.176h3.602v-.616H22.02v.616zm.962-31.301l2.143 2.69c.233.28.384.62.437.98.046.346-.014.697-.173 1.008-.19.361-.457.675-.784.919-.534.426-1.057.622-1.568.588a1.864 1.864 0 01-1.34-.772l-2.129-2.695.88-.7 2.027 2.548c.18.266.446.461.754.55.249.048.522-.047.82-.283a1.004 1.004 0 00.447-.726 1.372 1.372 0 00-.37-.864l-2.023-2.548.88-.695zm2.042-1.199l.987-.544 2.563 4.659-.987.543-2.563-4.659zm10.53-1.114c.213.85.135 1.56-.235 2.132-.37.572-1.012.973-1.925 1.202l-1.46.366-1.293-5.156 1.619-.406c.84-.21 1.55-.152 2.128.174.577.327.965.89 1.164 1.688m-1.129.313c-.276-1.102-.905-1.533-1.89-1.293l-.587.145.84 3.357.47-.117c1.052-.262 1.437-.96 1.154-2.093m6.089 2.09l-3.06.14-.243-5.311 3.06-.14.043.922-1.934.09.054 1.164 1.798-.08.043.92-1.8.083.063 1.37 1.933-.088.043.93zm4.562-.999a1.371 1.371 0 01-.656 1.06c-.378.232-.872.309-1.482.232a3.385 3.385 0 01-1.452-.508l.131-1.039c.275.173.563.323.86.451a2.7 2.7 0 00.665.182.98.98 0 00.588-.068.487.487 0 00.249-.392.464.464 0 00-.063-.29.978.978 0 00-.225-.265 6.525 6.525 0 00-.64-.443 3.27 3.27 0 01-.67-.529 1.656 1.656 0 01-.325-.535 1.4 1.4 0 01-.063-.668 1.372 1.372 0 01.614-1.041 1.987 1.987 0 011.362-.235c.265.032.524.098.772.196.258.105.508.23.747.372l-.47.823a5.31 5.31 0 00-.669-.329 2.267 2.267 0 00-.533-.137.725.725 0 00-.506.086.491.491 0 00-.217.365.482.482 0 00.035.266.76.76 0 00.196.241c.212.166.433.32.663.459.366.207.682.493.925.837.155.274.214.594.164.905M46 14.513l1.401-5.13 1.087.297-1.401 5.13L46 14.513zm5.615-1.17l1.915.884-1.156 2.502a5.957 5.957 0 01-1.849-.523c-.729-.337-1.186-.808-1.371-1.413-.186-.605-.095-1.308.274-2.11.36-.785.863-1.289 1.511-1.514.648-.224 1.367-.16 2.156.196a3.95 3.95 0 011.295.959l-.719.662a2.674 2.674 0 00-.98-.772 1.496 1.496 0 00-1.268-.045 1.906 1.906 0 00-.952 1.013c-.242.523-.32.972-.232 1.348a1.225 1.225 0 00.745.847c.22.1.448.18.682.235l.467-.995-.916-.424.398-.85zm5.539 7.192l-1.127-.885.668-4.59-.025-.02c-.404.587-.7.999-.886 1.237l-1.547 1.96-.784-.624 3.287-4.178 1.117.88-.646 4.557.02.015c.398-.566.686-.957.863-1.176l1.557-1.977.797.627-3.294 4.174zM9.184 41.026H7.42v-.37l.633-.64c.187-.191.31-.322.367-.391a.878.878 0 00.123-.196.526.526 0 00.02-.318.286.286 0 00-.067-.104.325.325 0 00-.223-.074.641.641 0 00-.285.066c-.103.054-.2.12-.288.196l-.29-.343a1.95 1.95 0 01.314-.243c.084-.044.174-.078.266-.1a1.37 1.37 0 01.324-.035.96.96 0 01.417.086.641.641 0 01.384.6.899.899 0 01-.06.328c-.05.112-.116.217-.196.311-.14.163-.292.315-.453.457l-.323.306v.007H9.18l.004.457zm1.999-1.26c.024.34-.05.68-.216.98a.75.75 0 01-.666.317.741.741 0 01-.656-.327 1.73 1.73 0 01-.222-.966c-.024-.34.05-.681.216-.98a.836.836 0 011.323.015c.167.294.245.631.223.969m-1.23 0c-.012.224.015.449.08.664a.277.277 0 00.27.196.28.28 0 00.268-.196 2.69 2.69 0 000-1.327.278.278 0 00-.537 0 1.96 1.96 0 00-.08.667m2.81 1.248h-.533v-1.96c-.088.089-.15.147-.184.174l-.29.234-.257-.322.812-.646h.437l.016 2.52zm2.448-1.437c0 .497-.104.867-.313 1.112a1.175 1.175 0 01-.949.366 1.782 1.782 0 01-.339-.023v-.435c.1.024.202.036.304.035.15.005.3-.022.44-.079a.553.553 0 00.262-.246c.069-.145.105-.303.106-.463h-.026a.587.587 0 01-.231.227.73.73 0 01-.328.065.66.66 0 01-.519-.212.847.847 0 01-.196-.588.877.877 0 01.23-.64.836.836 0 01.625-.236.9.9 0 01.488.132.84.84 0 01.321.38c.078.186.116.386.112.588m-.894-.667a.315.315 0 00-.259.114.503.503 0 00-.094.327.454.454 0 00.085.29.307.307 0 00.256.106.392.392 0 00.279-.106.322.322 0 00.115-.243.553.553 0 00-.108-.346.331.331 0 00-.274-.142zm7.851 26.555l.524-1.568L21 62.567l-1.392.882-.758-.588 5.121-3.118.784.615-1.825 5.69-.772-.588zm.822-2.336l.538-1.525c.033-.103.091-.262.175-.476.083-.215.149-.37.196-.465-.278.225-.57.432-.874.621l-1.3.833 1.265 1.011zm6.524 6.2l-.91-.403.485-3.436c.022-.149.06-.361.115-.637a6.16 6.16 0 01.132-.568 13.111 13.111 0 01-.737 1.005l-2.193 2.664-.918-.404.473-2.856.458-2.853.855.378-.588 3.306c-.098.523-.203.98-.316 1.372a9.92 9.92 0 01.41-.613c.16-.222.294-.4.404-.533l2.155-2.62.833.374-.476 3.38c-.071.46-.169.913-.292 1.36.244-.405.517-.794.816-1.161l2.046-2.654.846.374-3.598 4.526zm6.99 1.59l-.295-1.625-2.11-.35-.795 1.442-.95-.159 2.987-5.2.98.163 1.144 5.88-.96-.151zm-.405-2.442l-.268-1.59a10.613 10.613 0 01-.079-.501 8.952 8.952 0 01-.059-.498c-.135.332-.29.654-.466.966l-.737 1.355 1.61.268zm4.222.372l.088 2.235-.913.035-.224-5.592 1.58-.062c.721-.03 1.26.085 1.619.34.358.257.547.658.568 1.204.027.697-.315 1.207-1.027 1.53l1.68 2.413-1.041.041-1.427-2.18-.903.036zm-.03-.756l.635-.026c.426-.017.731-.108.916-.274a.86.86 0 00.258-.715.759.759 0 00-.337-.669 1.7 1.7 0 00-.94-.168l-.604.023.072 1.829zm9.257-1.42c.235.892.161 1.641-.222 2.249-.383.608-1.052 1.037-2.009 1.29l-1.532.403-1.427-5.411 1.7-.449c.882-.232 1.63-.18 2.241.157.612.337 1.028.925 1.249 1.764m-1.176.343c-.306-1.163-.972-1.608-2-1.337l-.61.16.928 3.529.492-.13c1.106-.291 1.502-1.03 1.19-2.216m7.051-.006l-2.879 1.448-2.514-5 2.88-1.448.436.868-1.819.916.553 1.097 1.691-.85.437.868-1.693.85.649 1.29 1.818-.913.441.874zm3.971-6.413c.574.721.808 1.44.702 2.156-.106.716-.546 1.38-1.32 1.99l-1.24.98-3.492-4.383 1.372-1.094c.714-.568 1.42-.82 2.116-.758.697.063 1.314.432 1.852 1.11m-.944.783c-.749-.94-1.539-1.08-2.37-.42l-.494.393 2.27 2.851.392-.317c.893-.712.959-1.549.196-2.509m6.56-20.553l-.124-.472h-.817l-.128.472h-.748l.82-2.528h.908l.831 2.528h-.742zm-.265-1.03l-.108-.414a19.63 19.63 0 01-.092-.357 4.664 4.664 0 01-.07-.314c-.01.06-.032.155-.061.29-.03.136-.098.392-.196.794h.527zm3.108-.689a.843.843 0 01-.249.653 1.004 1.004 0 01-.707.23h-.196v.834h-.68v-2.517h.872a1.07 1.07 0 01.717.208.742.742 0 01.24.588m-1.147.328h.123a.34.34 0 00.243-.087.311.311 0 00.09-.237c0-.17-.094-.255-.282-.255h-.176l.002.579zm2.232.478v.917h-.68v-2.518h.825c.685 0 1.027.248 1.027.744a.743.743 0 01-.427.676l.733 1.098h-.772l-.533-.917h-.173zm0-.512h.127c.238 0 .357-.105.357-.315 0-.174-.116-.261-.349-.261h-.135v.576zm3.975 1.429h-.69v-1.333c0-.162.003-.31.01-.445a1.468 1.468 0 01-.16.163l-.285.235-.353-.433.864-.706h.614v2.519zm2.29-1.974a.6.6 0 01-.142.402.814.814 0 01-.414.243v.01c.42.052.631.248.631.588a.647.647 0 01-.278.553c-.23.144-.5.213-.772.196a1.96 1.96 0 01-.75-.135v-.565a1.479 1.479 0 00.652.166.646.646 0 00.327-.062.216.216 0 00.102-.196.221.221 0 00-.053-.159.345.345 0 00-.172-.084 1.37 1.37 0 00-.31-.03h-.155v-.511H74c.346 0 .52-.088.52-.265a.163.163 0 00-.077-.149.392.392 0 00-.206-.049.942.942 0 00-.5.163l-.282-.455c.125-.087.263-.154.41-.196.156-.041.318-.06.48-.058.215-.013.43.041.613.154a.493.493 0 01.222.428" fill="#673AB7"/></g><defs><clipPath id="clip0_228_166"><path fill="#fff" d="M0 0h80v80H0z"/></clipPath></defs></svg>