<svg width="80" height="80" fill="none" xmlns="http://www.w3.org/2000/svg"><g clip-path="url(#clip0_228_125)"><path d="M39.999 79.998c22.09 0 39.999-17.908 39.999-39.999C79.998 17.909 62.09 0 39.999 0 17.909 0 0 17.908 0 39.999c0 22.09 17.908 39.999 39.999 39.999z" fill="#673AB7"/><path d="M20.394 64.676l.55-1.19-1.373-1.28-1.097.641-.913-.823 4.844-2.64 1.006.913-2.103 5.12-.914-.741zm.914-2.011c.456-1.098.73-1.646.823-1.829.092-.182.09-.274.182-.366-.274.182-.913.549-2.01 1.188l1.005 1.007zm6.948 6.767l-1.098-.548.549-2.744c0-.092.09-.275.182-.641a2.3 2.3 0 00.182-.639 5.439 5.439 0 00-.364.549c-.184.182-.275.364-.367.456l-1.828 2.101-1.096-.546 1.096-5.212 1.005.459-.731 2.924c-.098.463-.22.921-.364 1.372a5.34 5.34 0 00.364-.547c.13-.201.284-.385.459-.549l2.01-2.285.914.457-.641 2.924a1.86 1.86 0 01-.182.549c-.091.204-.153.42-.183.64.093-.184.275-.366.365-.548.184-.182.274-.367.459-.549l1.826-2.183 1.006.456-3.563 4.104zm7.218 1.919l-.092-1.28-1.827-.364-.733 1.187-1.188-.182 2.744-4.755 1.28.275.823 5.487-1.007-.368zm-.275-2.193c-.092-1.19-.182-1.829-.182-2.01v-.367c-.314.727-.68 1.43-1.098 2.103l1.28.274zm5.304.549l.092 2.01h-1.098l-.182-5.21 1.462-.09c.731 0 1.188.09 1.554.364a1.373 1.373 0 01.549 1.187c-.017.283-.08.56-.184.823a1.132 1.132 0 01-.731.55l1.646 2.192-1.19.093-1.371-1.92h-.547zm0-.915h.366c.257.02.514-.043.731-.183a.406.406 0 00.182-.548.555.555 0 00-.274-.55 1.8 1.8 0 00-.73-.09h-.367l.092 1.37zm9.415-1.372c.274.82.182 1.552-.184 2.1a2.713 2.713 0 01-1.827 1.19l-1.458.367-1.372-5.03 1.554-.456a2.745 2.745 0 012.101.092c.545.365.912.915 1.186 1.737zm-1.098.274c-.274-1.098-.913-1.464-1.828-1.19l-.549.185.915 3.288.457-.09c.913-.365 1.28-1.096 1.005-2.191v-.002zm7.405-.547l-2.652 1.462-2.467-4.57 2.65-1.462.458.823-1.646.913.548 1.006 1.555-.824.456.824-1.554.823.641 1.187 1.644-.913.367.731zm4.112-6.587c.548.639.823 1.28.73 1.919-.092.639-.456 1.28-1.095 1.92l-1.098 1.006-3.382-3.932 1.19-1.095c.638-.549 1.278-.823 1.918-.823a2.461 2.461 0 011.737 1.005zm-.822.731c-.733-.823-1.464-.914-2.195-.274l-.456.366 2.193 2.548.366-.272c.823-.718.823-1.449.092-2.362v-.006zM12.077 44.936a1.414 1.414 0 011.095.182c.337.316.562.733.641 1.188.09.453.09.919 0 1.372l-.915.182c.072-.299.103-.606.092-.913a1.35 1.35 0 00-.092-.641c-.09-.182-.09-.365-.272-.457a.559.559 0 00-.367-.09.316.316 0 00-.182.09c-.05.1-.111.192-.184.275a3.63 3.63 0 01-.183.64 5.89 5.89 0 01-.274.731 1.585 1.585 0 01-.365.457l-.548.275a1.507 1.507 0 01-1.098-.183 1.609 1.609 0 01-.639-1.097 2.94 2.94 0 010-1.462l.817.18c0 .274-.092.457-.092.639a.684.684 0 00.092.459c0 .182.09.364.273.364a.55.55 0 00.366.092.314.314 0 00.183-.092 1.1 1.1 0 00.184-.274c0-.09.09-.365.182-.731.058-.37.216-.718.457-1.006.188-.18.554-.088.829-.18zM9.7 39.452c.548 0 .915.09 1.187.457.274.274.459.73.459 1.372v.464l1.736-.092v1.006l-4.753.182-.098-1.562c0-.547.093-1.006.367-1.372.274-.367.553-.365 1.101-.455zm.823 2.293v-.366a1.738 1.738 0 00-.183-.731c-.092-.183-.274-.183-.548-.183a.98.98 0 00-.55.183 1.058 1.058 0 00-.182.639v.458h1.463zm3.016-7.138l-.367 2.744-4.745-.733.367-2.744.823.09-.274 1.737 1.005.184.274-1.646.822.092-.273 1.646 1.19.185.274-1.737.904.182zm-2.564-5.393a1.248 1.248 0 00.092 1.005c.259.335.607.589 1.006.731 1.005.367 1.644.184 1.918-.639a4.2 4.2 0 00.183-1.28l.823.275c.03.435-.033.87-.182 1.28-.275.73-.641 1.187-1.188 1.372a2.808 2.808 0 01-1.92-.09 3.251 3.251 0 01-1.188-.731 1.855 1.855 0 01-.55-1.006 2.618 2.618 0 01.093-1.19 3.49 3.49 0 01.821-1.187l.641.548a1.63 1.63 0 00-.353.455 1.583 1.583 0 00-.196.457zm5.123-1.737l-4.205-2.285.454-.913 4.204 2.285-.453.913zm3.565-5.209l-1.097-.457-1.098 1.372.641 1.006-.64.823-2.745-4.296.732-1.006 4.846 1.653-.639.905zm-1.92-.731c-1.006-.366-1.554-.64-1.737-.64a.455.455 0 00-.274-.091c.184.274.549.821 1.28 1.736l.73-1.005zm3.931-1.28L18.566 16.6l.73-.639 2.56 3.016 1.466-1.28.55.64-2.198 1.92zm9.506-8.317c.274.731.274 1.37 0 1.918a2.774 2.774 0 01-1.555 1.28l-1.28.457-1.736-4.479 1.372-.548a2.805 2.805 0 011.919-.09c.639.274 1.005.73 1.28 1.462zm-.998.364c-.366-.913-1.005-1.28-1.828-.913l-.55.182 1.09 2.93.367-.196c1.096-.357 1.37-.998.921-2.003zm6.664.916l-2.744.456-.731-4.753 2.743-.456.185.82-1.737.275.183 1.006 1.554-.275.182.823-1.554.275.182 1.188 1.737-.275v.915zm5.029-1.46a1.31 1.31 0 01-.459 1.005c-.274.272-.731.364-1.28.364a3.055 3.055 0 01-1.372-.274v-.915c.365.182.55.274.823.274.205.074.422.105.64.09.187.014.375-.017.548-.09a.476.476 0 00.182-.367.34.34 0 00-.09-.274c-.092-.09-.092-.182-.184-.182a2.94 2.94 0 00-.639-.367c-.274-.182-.549-.272-.64-.364a.911.911 0 01-.365-.457 1.156 1.156 0 01-.092-.549 1.308 1.308 0 01.456-1.005c.275-.274.731-.367 1.19-.367.247-.014.495.017.73.093.275.092.458.182.732.274l-.367.823a4.634 4.634 0 01-.639-.274 3.89 3.89 0 01-.456-.092.684.684 0 00-.459.092.474.474 0 00-.182.364.332.332 0 00.092.275c0 .092.09.092.182.182.198.15.414.274.643.368.347.145.659.363.913.64.183.182.093.456.093.732zm2.01 1.642l.732-4.753 1.005.182-.731 4.663-1.006-.092zm5.941-1.372l1.828.64-.823 2.376a2.838 2.838 0 01-.913-.09c-.274-.092-.549-.092-.823-.182-.641-.275-1.098-.641-1.372-1.19a2.816 2.816 0 01.092-1.919c.274-.73.639-1.188 1.188-1.462.548-.274 1.19-.274 1.92 0a5.84 5.84 0 011.28.731l-.549.64a3.26 3.26 0 00-.915-.64 1.125 1.125 0 00-1.095.09 1.413 1.413 0 00-.731 1.006 1.836 1.836 0 00-.093 1.19c.093.364.365.548.731.73a6.5 6.5 0 00.641.183l.373-.914-.823-.274.084-.915zm6.489 6.393l-1.096-.731.183-4.204a9.868 9.868 0 01-.722 1.193l-1.19 1.92-.73-.457 2.56-4.022 1.097.73-.182 4.117c.272-.55.546-.916.639-1.098l1.187-1.919.731.457-2.477 4.014zm6.401 6.952l-.731-.914.821-2.193-.547-.182-1.372 1.005-.639-.823 3.84-2.926.64.823-1.736 1.372h2.832l.733.913h-2.744l-1.097 2.925zm6.86 3.018l-2.834 1.277c-.284.141-.6.205-.916.185-.272 0-.547-.184-.821-.367-.274-.182-.457-.456-.64-.913-.275-.549-.365-1.098-.183-1.462a1.654 1.654 0 01.913-1.006l2.834-1.28.457.914-2.65 1.28a1.32 1.32 0 00-.64.549.739.739 0 00.091.73c.134.226.323.415.55.55.181.09.456 0 .822-.185l2.65-1.278.367 1.006zm-.465 7.494a2.31 2.31 0 01-1.919-.274c-.548-.367-.823-.915-1.005-1.737l-.275-1.371 4.663-1.006.274 1.462a2.71 2.71 0 01-.184 1.92c-.274.55-.821.914-1.554 1.006zm-.182-1.001c1.005-.184 1.372-.731 1.187-1.647l-.09-.548-3.016.64.09.457c.184 1.002.823 1.368 1.829 1.098zm.366 8.035c-.823 0-1.372-.182-1.828-.64-.457-.46-.641-1.006-.641-1.737a2.262 2.262 0 01.64-1.644c.457-.367 1.006-.55 1.83-.55.822 0 1.371.183 1.826.64.458.366.64 1.005.64 1.738a2.264 2.264 0 01-.64 1.644 2.89 2.89 0 01-1.827.55zm0-3.473c-.549 0-.915.09-1.19.275a1.01 1.01 0 00-.456.913c0 .823.549 1.188 1.554 1.28 1.098 0 1.646-.367 1.646-1.188 0-.366-.092-.733-.366-.915-.182-.27-.64-.36-1.188-.36v-.005zm-2.103 8.596a1.257 1.257 0 01-.913-.733c-.184-.364-.184-.82-.092-1.372.087-.461.275-.898.549-1.28l.913.183c-.182.274-.365.549-.457.73a1.298 1.298 0 00-.182.55.587.587 0 000 .548c.103.114.227.207.364.275h.275c.092 0 .184-.092.274-.182a3.44 3.44 0 00.457-.55 1.57 1.57 0 01.549-.548l.548-.274c.183-.093.367 0 .64 0a1.156 1.156 0 01.915.64c.182.365.182.732.09 1.278-.074.22-.165.435-.273.641-.092.182-.274.457-.366.64l-.908-.363c.183-.183.275-.457.365-.55.092-.181.092-.274.182-.456v-.456l-.272-.275h-.275c-.092 0-.184.09-.274.182a3.45 3.45 0 00-.457.55c-.274.364-.548.638-.823.73-.269.077-.55.108-.829.092zm-38.936-9.507a.69.69 0 00-.641.367 1.372 1.372 0 00-.275.913c0 .823.275 1.188.916 1.188.186.013.374-.018.546-.09.184-.093.367-.093.549-.183v1.013c-.368.186-.775.28-1.188.273a1.928 1.928 0 01-1.462-.547c-.367-.367-.55-.916-.549-1.646-.006-.413.088-.82.275-1.188a1.42 1.42 0 01.73-.731 1.96 1.96 0 011.099-.274c.44-.007.878.087 1.277.274l-.364.9c-.183-.09-.275-.09-.457-.183a.682.682 0 00-.456-.086zm6.763 2.011c-.018.252-.08.5-.184.73-.134.202-.32.363-.537.467a2.745 2.745 0 01-.916.183 1.764 1.764 0 01-.73-.093 6.238 6.238 0 00-.64-.182v-1.005c.238.106.482.198.732.274.205.068.422.099.639.09.184 0 .274 0 .366-.09.092-.09.09-.092.09-.274 0-.092 0-.092-.09-.183a.322.322 0 00-.182-.092 1.42 1.42 0 01-.549-.274 4.205 4.205 0 01-.64-.365.49.49 0 01-.275-.366 1.176 1.176 0 01-.09-.549 1.124 1.124 0 01.456-.913 2.036 2.036 0 011.188-.367c.47.003.936.096 1.372.275l-.367.915a2.352 2.352 0 00-1.005-.274c-.182 0-.274 0-.365.09a.286.286 0 00-.092.184c0 .09 0 .182.092.182.234.141.478.263.731.365.365.184.64.366.731.549.164.206.257.46.265.723zm5.391 0c-.016.252-.078.5-.182.73a1.35 1.35 0 01-.548.46 2.774 2.774 0 01-.914.182 1.765 1.765 0 01-.73-.092 6.437 6.437 0 00-.642-.183V40.64c.238.106.482.198.731.274.207.069.424.099.641.09.183 0 .275 0 .365-.09.09-.09.092-.092.092-.274 0-.092 0-.092-.092-.182a.314.314 0 00-.182-.093 1.42 1.42 0 01-.55-.274 4.081 4.081 0 01-.638-.364.492.492 0 01-.275-.367 1.153 1.153 0 01-.092-.549 1.13 1.13 0 01.457-.913 2.042 2.042 0 011.19-.366c.47.002.936.095 1.372.274l-.365.915a2.365 2.365 0 00-1.005-.274c-.185 0-.275 0-.367.09-.092.09-.09.092-.09.184s0 .183.09.183c.234.14.478.261.731.364.367.184.641.367.731.549a.833.833 0 01.273.73zm6.308-.913c0 .731-.184 1.28-.55 1.644-.365.364-.913.547-1.644.549h-1.371v-4.296h1.464c.73 0 1.187.184 1.552.548.381.425.579.984.549 1.555zm-1.188.092a1.55 1.55 0 00-.275-.916.898.898 0 00-.73-.274h-.367v2.377h.274c.367 0 .641-.092.731-.274.275-.182.367-.549.367-.913zm6.581 2.193l-.182-.824h-1.372l-.182.824h-1.28l1.372-4.296h1.554l1.372 4.296H52.11zm-.457-1.743l-.184-.73a2.29 2.29 0 00-.182-.642 1.63 1.63 0 01-.09-.548c-.04.15-.07.304-.092.458-.15.45-.273.908-.367 1.372h.915v.09zm6.946-5.021v-.64H45.255l-4.386-4.387-4.296 4.386h-2.471l9.14-9.14H33.64l-9.23 9.14h-3.466v.641H58.6zm-37.657 9.137v.641h13.253l4.296 4.298 4.388-4.296h2.375l-9.14 9.14h9.603l4.847-4.754 4.296-4.386h3.74v-.643H20.942z" fill="#fff"/></g><defs><clipPath id="clip0_228_125"><path fill="#fff" d="M0 0h80v80H0z"/></clipPath></defs></svg>