<svg width="80" height="80" fill="none" xmlns="http://www.w3.org/2000/svg"><g clip-path="url(#clip0_228_178)"><path d="M39.999 79.998c22.09 0 39.999-17.908 39.999-39.999C79.998 17.909 62.09 0 39.999 0 17.909 0 0 17.908 0 39.999c0 22.09 17.908 39.999 39.999 39.999z" fill="#EE752D"/><path d="M48.767 31.578l-5.044 15.788h-3.446l-2.726-10.213-2.724 10.213h-3.445l-5.045-15.788h3.916l2.82 10.838 2.661-10.838h3.636l2.661 10.838 2.82-10.838h3.916zm2.635 10.712a2.633 2.633 0 11-2.633 2.632 2.568 2.568 0 012.633-2.632z" fill="#fff"/><path d="M13.748 28.434L8.82 25.253l.665-1.027 3.822.825-2.317-3.145.666-1.03 4.924 3.181-.588.918-3.038-1.96 1.98 2.612-.43.659-3.197-.733 3.038 1.96-.595.92zm3.244-5.639a2.377 2.377 0 01-2.27-2.138 2.293 2.293 0 012.133-2.27 2.364 2.364 0 012.267 2.137 2.305 2.305 0 01-2.136 2.271h.006zm-.784-1.432c.232.234.537.382.864.419a.98.98 0 001.049-1.113 1.616 1.616 0 00-1.335-1.266.981.981 0 00-1.048 1.113c.057.328.225.627.476.847h-.006zm4.175-1.257l-3.646-4.668.82-.639 1.287 1.652c.004-.183.053-.362.143-.521.095-.183.229-.342.392-.467a1.764 1.764 0 011.478-.405c.557.14 1.045.478 1.372.95.375.43.58.983.574 1.554a1.764 1.764 0 01-.758 1.327 1.337 1.337 0 01-.588.267.897.897 0 01-.52-.03l.263.34-.817.64zm-.463-2.283c.19.27.457.475.766.588a.737.737 0 00.708-.117.858.858 0 00.343-.706 1.473 1.473 0 00-.374-.902 1.497 1.497 0 00-.784-.576.843.843 0 00-.765.155.738.738 0 00-.29.657c.037.33.174.64.392.89l.004.011zm1.525-4.637a.658.658 0 01-.42-.306.672.672 0 01.463-1.014.671.671 0 01.678.309.663.663 0 01-.02.75.67.67 0 01-.7.261h-.001zm2.567 4.235l-2.214-3.58.882-.547 2.21 3.58-.878.547zm1.65-.988l-2.786-5.23.915-.488 2.787 5.23-.915.488zm.655-2.76a2.692 2.692 0 01-.168-.62 2.265 2.265 0 010-.64c.027-.209.089-.413.182-.603.101-.2.24-.378.407-.525.19-.168.409-.3.645-.392.233-.098.481-.152.733-.159.22-.007.438.028.643.104a2.155 2.155 0 01.95.745c.112.155.204.323.277.5l.16.392-2.692 1.09a.991.991 0 00.521.515.963.963 0 00.765-.016 1.14 1.14 0 00.7-.98l.887-.037c-.018.892-.454 1.51-1.307 1.856-.238.1-.493.155-.75.165a1.736 1.736 0 01-.663-.1 2.003 2.003 0 01-.56-.3 2.205 2.205 0 01-.434-.457 2.704 2.704 0 01-.3-.55l.004.011zm.839-.87l1.693-.685c-.31-.454-.686-.59-1.13-.41a.898.898 0 00-.49.443.958.958 0 00-.073.653zm6.242.618l-.98-5.777 3.573-.61.169.992-2.5.427.209 1.213 1.997-.345.168.992-2.003.343.267 1.59 2.583-.442.168.992-3.65.625zm3.79-.63l1.335-2.292-1.285-1.93 1.091-.032.718 1.076.654-1.115 1.086-.031-1.176 1.999 1.46 2.212-1.088.032-.882-1.343-.823 1.398-1.09.025zm3.999-2.208c.035-.573.288-1.11.707-1.503a1.94 1.94 0 011.568-.459c.949.096 1.542.56 1.78 1.394l-.965.28c-.173-.474-.472-.735-.895-.784a.855.855 0 00-.767.273 1.573 1.573 0 00-.345.91c-.049.324.006.656.157.948a.835.835 0 00.69.423c.434.043.784-.153 1.049-.588l.89.466c-.392.769-1.065 1.105-2.02 1.01a2.12 2.12 0 01-1.095-.41 1.83 1.83 0 01-.633-.84 2.495 2.495 0 01-.121-1.12zm4.402.484c.05-.21.126-.412.225-.603a2.3 2.3 0 01.37-.522 1.96 1.96 0 01.5-.392c.198-.105.414-.172.637-.196.253-.026.508-.007.755.055.245.057.479.159.688.3.183.129.34.293.46.482a2.157 2.157 0 01.337 1.16 2.48 2.48 0 01-.07.573l-.102.41-2.824-.686a.994.994 0 00.123.72.961.961 0 00.631.434 1.139 1.139 0 001.137-.392l.737.496c-.536.713-1.251.961-2.146.744a2.155 2.155 0 01-.706-.303 1.73 1.73 0 01-.48-.469 2.007 2.007 0 01-.263-.572 2.216 2.216 0 01-.086-.623c.002-.21.029-.418.078-.621l-.001.005zm1.187-.215l1.776.431c.013-.549-.214-.88-.68-.994a.896.896 0 00-.657.075.959.959 0 00-.439.488zm2.734 3.441l1.995-5.581.98.348-1.997 5.582-.978-.349zm1.852.696l2.366-5.433.952.414-2.365 5.435-.953-.416zm2.572-1.203c.105-.187.233-.361.38-.518a2.29 2.29 0 01.5-.392 1.96 1.96 0 01.588-.23c.22-.043.445-.043.664 0 .25.043.49.132.71.26.223.121.423.283.587.478.143.167.251.36.32.568a2.14 2.14 0 01.006 1.205 2.476 2.476 0 01-.235.522l-.212.372-2.526-1.436a.992.992 0 00-.08.727.963.963 0 00.487.588 1.139 1.139 0 001.198-.057l.588.674c-.711.54-1.467.582-2.268.128a2.157 2.157 0 01-.588-.486 1.729 1.729 0 01-.333-.588 2.015 2.015 0 01-.096-.622c0-.21.03-.42.088-.623.06-.2.142-.394.245-.576l-.023.006zm1.201.12l1.588.903c.163-.523.036-.904-.38-1.143a.896.896 0 00-.651-.108.959.959 0 00-.557.347zm1.701 4.005l2.597-3.312.823.645-.421.537c.587-.184 1.082-.119 1.486.196.283.2.477.505.538.847a1.231 1.231 0 01-.319.962l-1.858 2.37-.817-.641 1.668-2.127c.28-.358.265-.66-.047-.904a.804.804 0 00-.83-.06 2.404 2.404 0 00-.98.803l-1.038 1.323-.802-.639zm4.767 1.137a2.25 2.25 0 011.517-.678 1.943 1.943 0 011.491.678c.653.691.8 1.43.437 2.217l-.913-.418c.177-.473.12-.865-.173-1.176a.855.855 0 00-.758-.294 1.851 1.851 0 00-1.354 1.284.834.834 0 00.245.762c.3.317.692.396 1.175.238l.371.934c-.802.323-1.532.139-2.19-.552a2.123 2.123 0 01-.564-1.012 1.829 1.829 0 01.065-1.04c.14-.36.364-.683.65-.943zm3.014 3.238c.175-.126.364-.23.564-.31.2-.08.408-.131.622-.153.21-.022.422-.01.629.035.217.052.423.146.605.275.209.145.39.326.535.535.15.203.26.433.326.676a1.7 1.7 0 01.049.65 2.16 2.16 0 01-.502 1.096c-.127.147-.27.279-.427.392l-.349.25-1.688-2.366a.96.96 0 00-.182 1.368 1.14 1.14 0 001.112.452l.242.855c-.871.19-1.575-.089-2.11-.839a2.156 2.156 0 01-.347-.704 1.737 1.737 0 01-.057-.666 2.01 2.01 0 01.174-.604c.089-.191.204-.37.343-.529a2.73 2.73 0 01.465-.42l-.004.007zm1.04.613l1.063 1.488c.368-.408.413-.806.135-1.196a.895.895 0 00-.545-.37.958.958 0 00-.654.078h.002zm.35 4.065a.652.652 0 01.523-.06.736.736 0 01.488.873.673.673 0 01-.837.47.754.754 0 01-.49-.877.638.638 0 01.323-.41l-.007.004zm-50.773 21.02l.717 2.14a1.923 1.923 0 01-.015 1.472 1.709 1.709 0 01-1.065.886 1.83 1.83 0 01-1.1.052 1.52 1.52 0 01-.836-.617l-2.091 2.51-.41-1.218 2.007-2.427-.196-.57-2.534.85-.364-1.085 5.887-1.993zm-1.98 1.881l.355 1.058c.153.456.451.61.894.463.443-.148.59-.452.443-.911l-.355-1.059-1.336.449zm.022 4.48c.202-.11.417-.194.64-.252.217-.06.443-.09.67-.087.223.002.444.04.656.112.222.08.427.202.604.359a2.312 2.312 0 01.754 1.379c.037.23.03.464-.023.69a2.279 2.279 0 01-.658 1.096 2.667 2.667 0 01-.495.356l-.392.222-1.509-2.697a1.019 1.019 0 00-.355 1.417 1.204 1.204 0 001.116.608l.154.929c-.94.098-1.646-.28-2.12-1.131a2.285 2.285 0 01-.273-.768 1.834 1.834 0 01.018-.71c.052-.217.138-.425.255-.615.116-.191.258-.365.423-.516.164-.15.345-.282.54-.392h-.005zm1.031.769l.94 1.689c.437-.384.532-.798.285-1.243a.949.949 0 00-.53-.454 1.015 1.015 0 00-.695.008zm.568 4.131l.874.392c-.274.447-.28.839-.015 1.176.223.287.46.334.711.139a.346.346 0 00.134-.327 3.103 3.103 0 00-.169-.64 4.282 4.282 0 01-.163-.54 1.89 1.89 0 01-.043-.474.933.933 0 01.124-.438c.086-.144.2-.27.335-.372a1.193 1.193 0 01.98-.23c.391.07.74.288.976.608.176.225.295.488.347.769a1.64 1.64 0 01-.042.803l-.897-.166a.907.907 0 00-.151-.827.412.412 0 00-.253-.163.346.346 0 00-.284.078c-.13.106-.158.306-.082.6l.115.325.055.151.051.14c.011.029.02.059.028.09.032.128.055.26.068.392a1.103 1.103 0 01-.392 1.045 1.385 1.385 0 01-1.111.272 1.63 1.63 0 01-1.053-.653 1.825 1.825 0 01-.392-1.084 1.96 1.96 0 01.25-1.066zm5.116 1.12l.803.748-.313.337c.186-.048.381-.042.564.017.224.06.43.176.598.336a1.853 1.853 0 01.67 1.472c-.018.542-.27 1.074-.754 1.597-.485.522-.993.81-1.525.864a1.861 1.861 0 01-1.511-.566 1.516 1.516 0 01-.363-.526 1.158 1.158 0 01-.108-.556l-1.505 1.619-.803-.749 4.247-4.594zm-.721 2.398a1.721 1.721 0 00-.494.9.77.77 0 00.237.715.905.905 0 00.795.24c.347-.07.66-.257.886-.528.256-.247.422-.572.47-.923a.894.894 0 00-.29-.775.773.773 0 00-.73-.196 1.737 1.737 0 00-.863.561l-.011.006zm2.58 4.327a2.517 2.517 0 011.764-2.789 2.427 2.427 0 012.787 1.764 2.5 2.5 0 01-1.763 2.785 2.44 2.44 0 01-2.79-1.764l.003.004zm1.333-1.097a1.53 1.53 0 00-.262.98 1.033 1.033 0 001.372.866 1.53 1.53 0 00.784-.656c.196-.288.29-.633.266-.98a1.033 1.033 0 00-1.372-.867 1.55 1.55 0 00-.788.659v-.002zm3.056 4.366l1.662-4.135 1.027.412-.269.67c.542-.36 1.065-.438 1.568-.235.348.12.634.372.798.701a1.308 1.308 0 01-.026 1.065l-1.19 2.959-1.018-.41 1.066-2.653c.179-.447.073-.749-.316-.906-.269-.108-.556-.047-.86.183a2.547 2.547 0 00-.763 1.107l-.66 1.634-1.02-.392zm5.103.698l.92-.255c.069.523.313.83.732.923.356.081.569-.032.64-.34a.348.348 0 00-.105-.34 3.101 3.101 0 00-.533-.392 4.357 4.357 0 01-.462-.313 1.884 1.884 0 01-.333-.341.936.936 0 01-.183-.418 1.29 1.29 0 01.026-.5 1.192 1.192 0 01.621-.803 1.545 1.545 0 011.127-.131c.278.062.537.19.755.374.21.173.373.396.476.649l-.8.437a.908.908 0 00-.639-.547.412.412 0 00-.3.033.347.347 0 00-.17.241c-.04.169.066.34.316.516l.295.178.138.082.127.077a.738.738 0 01.078.053c.105.078.204.163.296.255.094.082.175.179.24.286.132.231.175.503.123.764a1.386 1.386 0 01-.682.921 1.63 1.63 0 01-1.229.161 1.825 1.825 0 01-.994-.588 1.96 1.96 0 01-.48-.982zm4.085 1.982l.535-4.424 1.091.131-.535 4.424-1.091-.131zm.678-5.198a.695.695 0 01-.145-.53.71.71 0 011.409.171.7.7 0 01-.512.607.708.708 0 01-.752-.248zm1.262.998l1.1.013.866 3.122.946-3.098 1.1.013-1.568 4.446-.998-.012-1.446-4.484zm4.41 2.273a2.85 2.85 0 01-.018-.68c.022-.226.075-.448.159-.659a2.07 2.07 0 01.339-.574c.154-.18.34-.328.55-.437a2.29 2.29 0 01.763-.243c.264-.04.533-.033.794.024.227.047.442.138.635.268a2.274 2.274 0 01.79 1.005c.074.19.127.387.156.588l.065.45-3.046.44c.047.264.192.5.406.66a1.02 1.02 0 00.784.177c.445-.064.767-.339.964-.825l.923.186c-.244.915-.848 1.44-1.813 1.578a2.29 2.29 0 01-.813-.02 1.835 1.835 0 01-.654-.27 2.128 2.128 0 01-.485-.459 2.348 2.348 0 01-.33-.588 2.87 2.87 0 01-.17-.64v.019zm1.081-.68l1.915-.276c-.204-.545-.557-.781-1.06-.708a.948.948 0 00-.614.333c-.154.182-.24.412-.24.65zm4.808-2.585l1.011-.449 1.976 2.475-.555-3.104.937-.416 1.93 2.495-.511-3.124 1.011-.46.508 4.66-.89.392-1.96-2.418.486 3.069-.827.372-3.116-3.492zm7.238-.953a2.85 2.85 0 01-.328-.588 2.413 2.413 0 01-.16-.656 1.856 1.856 0 01.327-1.307 2.28 2.28 0 01.566-.567c.216-.158.46-.275.718-.345.224-.061.457-.08.688-.053a2.267 2.267 0 011.16.531 2.7 2.7 0 01.41.451l.264.37-2.497 1.782c.164.21.402.35.665.392a1.02 1.02 0 00.784-.206 1.205 1.205 0 00.478-1.176l.895-.258c.202.922-.094 1.667-.887 2.234-.221.161-.47.281-.733.355a1.835 1.835 0 01-.706.06 2.126 2.126 0 01-.64-.186 2.34 2.34 0 01-.56-.362 2.866 2.866 0 01-.444-.492v.021zm.649-1.101l1.568-1.123c-.432-.392-.854-.44-1.267-.143a.949.949 0 00-.392.578c-.052.233-.02.478.09.69v-.002zm5.174-.506l-4.479-4.382.769-.784 1.585 1.55a1.175 1.175 0 01.077-.566c.07-.204.184-.39.335-.545a1.862 1.862 0 011.491-.635c.545.037 1.072.304 1.58.802.508.498.782 1.014.823 1.55a1.874 1.874 0 01-.608 1.5 1.415 1.415 0 01-.588.364.95.95 0 01-.548.043l.325.317-.762.786zm-.81-2.33c.237.258.547.437.888.514a.784.784 0 00.725-.226.905.905 0 00.26-.784 1.568 1.568 0 00-.505-.898 1.588 1.588 0 00-.911-.491.894.894 0 00-.784.27.784.784 0 00-.212.731c.085.34.273.647.537.878l.002.006zm3.497-2.21l.111-.95c.507.131.884.022 1.131-.329.21-.298.186-.538-.074-.72a.346.346 0 00-.353-.032c-.2.095-.388.211-.563.347-.149.114-.305.22-.468.313-.139.079-.287.14-.441.18a.936.936 0 01-.455.01 1.29 1.29 0 01-.452-.211 1.192 1.192 0 01-.51-.878c-.041-.39.067-.781.304-1.094.163-.234.38-.425.633-.556.24-.13.51-.197.784-.197l.102.908a.906.906 0 00-.747.392.412.412 0 00-.092.278.345.345 0 00.159.25c.14.098.337.066.588-.097l.276-.196.13-.096.117-.09a.737.737 0 01.078-.053 2.64 2.64 0 01.347-.178c.112-.056.232-.094.355-.114.265-.035.534.026.757.174a1.386 1.386 0 01.587.98 1.63 1.63 0 01-.315 1.198c-.223.326-.546.57-.92.698-.343.12-.714.141-1.07.062zm-1.182-5.624a.696.696 0 01-.545-.064.71.71 0 11.688-1.24.7.7 0 01.369.701.709.709 0 01-.512.603zm4.56 2.584l-3.898-2.156.533-.96 3.899 2.155-.534.96zm-2.271-3.129l-.853-.37.28-.643-1.024-.453-.208-1.271 1.666.725.472-1.088.86.374-.472 1.088 1.764.766a.864.864 0 00.568.092.547.547 0 00.332-.337.885.885 0 00.07-.421l.915.12a1.54 1.54 0 01-.13.693 1.71 1.71 0 01-.873.965c-.37.155-.804.124-1.303-.094l-1.786-.784-.278.639zm2.66-2.863a2.838 2.838 0 01-.632-.257 2.41 2.41 0 01-.539-.41 2.08 2.08 0 01-.392-.54 1.854 1.854 0 01-.178-.68c-.02-.268.008-.538.082-.796.068-.258.183-.502.34-.72.134-.188.305-.35.501-.473a2.275 2.275 0 011.237-.318c.204.007.407.038.604.092l.437.122-.82 2.965a1.015 1.015 0 001.246-.76c.121-.434-.002-.84-.368-1.216l.541-.77c.739.59.978 1.354.718 2.295-.07.264-.187.514-.345.737-.137.196-.31.363-.51.492a2.15 2.15 0 01-.613.259 2.39 2.39 0 01-.663.07 2.884 2.884 0 01-.654-.102l.007.01zm-.197-1.264l.516-1.864c-.582-.031-.94.197-1.074.686a.95.95 0 00.059.696c.106.216.286.387.507.482h-.008z" fill="#CA2C12"/><path d="M6.664 40.522v-.196l.946-1.236a.794.794 0 00.196-.485.362.362 0 00-.086-.256.359.359 0 00-.478 0 .441.441 0 00-.112.259l-.437-.085a.722.722 0 01.249-.51.893.893 0 011.146.01.751.751 0 01.218.565 1.013 1.013 0 01-.23.633l-.652.849h.929v.444l-1.69.008zm2.2-1.34c-.02-.353.07-.704.257-1.004a.914.914 0 011.454 0c.188.3.278.65.257 1.002a1.71 1.71 0 01-.249 1.011.913.913 0 01-1.456 0 1.729 1.729 0 01-.257-1.011l-.005.002zm.475 0c0 .615.17.923.51.923.34 0 .51-.308.51-.923 0-.612-.17-.918-.51-.918-.342 0-.51.306-.506.918h-.004zm1.983-.355v-.52l.784-.458h.208v2.673h-.472v-2l-.52.305zm1.594-.14a.825.825 0 01.258-.618.882.882 0 01.637-.244.901.901 0 01.447.114.856.856 0 01.439.757.92.92 0 01-.13.47l-.773 1.394h-.534l.588-.99h-.06a.834.834 0 01-.86-.872l-.012-.01zm.476 0a.413.413 0 00.117.31.443.443 0 00.588 0 .418.418 0 00.118-.311.413.413 0 00-.254-.395.393.393 0 00-.16-.028.408.408 0 00-.419.423l.01.002zm49.087 1.17l.488-.1c.043.226.155.338.335.338a.327.327 0 00.264-.108.539.539 0 00.093-.349v-1.787h.497v1.738c.024.265-.052.53-.213.741a.98.98 0 01-1.204.045.77.77 0 01-.26-.517zm1.975.665l.87-2.673h.496l.87 2.673h-.497l-.196-.629h-.85l-.197.63h-.496zm.833-1.087h.565l-.282-.928-.283.928zm1.835 1.087V37.85h.523l.98 1.764V37.85h.498v2.673h-.528l-.98-1.764v1.764h-.493zm3.502-.737l.46-.056a.435.435 0 00.438.392.391.391 0 00.303-.124.453.453 0 00.116-.323.488.488 0 00-.116-.345.393.393 0 00-.303-.126.455.455 0 00-.234.061l-.196-.267.504-.693h-.845v-.459h1.527v.177l-.629.846h.106a.588.588 0 01.482.22.9.9 0 01-.717 1.474.893.893 0 01-.61-.218.827.827 0 01-.286-.559zm2.283-.958v-.52l.784-.458h.208v2.673h-.474v-2l-.518.305z" fill="#fff"/></g><defs><clipPath id="clip0_228_178"><path fill="#fff" d="M0 0h80v80H0z"/></clipPath></defs></svg>