<svg width="73" height="72" fill="none" xmlns="http://www.w3.org/2000/svg"><path d="M64.625 65.25H8.375a5.632 5.632 0 01-5.625-5.625A1.125 1.125 0 013.875 58.5h24.75a1.125 1.125 0 110 2.25H5.194A3.379 3.379 0 008.375 63h56.25c1.467 0 2.718-.94 3.181-2.25h-23.43a1.125 1.125 0 110-2.25h24.75a1.125 1.125 0 011.125 1.125c0 3.1-2.522 5.625-5.625 5.625zm0-7.875A1.125 1.125 0 0163.5 56.25V16.875a1.125 1.125 0 00-1.125-1.125h-51.75A1.125 1.125 0 009.5 16.875V56.25a1.125 1.125 0 01-2.25 0V16.875a3.38 3.38 0 013.375-3.375h51.75a3.38 3.38 0 013.375 3.375V56.25a1.125 1.125 0 01-1.125 1.125z" fill="#4AC42B"/><path d="M30.875 42.75a1.125 1.125 0 01-1.098-1.37l3.407-15.323a2.915 2.915 0 00-2.858-3.557H23a1.125 1.125 0 110-2.25h7.326a5.152 5.152 0 014.036 1.935 5.157 5.157 0 011.017 4.36l-3.406 15.323a1.125 1.125 0 01-1.098.882z" fill="#4AC42B"/><path d="M46.625 42.75h-15.75a1.125 1.125 0 110-2.25h15.75a5.61 5.61 0 005.193-3.463l3.245-7.787H34.25a1.125 1.125 0 110-2.25h20.813a2.251 2.251 0 012.078 3.114l-3.244 7.79a7.861 7.861 0 01-7.272 4.846zM42.125 54a2.25 2.25 0 100-4.5 2.25 2.25 0 000 4.5z" fill="#4AC42B"/><path d="M45.5 49.5H30.875a4.504 4.504 0 01-4.5-4.5c0-2.482 2.018-4.5 4.5-4.5H43.25a1.125 1.125 0 110 2.25H30.875a2.252 2.252 0 000 4.5H45.5a1.125 1.125 0 110 2.25zM30.875 54a2.25 2.25 0 100-4.5 2.25 2.25 0 000 4.5zM23 38.25h-9A1.125 1.125 0 1114 36h9a1.125 1.125 0 110 2.25zm3.375-6.75H20.75a1.125 1.125 0 110-2.25h5.625a1.125 1.125 0 110 2.25z" fill="#4AC42B"/></svg>