<svg width="72" height="72" fill="none" xmlns="http://www.w3.org/2000/svg"><path d="M34.875 69.75a1.125 1.125 0 01-1.125-1.125V60.75H14.625A5.632 5.632 0 019 55.125V7.875a1.125 1.125 0 112.25 0v47.25a3.38 3.38 0 003.375 3.375h20.25A1.125 1.125 0 0136 59.625v6.005l5.904-6.747a1.126 1.126 0 01.846-.383h18V12.375a1.125 1.125 0 112.25 0v47.25a1.125 1.125 0 01-1.125 1.125H43.261l-7.54 8.615a1.12 1.12 0 01-.846.385z" fill="#4AC42B"/><path d="M14.625 13.5A5.631 5.631 0 019 7.875c0-3.1 2.522-5.625 5.625-5.625h47.25a1.125 1.125 0 010 2.25c-.904 0-1.746.351-2.367.988A3.292 3.292 0 0058.5 7.875a1.125 1.125 0 11-2.25 0c0-1.244.398-2.417 1.132-3.375H14.625a3.38 3.38 0 00-3.375 3.375 3.38 3.38 0 003.375 3.375 1.125 1.125 0 110 2.25z" fill="#4AC42B"/><path d="M61.875 13.5H18a1.125 1.125 0 110-2.25h43.875a1.125 1.125 0 110 2.25zM14.625 54a1.125 1.125 0 01-1.125-1.125V51.75a1.125 1.125 0 112.25 0v1.125A1.125 1.125 0 0114.625 54zm31.5-22.5h-15.75a1.125 1.125 0 110-2.25h15.75a1.125 1.125 0 110 2.25zm0-4.5h-15.75a1.125 1.125 0 110-2.25h15.75a1.125 1.125 0 110 2.25zm-31.5 21.375A1.125 1.125 0 0113.5 47.25V12.375a1.125 1.125 0 112.25 0V47.25a1.125 1.125 0 01-1.125 1.125z" fill="#4AC42B"/></svg>