<svg width="73" height="72" fill="none" xmlns="http://www.w3.org/2000/svg"><path d="M69.125 6.75H68.9a1.125 1.125 0 110-2.25h.225a1.125 1.125 0 110 2.25zm-4.5 0H38.75a1.125 1.125 0 110-2.25h25.875a1.125 1.125 0 110 2.25zM4.1 6.75h-.225a1.125 1.125 0 010-2.25H4.1a1.125 1.125 0 010 2.25zm30.15 0H8.375a1.125 1.125 0 010-2.25H34.25a1.125 1.125 0 110 2.25zm7.875 54A1.125 1.125 0 0141 59.625v-29.68l-1.044-.522-2.833 1.888a1.126 1.126 0 01-1.248 0l-2.833-1.888-1.665.833a1.125 1.125 0 01-1.555-1.411l5.625-14.625c.333-.869 1.766-.869 2.101 0l5.623 14.618.027.075c.038.115.054.238.05.36v30.352a1.123 1.123 0 01-1.123 1.125zm-9-33.75c.218 0 .437.063.623.189l2.752 1.834 2.752-1.834c.238-.159.527-.22.81-.173L36.5 17.759l-3.562 9.257c.062-.011.124-.016.187-.016z" fill="#4AC42B"/><path d="M36.5 56.25a1.125 1.125 0 01-1.125-1.125v-24.75a1.125 1.125 0 112.25 0v24.75A1.125 1.125 0 0136.5 56.25zm-5.625 4.5a1.125 1.125 0 01-1.125-1.125V29.25a1.125 1.125 0 112.25 0v30.375a1.125 1.125 0 01-1.125 1.125zm9 9h-6.75a3.38 3.38 0 01-3.375-3.375V63A1.125 1.125 0 1132 63v3.375a1.125 1.125 0 001.125 1.125h6.75A1.125 1.125 0 0041 66.375v-6.75a1.125 1.125 0 112.25 0v6.75a3.38 3.38 0 01-3.375 3.375z" fill="#4AC42B"/><path d="M42.125 60.75a1.125 1.125 0 110-2.25 3.38 3.38 0 003.375-3.375v-3.69c0-3.404 1.59-6.77 4.36-9.234A20.244 20.244 0 0056.75 27 20.194 20.194 0 0038.633 6.865a1.125 1.125 0 01.234-2.237A22.439 22.439 0 0159 27a22.482 22.482 0 01-7.65 16.886c-2.286 2.032-3.6 4.784-3.6 7.547v3.69a5.634 5.634 0 01-5.625 5.627zm-4.5 0h-6.75c-3.206 0-5.625-2.63-5.625-6.12v-2.79c0-3.096-1.233-5.915-3.382-7.736-5.6-4.823-8.43-11.805-7.773-19.163.933-10.593 9.28-19.131 19.851-20.3l.304 1.11.101 1.12-.15.007c-9.363 1.033-17.04 8.886-17.866 18.264a20.137 20.137 0 006.993 17.25c2.649 2.243 4.172 5.688 4.172 9.448v2.79c0 2.243 1.42 3.87 3.375 3.87h6.75a1.125 1.125 0 010 2.25z" fill="#4AC42B"/><path d="M38.75 9h-4.5a1.125 1.125 0 01-1.125-1.125v-4.5A1.125 1.125 0 0134.25 2.25h4.5a1.125 1.125 0 011.125 1.125v4.5A1.125 1.125 0 0138.75 9zm-3.375-2.25h2.25V4.5h-2.25v2.25zM57.45 45.13a1.126 1.126 0 01-.871-1.838 25.949 25.949 0 004.995-22.894 1.125 1.125 0 012.176-.564 28.212 28.212 0 01-5.432 24.883 1.11 1.11 0 01-.868.413zm-41.864.003a1.125 1.125 0 01-.87-.412A28.215 28.215 0 019.28 19.834a1.125 1.125 0 012.178.564 25.959 25.959 0 004.997 22.896 1.125 1.125 0 01-.869 1.839z" fill="#4AC42B"/></svg>