<svg width="73" height="72" fill="none" xmlns="http://www.w3.org/2000/svg"><path d="M43.16 65.295a1.125 1.125 0 01-1.008-.623l-4.176-8.381a1.127 1.127 0 012.016-1.004l3.479 6.984L50 55.748V37.91a1.125 1.125 0 112.25 0v15.593l2.599-2.597a1.125 1.125 0 011.59 1.591l-4.52 4.527a1.1 1.1 0 01-.11.097l-7.855 7.846c-.21.21-.496.328-.794.328zM16.709 34.641c-.174 0-.346-.04-.502-.117l-8.381-4.176a1.125 1.125 0 01-.295-1.802l7.85-7.862c.03-.036.06-.07.093-.103l4.574-4.568a1.125 1.125 0 011.59 1.591l-2.64 2.646H34.59a1.125 1.125 0 110 2.25H16.75l-6.521 6.53 6.984 3.478a1.127 1.127 0 01-.504 2.133zm13.108 22.275a7.85 7.85 0 01-5.566-2.302l-6.367-6.367a7.88 7.88 0 010-11.13l7.965-7.966 1.59 1.59-7.965 7.966a5.627 5.627 0 000 7.95l6.368 6.367a5.63 5.63 0 007.949 0l7.965-7.965 1.59 1.59-7.964 7.965a7.832 7.832 0 01-5.564 2.302z" fill="#4AC42B"/><path d="M36.18 53.354a1.13 1.13 0 01-.796-.328l-15.91-15.91a1.125 1.125 0 011.591-1.59L36.181 50.64 62.76 24.06a1.125 1.125 0 011.59 1.591L36.977 53.023a1.126 1.126 0 01-.796.331z" fill="#4AC42B"/><path d="M63.559 25.979a1.11 1.11 0 01-.223-.023l-7.956-1.59a1.126 1.126 0 01-.905-1.103v-5.238h-5.238a1.125 1.125 0 01-1.102-.905l-.52-2.605a1.125 1.125 0 012.205-.441l.34 1.7h5.44a1.125 1.125 0 011.125 1.126v5.44l6.01 1.202 4.822-18.599-19.627 5.088a1.123 1.123 0 01-1.371-.805 1.124 1.124 0 01.804-1.371l21.478-5.569a1.123 1.123 0 011.37 1.37l-5.568 21.479a1.119 1.119 0 01-1.084.843z" fill="#4AC42B"/><path d="M34.59 45.4a1.124 1.124 0 01-.797-1.919l21.01-21.013a1.125 1.125 0 011.592 1.591L35.383 45.072a1.12 1.12 0 01-.794.328zm-6.366-6.365a1.126 1.126 0 01-.79-1.926l.165-.162a1.123 1.123 0 011.846.37 1.124 1.124 0 01-.267 1.232l-.164.162c-.21.209-.494.325-.79.324zm3.182-3.181a1.126 1.126 0 01-.796-1.92l17.83-17.828a1.125 1.125 0 011.592 1.59L32.2 35.526a1.12 1.12 0 01-.794.328zm-11.135 1.59a1.124 1.124 0 01-.797-1.919L46.852 8.147a1.125 1.125 0 011.591 1.591L21.067 37.114a1.123 1.123 0 01-.796.33zM65.995 13.16a1.13 1.13 0 01-.796-.328l-5.945-5.94A1.125 1.125 0 0160.845 5.3l5.945 5.94a1.126 1.126 0 01-.795 1.92zM3.875 69.75a1.12 1.12 0 01-1.064-1.49c.434-1.266 4.317-12.433 6.63-14.748a6.713 6.713 0 015.506-1.938c.617.068 1.065.624.997 1.24a1.137 1.137 0 01-1.24.997 4.544 4.544 0 00-3.672 1.291c-1.249 1.252-3.65 7.124-5.308 11.673 4.55-1.658 10.422-4.06 11.674-5.31a4.478 4.478 0 001.282-3.75 1.123 1.123 0 01.973-1.267 1.126 1.126 0 011.259.983 6.706 6.706 0 01-1.924 5.625C16.675 65.372 5.506 69.253 4.24 69.69c-.117.04-.24.061-.364.061z" fill="#4AC42B"/></svg>