<svg width="72" height="72" fill="none" xmlns="http://www.w3.org/2000/svg"><path d="M64.125 60.75A1.125 1.125 0 0163 59.625v-36a1.125 1.125 0 00-1.125-1.125h-51.75A1.125 1.125 0 009 23.625v36a1.125 1.125 0 11-2.25 0v-36a3.38 3.38 0 013.375-3.375h51.75a3.38 3.38 0 013.375 3.375v36a1.125 1.125 0 01-1.125 1.125z" fill="#4AC42B"/><path d="M28.258 49.896c-.273 0-.536-.1-.74-.279l-6.883-6.021a1.13 1.13 0 010-1.692l6.882-6.021a1.124 1.124 0 111.481 1.694l-5.913 5.173 5.913 5.175a1.125 1.125 0 01-.74 1.971zm4.67 3.197a1.125 1.125 0 01-1.066-1.48l6.143-18.434a1.125 1.125 0 112.135.71l-6.142 18.435a1.132 1.132 0 01-1.07.77zm10.814-3.197a1.125 1.125 0 01-.74-1.973l5.913-5.173-5.913-5.175a1.125 1.125 0 011.48-1.694l6.883 6.02a1.129 1.129 0 010 1.695l-6.883 6.021c-.203.181-.467.28-.74.279zM64.125 69.75H7.875a5.632 5.632 0 01-5.625-5.625A1.125 1.125 0 013.375 63h24.75a1.125 1.125 0 110 2.25H4.694a3.379 3.379 0 003.181 2.25h56.25c1.467 0 2.718-.94 3.181-2.25h-23.43a1.125 1.125 0 110-2.25h24.75a1.125 1.125 0 011.125 1.125c0 3.1-2.522 5.625-5.625 5.625zM49.5 22.5a1.125 1.125 0 01-1.125-1.125v-3.078l-2.29-.504a1.127 1.127 0 01-.853-.837 9.981 9.981 0 00-1.172-2.83 1.12 1.12 0 01.015-1.188l1.267-1.983-1.172-1.172-1.983 1.269a1.12 1.12 0 01-1.188.014 9.334 9.334 0 00-2.81-1.148 1.13 1.13 0 01-.857-.857l-.506-2.311h-1.652l-.506 2.31a1.125 1.125 0 01-.857.858A9.334 9.334 0 0031 11.066a1.126 1.126 0 01-1.189-.014L27.83 9.783l-1.172 1.172 1.267 1.982a1.124 1.124 0 01.015 1.189 9.383 9.383 0 00-1.147 2.812 1.123 1.123 0 01-.86.855l-3.195.698a1.116 1.116 0 01-1.336-.86 1.12 1.12 0 01.86-1.337l2.517-.55a11.52 11.52 0 01.889-2.163l-1.39-2.173a1.124 1.124 0 01.15-1.402l2.453-2.453a1.125 1.125 0 011.401-.153l2.174 1.39c.69-.368 1.415-.665 2.165-.886l.55-2.52a1.121 1.121 0 011.096-.884h3.463a1.125 1.125 0 011.098.884l.551 2.52a11.53 11.53 0 012.165.887l2.174-1.39a1.125 1.125 0 011.401.152l2.453 2.453a1.125 1.125 0 01.15 1.402l-1.39 2.173c.373.7.673 1.422.898 2.162l2.509.551c.52.113.886.57.886 1.098v3.983A1.125 1.125 0 0149.5 22.5z" fill="#4AC42B"/><path d="M30.818 22.444a1.123 1.123 0 01-1.035-.686A6.759 6.759 0 0136 12.375a6.76 6.76 0 016.221 9.376 1.125 1.125 0 11-2.074-.873 4.499 4.499 0 10-8.294.002 1.125 1.125 0 01-1.035 1.564zM48.375 58.5a1.125 1.125 0 01-1.125-1.125c0-.621.504-1.237 1.125-1.237s1.125.391 1.125 1.012v.225a1.125 1.125 0 01-1.125 1.125zm4.5 0a1.125 1.125 0 01-1.125-1.125c0-.621.504-1.237 1.125-1.237S54 56.529 54 57.15v.225a1.125 1.125 0 01-1.125 1.125zm4.5 0a1.125 1.125 0 01-1.125-1.125c0-.621.504-1.237 1.125-1.237s1.125.391 1.125 1.012v.225a1.125 1.125 0 01-1.125 1.125z" fill="#4AC42B"/></svg>