<svg width="72" height="72" fill="none" xmlns="http://www.w3.org/2000/svg"><path d="M39.375 60.75a1.125 1.125 0 01-1.125-1.125v-13.5a1.125 1.125 0 112.25 0v13.5a1.125 1.125 0 01-1.125 1.125zm-6.75 0a1.125 1.125 0 01-1.125-1.125v-13.5a1.125 1.125 0 112.25 0v13.5a1.125 1.125 0 01-1.125 1.125zm-24.75 0a1.125 1.125 0 01-1.125-1.125v-36a3.38 3.38 0 013.375-3.375h13.5a1.125 1.125 0 110 2.25h-13.5A1.125 1.125 0 009 23.625v36a1.125 1.125 0 01-1.125 1.125zm56.25 0A1.125 1.125 0 0163 59.625v-36a1.125 1.125 0 00-1.125-1.125h-13.5a1.125 1.125 0 110-2.25h13.5a3.38 3.38 0 013.375 3.375v36a1.125 1.125 0 01-1.125 1.125zm0 9H7.875a5.632 5.632 0 01-5.625-5.625A1.125 1.125 0 013.375 63h24.75a1.125 1.125 0 110 2.25H4.694a3.379 3.379 0 003.181 2.25h56.25c1.467 0 2.718-.94 3.181-2.25h-23.43a1.125 1.125 0 110-2.25h24.75a1.125 1.125 0 011.125 1.125c0 3.1-2.522 5.625-5.625 5.625zM23.625 45a1.125 1.125 0 01-1.125-1.125v-8.64a10.2 10.2 0 012.961-7.164l2.068-2.068a1.125 1.125 0 011.59 1.591l-2.067 2.068a7.942 7.942 0 00-2.302 5.573v6.82l5.121-2.56a1.126 1.126 0 011.006 2.013l-6.75 3.375a1.154 1.154 0 01-.502.117zm24.75 0a1.12 1.12 0 01-.504-.12l-6.75-3.374a1.126 1.126 0 011.006-2.014l5.123 2.563v-6.82a7.942 7.942 0 00-2.302-5.573l-2.072-2.07A1.125 1.125 0 0144.466 26l2.073 2.07a10.2 10.2 0 012.961 7.164v8.64A1.125 1.125 0 0148.375 45z" fill="#4AC42B"/><path d="M36 42.75c-3.6 0-6.028-1.193-6.129-1.244a1.124 1.124 0 01-.621-1.006v-5.472l-1.332-4.779a28.424 28.424 0 017.285-27.67 1.125 1.125 0 011.591 0 28.423 28.423 0 017.286 27.668l-1.33 4.781V40.5a1.125 1.125 0 01-.621 1.006c-.101.051-2.529 1.244-6.129 1.244zm-4.5-3.006c.833.3 2.444.756 4.5.756a13.477 13.477 0 004.5-.752v-4.873c0-.101.014-.203.043-.301l1.372-4.928A26.186 26.186 0 0036 5.002a26.185 26.185 0 00-5.915 24.644l1.372 4.925c.03.102.043.203.043.304v4.869z" fill="#4AC42B"/><path d="M36 36c-.42 0-.824-.016-1.208-.045a1.125 1.125 0 01-1.04-1.204 1.134 1.134 0 011.206-1.04c.333.026.68.039 1.042.039 3.074 0 5.103-.997 5.121-1.006a1.125 1.125 0 111.006 2.014C42.027 34.808 39.6 36 36 36zm-1.125-11.025a1.125 1.125 0 01-1.125-1.125v-.225a1.125 1.125 0 012.25 0v.225a1.125 1.125 0 01-1.125 1.125zm0-4.725a1.125 1.125 0 01-1.125-1.125V18.9a1.125 1.125 0 012.25 0v.225a1.125 1.125 0 01-1.125 1.125zm4.552 40.5a1.125 1.125 0 01-1.125-1.125 6.518 6.518 0 016.509-6.51c2.054 0 3.971.986 5.186 2.597a5.575 5.575 0 012.892-.8 5.632 5.632 0 015.498 4.481 1.125 1.125 0 01-1.317 1.332 1.126 1.126 0 01-.89-.88 3.376 3.376 0 00-3.294-2.684c-.904 0-1.755.358-2.394 1.008a1.123 1.123 0 01-1.822-.317 4.269 4.269 0 00-3.859-2.484 4.264 4.264 0 00-4.26 4.26 1.125 1.125 0 01-1.124 1.122zm-6.802 0a1.125 1.125 0 01-1.125-1.125 4.264 4.264 0 00-4.26-4.26 4.27 4.27 0 00-3.858 2.485 1.125 1.125 0 01-1.823.317 3.336 3.336 0 00-2.393-1.008 3.371 3.371 0 00-3.295 2.684 1.138 1.138 0 01-1.33.875 1.126 1.126 0 01-.712-.482 1.126 1.126 0 01-.165-.845 5.634 5.634 0 015.5-4.482c1.034 0 2.024.279 2.89.801a6.514 6.514 0 015.187-2.596 6.518 6.518 0 016.509 6.509 1.125 1.125 0 01-1.125 1.127z" fill="#4AC42B"/></svg>