<svg width="100" height="100" fill="none" xmlns="http://www.w3.org/2000/svg"><g clip-path="url(#clip0_246_922)" fill="#fff"><path d="M97.5.73H22.768c-2.456 0-2.601 2.185-2.601 4.011 0 1.228.003 14.698-.003 14.698H5.074c-1.937 0-5.074-.37-5.074 2.507v74.767c0 3.233 4.112 2.557 6.235 2.557h66.374c2.1 0 6.875.826 7.206-2.228.213-1.964.015-4.046.015-6.017v-8.954c0-.093-.014-1.511.012-1.511h17.553c1.845 0 2.604-1.482 2.604-3.077V3.975C100 2.407 99.424.73 97.5.73zM74.83 94.27H5.426c-.507 0-.426.011-.426-.499V26.09c0-.099-.016-1.65.014-1.65H19.7c.268 0 .469-.116.469.164v53.24c0 1.732 1.255 2.717 2.894 2.717h51.293c.067 0 .475-.042.475.034v2.454L74.83 94.27zM95 75.561H25.595c-.507 0-.426.012-.426-.499V7.383c0-.085-.003-1.65.003-1.65H94.64c.489-.002.36.083.36.576v69.252z"/><path d="M38.642 44.165l9.051 6.242 5.925 4.086c.955.658 2.165 1.806 3.396 1.806 1.514 0 2.494-1.548 3.39-2.568l4.872-5.551 12.469-14.203 3.786-4.314c.328-.374.687-.733.884-1.2.961-2.281-1.79-4.456-3.786-2.987-.979.721-1.755 1.912-2.546 2.813l-5.414 6.167-11.916 13.575c-.125.143-2.091 2.488-2.158 2.441l-4.813-3.32-8.685-5.989c-.604-.417-1.199-.906-1.848-1.257-2.691-1.454-5.126 2.522-2.607 4.259z"/></g><defs><clipPath id="clip0_246_922"><path fill="#fff" d="M0 0h100v100H0z"/></clipPath></defs></svg>