<svg width="32" height="32" fill="none" xmlns="http://www.w3.org/2000/svg"><g clip-path="url(#clip0_231_442)"><path d="M31.83 23.36a2.194 2.194 0 00-.108-.209c-.555-1-1.616-2.227-3.182-3.682l-.033-.033-.017-.017-.017-.016h-.017c-.71-.678-1.16-1.133-1.349-1.367-.345-.444-.422-.894-.234-1.35.134-.344.634-1.07 1.5-2.182.455-.588.816-1.06 1.083-1.416 1.922-2.555 2.755-4.187 2.5-4.898l-.1-.166c-.067-.1-.239-.192-.516-.275-.278-.084-.634-.097-1.067-.042l-4.798.033c-.078-.027-.189-.025-.334.009l-.216.05-.084.041-.066.05a.74.74 0 00-.183.175c-.067.083-.122.18-.167.292a27.205 27.205 0 01-1.783 3.749 35.474 35.474 0 01-1.133 1.79c-.344.506-.633.878-.866 1.117a6.04 6.04 0 01-.633.575c-.19.144-.333.205-.433.183a12.83 12.83 0 01-.284-.067c-.155-.1-.28-.236-.374-.408a1.827 1.827 0 01-.192-.65 7.147 7.147 0 01-.058-.675 13.53 13.53 0 01.008-.8c.012-.344.017-.577.017-.7 0-.421.008-.88.025-1.374.016-.494.03-.886.041-1.174.012-.289.017-.594.017-.917 0-.322-.02-.574-.058-.758a2.591 2.591 0 00-.175-.533.897.897 0 00-.341-.4 1.925 1.925 0 00-.559-.225c-.588-.133-1.338-.205-2.249-.216-2.066-.022-3.393.11-3.982.4a2.245 2.245 0 00-.633.5c-.2.244-.228.377-.084.4.667.099 1.139.338 1.417.715l.1.2c.078.145.155.4.233.767.078.367.128.772.15 1.216.055.811.055 1.505 0 2.083a24.922 24.922 0 01-.158 1.35c-.05.321-.126.582-.225.782-.1.2-.167.322-.2.367a.285.285 0 01-.084.083 1.247 1.247 0 01-.45.084c-.155 0-.344-.078-.566-.234a3.996 3.996 0 01-.691-.641c-.24-.272-.509-.653-.809-1.142-.3-.488-.61-1.066-.932-1.732l-.267-.484c-.167-.31-.394-.763-.683-1.357a26.176 26.176 0 01-.766-1.725 1.098 1.098 0 00-.4-.533l-.084-.05a1.14 1.14 0 00-.266-.142 1.768 1.768 0 00-.383-.108l-4.565.033c-.467 0-.784.106-.95.317l-.067.1a.539.539 0 00-.05.266c0 .123.033.273.1.45a54.989 54.989 0 002.174 4.532c.783 1.455 1.464 2.627 2.041 3.515a41.508 41.508 0 001.766 2.516c.6.789.997 1.294 1.191 1.516.195.223.348.389.459.5l.416.4c.267.266.658.586 1.175.958a19.86 19.86 0 001.716 1.1c.628.36 1.358.655 2.191.883a7.605 7.605 0 002.433.275h1.915c.39-.034.683-.156.884-.367l.066-.083c.044-.067.086-.17.125-.308a1.7 1.7 0 00.058-.458 5.488 5.488 0 01.108-1.292c.083-.383.178-.671.284-.866a2.11 2.11 0 01.358-.491c.133-.133.228-.214.284-.242.055-.028.099-.047.132-.058.267-.089.58-.003.942.258.361.261.7.584 1.016.967.317.383.697.813 1.142 1.29.444.479.833.834 1.166 1.067l.333.2c.222.134.511.256.867.367.355.11.666.139.933.083l4.265-.066c.421 0 .75-.07.983-.209.233-.139.371-.292.416-.458.045-.167.047-.356.009-.567a2.095 2.095 0 00-.118-.441z" fill="#fff"/></g><defs><clipPath id="clip0_231_442"><path fill="#fff" d="M0 0h32v32H0z"/></clipPath></defs></svg>